{"glyphs":{"0":{"ha":938,"x_min":56,"x_max":882,"o":"m 476 740 q 687 694 596 740 q 830 566 778 649 q 882 372 882 483 q 829 172 882 261 q 682 32 776 83 q 461 -19 588 -19 q 253 26 344 -19 q 108 156 161 72 q 56 350 56 239 q 108 548 56 460 q 255 688 160 636 q 476 740 350 740 m 464 715 q 358 619 400 715 q 315 354 315 524 q 338 152 315 229 q 396 40 360 75 q 474 6 432 6 q 581 102 539 6 q 622 368 622 199 q 600 569 622 493 q 542 681 578 646 q 464 715 507 715 z "},"1":{"ha":544,"x_min":50,"x_max":497,"o":"m 419 736 l 419 129 q 437 50 419 71 q 497 29 454 29 l 497 0 q 416 3 469 1 q 306 6 363 6 q 159 3 229 6 q 50 0 89 1 l 50 29 q 138 52 107 29 q 169 143 169 75 l 169 485 q 159 583 169 551 q 122 625 149 615 q 50 635 96 635 l 50 665 q 268 683 182 668 q 419 736 354 699 z "},"2":{"ha":768,"x_min":50,"x_max":714,"o":"m 410 740 q 592 694 525 740 q 658 563 658 647 q 630 468 658 510 q 556 391 601 426 q 457 325 510 356 q 355 265 404 294 q 269 204 306 236 l 583 204 q 656 217 640 204 q 676 261 671 229 l 708 261 q 710 97 708 156 q 714 -7 711 38 q 668 -3 701 -4 q 592 -1 635 -1 q 507 0 549 0 l 50 0 l 50 29 q 144 115 88 67 q 255 224 200 164 q 347 356 310 285 q 385 507 385 426 q 354 610 385 578 q 261 643 324 643 q 156 619 200 643 q 75 550 111 594 l 51 567 q 131 655 85 615 q 246 717 178 694 q 410 740 314 740 z "},"3":{"ha":711,"x_min":33,"x_max":672,"o":"m 360 740 q 494 721 435 740 q 588 666 554 701 q 622 579 622 631 q 585 481 622 528 q 474 400 547 435 q 290 350 400 365 q 490 333 404 357 q 624 260 576 310 q 672 138 672 210 q 635 19 672 74 q 533 -77 597 -35 q 387 -149 469 -119 q 214 -194 304 -179 q 33 -210 124 -210 l 33 -181 q 161 -157 94 -178 q 285 -97 228 -136 q 379 1 343 -57 q 415 136 415 60 q 377 270 415 218 q 271 328 339 322 q 232 311 250 318 q 194 304 214 304 q 174 308 182 304 q 167 326 167 313 q 182 351 167 344 q 217 358 197 358 q 240 357 228 358 q 265 354 251 356 q 349 440 326 394 q 372 531 372 485 q 339 622 372 592 q 247 651 306 651 q 147 626 194 651 q 68 553 100 601 l 43 567 q 110 652 71 613 q 210 716 150 692 q 360 740 271 740 z "},"4":{"ha":764,"x_min":3,"x_max":726,"o":"m 565 740 l 571 704 l 110 146 l 142 210 l 596 210 q 668 222 653 210 q 689 267 683 235 l 721 267 q 722 119 721 172 q 726 26 724 67 q 687 30 717 29 q 617 32 657 31 q 536 33 576 33 q 464 33 496 33 l 3 33 l 3 63 l 565 740 m 588 740 l 588 -196 l 393 -196 l 393 511 l 565 740 l 588 740 z "},"5":{"ha":679,"x_min":28,"x_max":639,"o":"m 582 763 q 583 607 582 663 q 588 508 585 551 q 545 513 576 511 q 474 515 514 514 q 394 515 433 515 l 136 515 l 110 299 q 207 344 146 326 q 351 363 268 363 q 514 333 450 363 q 608 252 578 303 q 639 140 639 201 q 585 -4 639 60 q 443 -113 532 -68 q 246 -182 354 -158 q 28 -206 138 -206 l 28 -181 q 158 -159 94 -181 q 272 -97 221 -137 q 352 1 322 -57 q 382 135 382 60 q 344 267 382 221 q 233 313 307 313 q 159 299 190 313 q 100 261 128 285 l 78 276 l 133 725 q 169 721 149 722 q 208 719 189 719 l 485 719 q 531 729 515 719 q 550 763 547 739 l 582 763 z "},"6":{"ha":821,"x_min":58,"x_max":786,"o":"m 668 1004 l 674 976 q 569 935 621 960 q 472 870 518 911 q 392 764 426 829 q 338 601 357 699 q 318 363 318 503 q 335 153 318 231 q 377 42 351 75 q 428 8 403 8 q 476 38 453 8 q 513 131 499 67 q 526 301 526 196 q 513 461 526 401 q 478 547 500 521 q 429 574 457 574 q 386 560 411 574 q 340 516 361 546 q 310 435 319 486 l 297 449 q 334 544 306 508 q 406 597 363 581 q 499 614 449 614 q 644 577 579 614 q 747 474 708 540 q 786 314 786 407 q 735 132 786 207 q 598 19 683 57 q 413 -19 513 -19 q 153 84 247 -19 q 58 376 58 188 q 98 599 58 501 q 203 767 138 696 q 349 888 268 839 q 513 965 429 936 q 668 1004 596 993 z "},"7":{"ha":678,"x_min":29,"x_max":683,"o":"m 29 726 q 75 722 42 724 q 151 720 108 721 q 236 719 194 719 l 683 719 l 683 690 q 616 563 657 633 q 533 410 575 493 q 464 233 492 328 q 436 31 436 138 q 438 7 436 31 q 442 -44 440 -17 q 443 -83 443 -71 q 413 -167 443 -128 q 317 -206 383 -206 q 222 -164 253 -206 q 190 -54 190 -122 q 220 78 190 11 q 299 211 250 144 q 402 341 347 278 q 509 461 457 404 q 596 565 561 518 l 569 515 l 160 515 q 88 503 103 515 q 67 458 72 490 l 35 458 q 33 623 35 564 q 29 726 32 682 z "},"8":{"ha":817,"x_min":51,"x_max":769,"o":"m 418 1003 q 577 977 510 1003 q 682 907 644 951 q 719 806 719 863 q 665 690 719 738 q 507 597 610 642 l 496 617 q 515 676 508 642 q 523 744 521 711 q 525 799 525 778 q 494 931 525 885 q 410 978 463 978 q 350 951 369 978 q 331 885 331 925 q 363 776 331 829 q 444 674 394 724 q 550 573 494 624 q 656 469 606 522 q 738 360 706 417 q 769 240 769 304 q 722 107 769 165 q 591 15 674 49 q 401 -19 508 -19 q 228 8 308 -19 q 100 89 149 35 q 51 221 51 143 q 83 333 51 285 q 170 416 115 381 q 293 478 225 451 l 304 458 q 267 358 276 415 q 257 249 257 301 q 271 126 257 182 q 317 38 285 71 q 408 6 350 6 q 499 44 472 6 q 526 133 526 82 q 495 249 526 196 q 415 349 464 301 q 312 444 367 397 q 208 541 257 492 q 128 647 160 590 q 97 771 97 703 q 143 904 97 853 q 263 979 189 956 q 418 1003 336 1003 z "},"9":{"ha":808,"x_min":32,"x_max":760,"o":"m 406 740 q 665 637 571 740 q 760 344 760 533 q 722 148 760 235 q 619 -3 683 61 q 476 -110 554 -67 q 316 -180 397 -154 q 164 -214 235 -206 l 158 -186 q 283 -137 222 -168 q 392 -49 343 -107 q 471 106 442 8 q 500 358 500 204 q 483 569 500 492 q 442 679 467 646 q 390 713 417 713 q 343 683 365 713 q 306 590 321 654 q 292 419 292 525 q 305 260 292 321 q 340 174 318 200 q 389 147 363 147 q 433 161 408 147 q 478 206 457 175 q 508 286 500 236 l 521 272 q 485 176 514 213 q 413 124 456 140 q 319 107 369 107 q 175 144 240 107 q 71 248 110 181 q 32 407 32 315 q 84 590 32 515 q 221 702 136 664 q 406 740 306 740 z "},"A":{"ha":961,"x_min":-29,"x_max":971,"o":"m 553 983 l 889 117 q 931 49 908 69 q 971 28 953 29 l 971 0 q 854 3 921 3 q 718 4 788 4 q 585 3 647 4 q 485 0 522 3 l 485 28 q 574 52 556 31 q 565 144 593 74 l 343 760 l 371 808 l 179 310 q 137 165 144 219 q 143 81 129 110 q 188 40 157 51 q 260 28 218 29 l 260 0 q 167 3 208 3 q 78 4 126 4 q 22 3 51 4 q -29 0 -8 3 l -29 28 q 34 69 3 33 q 99 190 65 104 l 407 983 q 480 981 440 981 q 553 983 519 981 m 601 400 l 601 372 l 188 372 l 201 400 l 601 400 z "},"Á":{"ha":961,"x_min":-29,"x_max":971,"o":"m 553 983 l 889 117 q 931 49 908 69 q 971 28 953 29 l 971 0 q 854 3 921 3 q 718 4 788 4 q 585 3 647 4 q 485 0 522 3 l 485 28 q 574 52 556 31 q 565 144 593 74 l 343 760 l 371 808 l 179 310 q 137 165 144 219 q 143 81 129 110 q 188 40 157 51 q 260 28 218 29 l 260 0 q 167 3 208 3 q 78 4 126 4 q 22 3 51 4 q -29 0 -8 3 l -29 28 q 34 69 3 33 q 99 190 65 104 l 407 983 q 480 981 440 981 q 553 983 519 981 m 601 400 l 601 372 l 188 372 l 201 400 l 601 400 m 586 1304 q 658 1310 617 1319 q 717 1261 699 1301 q 719 1194 732 1228 q 672 1143 706 1160 q 603 1121 640 1126 q 512 1106 565 1115 q 376 1072 458 1097 l 367 1089 q 469 1188 435 1146 q 528 1260 504 1231 q 586 1304 553 1289 z "},"Ă":{"ha":961,"x_min":-29,"x_max":971,"o":"m 553 983 l 889 117 q 931 49 908 69 q 971 28 953 29 l 971 0 q 854 3 921 3 q 718 4 788 4 q 585 3 647 4 q 485 0 522 3 l 485 28 q 574 52 556 31 q 565 144 593 74 l 343 760 l 371 808 l 179 310 q 137 165 144 219 q 143 81 129 110 q 188 40 157 51 q 260 28 218 29 l 260 0 q 167 3 208 3 q 78 4 126 4 q 22 3 51 4 q -29 0 -8 3 l -29 28 q 34 69 3 33 q 99 190 65 104 l 407 983 q 480 981 440 981 q 553 983 519 981 m 601 400 l 601 372 l 188 372 l 201 400 l 601 400 m 781 1278 l 797 1263 q 737 1169 779 1217 q 627 1091 694 1122 q 465 1060 560 1060 q 303 1091 371 1060 q 194 1169 236 1122 q 133 1263 151 1217 l 150 1278 q 267 1224 190 1251 q 465 1197 344 1197 q 663 1224 586 1197 q 781 1278 740 1251 z "},"Ắ":{"ha":961,"x_min":-29,"x_max":971,"o":"m 553 983 l 889 117 q 931 49 908 69 q 971 28 953 29 l 971 0 q 854 3 921 3 q 718 4 788 4 q 585 3 647 4 q 485 0 522 3 l 485 28 q 574 52 556 31 q 565 144 593 74 l 343 760 l 371 808 l 179 310 q 137 165 144 219 q 143 81 129 110 q 188 40 157 51 q 260 28 218 29 l 260 0 q 167 3 208 3 q 78 4 126 4 q 22 3 51 4 q -29 0 -8 3 l -29 28 q 34 69 3 33 q 99 190 65 104 l 407 983 q 480 981 440 981 q 553 983 519 981 m 601 400 l 601 372 l 188 372 l 201 400 l 601 400 m 781 1278 l 797 1263 q 737 1169 779 1217 q 627 1091 694 1122 q 465 1060 560 1060 q 303 1091 371 1060 q 194 1169 236 1122 q 133 1263 151 1217 l 150 1278 q 267 1224 190 1251 q 465 1197 344 1197 q 663 1224 586 1197 q 781 1278 740 1251 m 586 1513 q 658 1519 617 1528 q 717 1469 699 1510 q 719 1402 732 1436 q 672 1351 706 1368 q 603 1329 640 1335 q 512 1315 565 1324 q 376 1281 458 1306 l 367 1297 q 469 1397 435 1354 q 528 1468 504 1439 q 586 1513 553 1497 z "},"Ặ":{"ha":961,"x_min":-29,"x_max":971,"o":"m 553 983 l 889 117 q 931 49 908 69 q 971 28 953 29 l 971 0 q 854 3 921 3 q 718 4 788 4 q 585 3 647 4 q 485 0 522 3 l 485 28 q 574 52 556 31 q 565 144 593 74 l 343 760 l 371 808 l 179 310 q 137 165 144 219 q 143 81 129 110 q 188 40 157 51 q 260 28 218 29 l 260 0 q 167 3 208 3 q 78 4 126 4 q 22 3 51 4 q -29 0 -8 3 l -29 28 q 34 69 3 33 q 99 190 65 104 l 407 983 q 480 981 440 981 q 553 983 519 981 m 601 400 l 601 372 l 188 372 l 201 400 l 601 400 m 781 1278 l 797 1263 q 737 1169 779 1217 q 627 1091 694 1122 q 465 1060 560 1060 q 303 1091 371 1060 q 194 1169 236 1122 q 133 1263 151 1217 l 150 1278 q 267 1224 190 1251 q 465 1197 344 1197 q 663 1224 586 1197 q 781 1278 740 1251 m 478 -265 q 391 -240 422 -265 q 360 -165 360 -215 q 391 -90 360 -117 q 482 -62 422 -62 q 569 -87 539 -62 q 600 -162 600 -112 q 569 -238 600 -211 q 478 -265 538 -265 z "},"Ằ":{"ha":961,"x_min":-29,"x_max":971,"o":"m 553 983 l 889 117 q 931 49 908 69 q 971 28 953 29 l 971 0 q 854 3 921 3 q 718 4 788 4 q 585 3 647 4 q 485 0 522 3 l 485 28 q 574 52 556 31 q 565 144 593 74 l 343 760 l 371 808 l 179 310 q 137 165 144 219 q 143 81 129 110 q 188 40 157 51 q 260 28 218 29 l 260 0 q 167 3 208 3 q 78 4 126 4 q 22 3 51 4 q -29 0 -8 3 l -29 28 q 34 69 3 33 q 99 190 65 104 l 407 983 q 480 981 440 981 q 553 983 519 981 m 601 400 l 601 372 l 188 372 l 201 400 l 601 400 m 781 1278 l 797 1263 q 737 1169 779 1217 q 627 1091 694 1122 q 465 1060 560 1060 q 303 1091 371 1060 q 194 1169 236 1122 q 133 1263 151 1217 l 150 1278 q 267 1224 190 1251 q 465 1197 344 1197 q 663 1224 586 1197 q 781 1278 740 1251 m 353 1513 q 411 1468 388 1497 q 470 1397 435 1439 q 572 1297 506 1354 l 563 1281 q 428 1315 482 1306 q 336 1329 374 1324 q 267 1351 299 1335 q 220 1402 233 1368 q 222 1469 207 1436 q 282 1519 242 1510 q 353 1513 322 1528 z "},"Ẳ":{"ha":961,"x_min":-29,"x_max":971,"o":"m 553 983 l 889 117 q 931 49 908 69 q 971 28 953 29 l 971 0 q 854 3 921 3 q 718 4 788 4 q 585 3 647 4 q 485 0 522 3 l 485 28 q 574 52 556 31 q 565 144 593 74 l 343 760 l 371 808 l 179 310 q 137 165 144 219 q 143 81 129 110 q 188 40 157 51 q 260 28 218 29 l 260 0 q 167 3 208 3 q 78 4 126 4 q 22 3 51 4 q -29 0 -8 3 l -29 28 q 34 69 3 33 q 99 190 65 104 l 407 983 q 480 981 440 981 q 553 983 519 981 m 601 400 l 601 372 l 188 372 l 201 400 l 601 400 m 781 1278 l 797 1263 q 737 1169 779 1217 q 627 1091 694 1122 q 465 1060 560 1060 q 303 1091 371 1060 q 194 1169 236 1122 q 133 1263 151 1217 l 150 1278 q 267 1224 190 1251 q 465 1197 344 1197 q 663 1224 586 1197 q 781 1278 740 1251 m 451 1263 l 451 1339 q 524 1392 506 1364 q 543 1450 543 1421 q 510 1517 543 1496 q 433 1538 478 1538 q 392 1533 408 1538 q 369 1522 375 1528 q 421 1492 403 1513 q 439 1440 439 1472 q 415 1383 439 1404 q 354 1361 390 1361 q 294 1384 317 1361 q 272 1442 272 1407 q 290 1499 272 1476 q 329 1533 308 1521 q 393 1558 357 1550 q 476 1565 429 1565 q 590 1552 540 1565 q 667 1515 639 1539 q 694 1457 694 1490 q 665 1396 694 1422 q 585 1353 635 1369 q 479 1326 536 1336 l 479 1263 l 451 1263 z "},"Ẵ":{"ha":961,"x_min":-29,"x_max":971,"o":"m 553 983 l 889 117 q 931 49 908 69 q 971 28 953 29 l 971 0 q 854 3 921 3 q 718 4 788 4 q 585 3 647 4 q 485 0 522 3 l 485 28 q 574 52 556 31 q 565 144 593 74 l 343 760 l 371 808 l 179 310 q 137 165 144 219 q 143 81 129 110 q 188 40 157 51 q 260 28 218 29 l 260 0 q 167 3 208 3 q 78 4 126 4 q 22 3 51 4 q -29 0 -8 3 l -29 28 q 34 69 3 33 q 99 190 65 104 l 407 983 q 480 981 440 981 q 553 983 519 981 m 601 400 l 601 372 l 188 372 l 201 400 l 601 400 m 781 1278 l 797 1263 q 737 1169 779 1217 q 627 1091 694 1122 q 465 1060 560 1060 q 303 1091 371 1060 q 194 1169 236 1122 q 133 1263 151 1217 l 150 1278 q 267 1224 190 1251 q 465 1197 344 1197 q 663 1224 586 1197 q 781 1278 740 1251 m 350 1511 q 444 1497 406 1511 q 515 1465 483 1483 q 579 1433 546 1447 q 657 1419 613 1419 q 728 1437 694 1419 q 792 1493 761 1454 l 811 1483 q 727 1320 783 1369 q 606 1271 671 1271 q 510 1285 550 1271 q 440 1317 471 1299 q 375 1350 408 1336 q 297 1364 342 1364 q 226 1347 260 1364 q 163 1289 193 1329 l 143 1299 q 228 1462 171 1413 q 350 1511 285 1511 z "},"Ǎ":{"ha":961,"x_min":-29,"x_max":971,"o":"m 553 983 l 889 117 q 931 49 908 69 q 971 28 953 29 l 971 0 q 854 3 921 3 q 718 4 788 4 q 585 3 647 4 q 485 0 522 3 l 485 28 q 574 52 556 31 q 565 144 593 74 l 343 760 l 371 808 l 179 310 q 137 165 144 219 q 143 81 129 110 q 188 40 157 51 q 260 28 218 29 l 260 0 q 167 3 208 3 q 78 4 126 4 q 22 3 51 4 q -29 0 -8 3 l -29 28 q 34 69 3 33 q 99 190 65 104 l 407 983 q 480 981 440 981 q 553 983 519 981 m 601 400 l 601 372 l 188 372 l 201 400 l 601 400 m 782 1314 l 789 1293 q 619 1185 699 1250 q 488 1054 539 1121 l 463 1054 q 333 1185 414 1119 q 161 1293 253 1250 l 168 1314 q 356 1276 264 1300 q 503 1229 449 1253 q 626 1276 549 1253 q 782 1314 703 1300 z "},"Â":{"ha":961,"x_min":-29,"x_max":971,"o":"m 553 983 l 889 117 q 931 49 908 69 q 971 28 953 29 l 971 0 q 854 3 921 3 q 718 4 788 4 q 585 3 647 4 q 485 0 522 3 l 485 28 q 574 52 556 31 q 565 144 593 74 l 343 760 l 371 808 l 179 310 q 137 165 144 219 q 143 81 129 110 q 188 40 157 51 q 260 28 218 29 l 260 0 q 167 3 208 3 q 78 4 126 4 q 22 3 51 4 q -29 0 -8 3 l -29 28 q 34 69 3 33 q 99 190 65 104 l 407 983 q 480 981 440 981 q 553 983 519 981 m 601 400 l 601 372 l 188 372 l 201 400 l 601 400 m 492 1328 q 621 1198 540 1263 q 793 1089 701 1133 l 786 1068 q 598 1107 690 1083 q 451 1153 506 1131 q 328 1107 406 1131 q 172 1068 251 1083 l 165 1089 q 335 1197 256 1132 q 467 1328 415 1261 l 492 1328 z "},"Ấ":{"ha":961,"x_min":-29,"x_max":971,"o":"m 553 983 l 889 117 q 931 49 908 69 q 971 28 953 29 l 971 0 q 854 3 921 3 q 718 4 788 4 q 585 3 647 4 q 485 0 522 3 l 485 28 q 574 52 556 31 q 565 144 593 74 l 343 760 l 371 808 l 179 310 q 137 165 144 219 q 143 81 129 110 q 188 40 157 51 q 260 28 218 29 l 260 0 q 167 3 208 3 q 78 4 126 4 q 22 3 51 4 q -29 0 -8 3 l -29 28 q 34 69 3 33 q 99 190 65 104 l 407 983 q 480 981 440 981 q 553 983 519 981 m 601 400 l 601 372 l 188 372 l 201 400 l 601 400 m 492 1328 q 621 1198 540 1263 q 793 1089 701 1133 l 786 1068 q 598 1107 690 1083 q 451 1153 506 1131 q 328 1107 406 1131 q 172 1068 251 1083 l 165 1089 q 335 1197 256 1132 q 467 1328 415 1261 l 492 1328 m 586 1610 q 658 1616 617 1625 q 717 1567 699 1607 q 719 1499 732 1533 q 672 1449 706 1465 q 603 1426 640 1432 q 512 1412 565 1421 q 376 1378 458 1403 l 367 1394 q 469 1494 435 1451 q 528 1565 504 1536 q 586 1610 553 1594 z "},"Ậ":{"ha":961,"x_min":-29,"x_max":971,"o":"m 553 983 l 889 117 q 931 49 908 69 q 971 28 953 29 l 971 0 q 854 3 921 3 q 718 4 788 4 q 585 3 647 4 q 485 0 522 3 l 485 28 q 574 52 556 31 q 565 144 593 74 l 343 760 l 371 808 l 179 310 q 137 165 144 219 q 143 81 129 110 q 188 40 157 51 q 260 28 218 29 l 260 0 q 167 3 208 3 q 78 4 126 4 q 22 3 51 4 q -29 0 -8 3 l -29 28 q 34 69 3 33 q 99 190 65 104 l 407 983 q 480 981 440 981 q 553 983 519 981 m 601 400 l 601 372 l 188 372 l 201 400 l 601 400 m 492 1328 q 621 1198 540 1263 q 793 1089 701 1133 l 786 1068 q 598 1107 690 1083 q 451 1153 506 1131 q 328 1107 406 1131 q 172 1068 251 1083 l 165 1089 q 335 1197 256 1132 q 467 1328 415 1261 l 492 1328 m 478 -265 q 391 -240 422 -265 q 360 -165 360 -215 q 391 -90 360 -117 q 482 -62 422 -62 q 569 -87 539 -62 q 600 -162 600 -112 q 569 -238 600 -211 q 478 -265 538 -265 z "},"Ầ":{"ha":961,"x_min":-29,"x_max":971,"o":"m 553 983 l 889 117 q 931 49 908 69 q 971 28 953 29 l 971 0 q 854 3 921 3 q 718 4 788 4 q 585 3 647 4 q 485 0 522 3 l 485 28 q 574 52 556 31 q 565 144 593 74 l 343 760 l 371 808 l 179 310 q 137 165 144 219 q 143 81 129 110 q 188 40 157 51 q 260 28 218 29 l 260 0 q 167 3 208 3 q 78 4 126 4 q 22 3 51 4 q -29 0 -8 3 l -29 28 q 34 69 3 33 q 99 190 65 104 l 407 983 q 480 981 440 981 q 553 983 519 981 m 601 400 l 601 372 l 188 372 l 201 400 l 601 400 m 492 1328 q 621 1198 540 1263 q 793 1089 701 1133 l 786 1068 q 598 1107 690 1083 q 451 1153 506 1131 q 328 1107 406 1131 q 172 1068 251 1083 l 165 1089 q 335 1197 256 1132 q 467 1328 415 1261 l 492 1328 m 353 1610 q 411 1565 388 1594 q 470 1494 435 1536 q 572 1394 506 1451 l 563 1378 q 428 1412 482 1403 q 336 1426 374 1421 q 267 1449 299 1432 q 220 1499 233 1465 q 222 1567 207 1533 q 282 1616 242 1607 q 353 1610 322 1625 z "},"Ẩ":{"ha":961,"x_min":-29,"x_max":974,"o":"m 553 983 l 889 117 q 931 49 908 69 q 971 28 953 29 l 971 0 q 854 3 921 3 q 718 4 788 4 q 585 3 647 4 q 485 0 522 3 l 485 28 q 574 52 556 31 q 565 144 593 74 l 343 760 l 371 808 l 179 310 q 137 165 144 219 q 143 81 129 110 q 188 40 157 51 q 260 28 218 29 l 260 0 q 167 3 208 3 q 78 4 126 4 q 22 3 51 4 q -29 0 -8 3 l -29 28 q 34 69 3 33 q 99 190 65 104 l 407 983 q 480 981 440 981 q 553 983 519 981 m 601 400 l 601 372 l 188 372 l 201 400 l 601 400 m 492 1328 q 621 1198 540 1263 q 793 1089 701 1133 l 786 1068 q 598 1107 690 1083 q 451 1153 506 1131 q 328 1107 406 1131 q 172 1068 251 1083 l 165 1089 q 335 1197 256 1132 q 467 1328 415 1261 l 492 1328 m 731 1290 l 731 1367 q 803 1420 785 1392 q 822 1478 822 1449 q 790 1544 822 1524 q 713 1565 757 1565 q 671 1560 688 1565 q 649 1550 654 1556 q 700 1520 682 1540 q 718 1468 718 1500 q 694 1410 718 1432 q 633 1389 669 1389 q 574 1412 596 1389 q 551 1469 551 1435 q 569 1526 551 1504 q 608 1561 588 1549 q 672 1585 636 1578 q 756 1593 708 1593 q 869 1580 819 1593 q 946 1542 918 1567 q 974 1485 974 1518 q 944 1424 974 1450 q 865 1381 914 1397 q 758 1354 815 1364 l 758 1290 l 731 1290 z "},"Ẫ":{"ha":961,"x_min":-29,"x_max":971,"o":"m 553 983 l 889 117 q 931 49 908 69 q 971 28 953 29 l 971 0 q 854 3 921 3 q 718 4 788 4 q 585 3 647 4 q 485 0 522 3 l 485 28 q 574 52 556 31 q 565 144 593 74 l 343 760 l 371 808 l 179 310 q 137 165 144 219 q 143 81 129 110 q 188 40 157 51 q 260 28 218 29 l 260 0 q 167 3 208 3 q 78 4 126 4 q 22 3 51 4 q -29 0 -8 3 l -29 28 q 34 69 3 33 q 99 190 65 104 l 407 983 q 480 981 440 981 q 553 983 519 981 m 601 400 l 601 372 l 188 372 l 201 400 l 601 400 m 492 1328 q 621 1198 540 1263 q 793 1089 701 1133 l 786 1068 q 598 1107 690 1083 q 451 1153 506 1131 q 328 1107 406 1131 q 172 1068 251 1083 l 165 1089 q 335 1197 256 1132 q 467 1328 415 1261 l 492 1328 m 350 1608 q 444 1594 406 1608 q 515 1563 483 1581 q 579 1531 546 1544 q 657 1517 613 1517 q 728 1534 694 1517 q 792 1590 761 1551 l 811 1581 q 727 1417 783 1467 q 606 1368 671 1368 q 510 1382 550 1368 q 440 1415 471 1396 q 375 1447 408 1433 q 297 1461 342 1461 q 226 1444 260 1461 q 163 1386 193 1426 l 143 1396 q 228 1559 171 1510 q 350 1608 285 1608 z "},"Ä":{"ha":961,"x_min":-29,"x_max":971,"o":"m 553 983 l 889 117 q 931 49 908 69 q 971 28 953 29 l 971 0 q 854 3 921 3 q 718 4 788 4 q 585 3 647 4 q 485 0 522 3 l 485 28 q 574 52 556 31 q 565 144 593 74 l 343 760 l 371 808 l 179 310 q 137 165 144 219 q 143 81 129 110 q 188 40 157 51 q 260 28 218 29 l 260 0 q 167 3 208 3 q 78 4 126 4 q 22 3 51 4 q -29 0 -8 3 l -29 28 q 34 69 3 33 q 99 190 65 104 l 407 983 q 480 981 440 981 q 553 983 519 981 m 601 400 l 601 372 l 188 372 l 201 400 l 601 400 m 658 1300 q 743 1264 707 1300 q 779 1179 779 1228 q 743 1094 779 1129 q 658 1058 707 1058 q 573 1094 608 1058 q 538 1179 538 1129 q 573 1264 538 1228 q 658 1300 608 1300 m 300 1300 q 385 1264 349 1300 q 421 1179 421 1228 q 385 1094 421 1129 q 300 1058 349 1058 q 215 1094 250 1058 q 179 1179 179 1129 q 215 1264 179 1228 q 300 1300 250 1300 z "},"Ạ":{"ha":961,"x_min":-29,"x_max":971,"o":"m 553 983 l 889 117 q 931 49 908 69 q 971 28 953 29 l 971 0 q 854 3 921 3 q 718 4 788 4 q 585 3 647 4 q 485 0 522 3 l 485 28 q 574 52 556 31 q 565 144 593 74 l 343 760 l 371 808 l 179 310 q 137 165 144 219 q 143 81 129 110 q 188 40 157 51 q 260 28 218 29 l 260 0 q 167 3 208 3 q 78 4 126 4 q 22 3 51 4 q -29 0 -8 3 l -29 28 q 34 69 3 33 q 99 190 65 104 l 407 983 q 480 981 440 981 q 553 983 519 981 m 601 400 l 601 372 l 188 372 l 201 400 l 601 400 m 478 -265 q 391 -240 422 -265 q 360 -165 360 -215 q 391 -90 360 -117 q 482 -62 422 -62 q 569 -87 539 -62 q 600 -162 600 -112 q 569 -238 600 -211 q 478 -265 538 -265 z "},"À":{"ha":961,"x_min":-29,"x_max":971,"o":"m 553 983 l 889 117 q 931 49 908 69 q 971 28 953 29 l 971 0 q 854 3 921 3 q 718 4 788 4 q 585 3 647 4 q 485 0 522 3 l 485 28 q 574 52 556 31 q 565 144 593 74 l 343 760 l 371 808 l 179 310 q 137 165 144 219 q 143 81 129 110 q 188 40 157 51 q 260 28 218 29 l 260 0 q 167 3 208 3 q 78 4 126 4 q 22 3 51 4 q -29 0 -8 3 l -29 28 q 34 69 3 33 q 99 190 65 104 l 407 983 q 480 981 440 981 q 553 983 519 981 m 601 400 l 601 372 l 188 372 l 201 400 l 601 400 m 353 1304 q 411 1260 388 1289 q 470 1188 435 1231 q 572 1089 506 1146 l 563 1072 q 428 1106 482 1097 q 336 1121 374 1115 q 267 1143 299 1126 q 220 1194 233 1160 q 222 1261 207 1228 q 282 1310 242 1301 q 353 1304 322 1319 z "},"Ả":{"ha":961,"x_min":-29,"x_max":971,"o":"m 553 983 l 889 117 q 931 49 908 69 q 971 28 953 29 l 971 0 q 854 3 921 3 q 718 4 788 4 q 585 3 647 4 q 485 0 522 3 l 485 28 q 574 52 556 31 q 565 144 593 74 l 343 760 l 371 808 l 179 310 q 137 165 144 219 q 143 81 129 110 q 188 40 157 51 q 260 28 218 29 l 260 0 q 167 3 208 3 q 78 4 126 4 q 22 3 51 4 q -29 0 -8 3 l -29 28 q 34 69 3 33 q 99 190 65 104 l 407 983 q 480 981 440 981 q 553 983 519 981 m 601 400 l 601 372 l 188 372 l 201 400 l 601 400 m 451 1054 l 451 1131 q 524 1184 506 1156 q 543 1242 543 1213 q 510 1308 543 1288 q 433 1329 478 1329 q 392 1324 408 1329 q 369 1314 375 1319 q 421 1284 403 1304 q 439 1232 439 1264 q 415 1174 439 1196 q 354 1153 390 1153 q 294 1176 317 1153 q 272 1233 272 1199 q 290 1290 272 1268 q 329 1325 308 1313 q 393 1349 357 1342 q 476 1357 429 1357 q 590 1344 540 1357 q 667 1306 639 1331 q 694 1249 694 1282 q 665 1188 694 1214 q 585 1144 635 1161 q 479 1118 536 1128 l 479 1054 l 451 1054 z "},"Ā":{"ha":961,"x_min":-29,"x_max":971,"o":"m 553 983 l 889 117 q 931 49 908 69 q 971 28 953 29 l 971 0 q 854 3 921 3 q 718 4 788 4 q 585 3 647 4 q 485 0 522 3 l 485 28 q 574 52 556 31 q 565 144 593 74 l 343 760 l 371 808 l 179 310 q 137 165 144 219 q 143 81 129 110 q 188 40 157 51 q 260 28 218 29 l 260 0 q 167 3 208 3 q 78 4 126 4 q 22 3 51 4 q -29 0 -8 3 l -29 28 q 34 69 3 33 q 99 190 65 104 l 407 983 q 480 981 440 981 q 553 983 519 981 m 601 400 l 601 372 l 188 372 l 201 400 l 601 400 m 779 1172 l 779 1138 l 179 1138 l 179 1172 l 779 1172 z "},"Ą":{"ha":961,"x_min":-29,"x_max":971,"o":"m 553 983 l 889 117 q 931 49 908 69 q 971 28 953 29 l 971 0 q 854 3 921 3 q 718 4 788 4 q 585 3 647 4 q 485 0 522 3 l 485 28 q 574 52 556 31 q 565 144 593 74 l 343 760 l 371 808 l 179 310 q 137 165 144 219 q 143 81 129 110 q 188 40 157 51 q 260 28 218 29 l 260 0 q 167 3 208 3 q 78 4 126 4 q 22 3 51 4 q -29 0 -8 3 l -29 28 q 34 69 3 33 q 99 190 65 104 l 407 983 q 480 981 440 981 q 553 983 519 981 m 601 400 l 601 372 l 188 372 l 201 400 l 601 400 m 954 4 q 833 -60 868 -25 q 797 -125 797 -96 q 811 -165 797 -153 q 853 -178 825 -178 q 903 -169 876 -178 q 944 -146 929 -160 l 963 -167 q 873 -239 922 -217 q 750 -261 824 -261 q 647 -235 682 -261 q 613 -162 613 -210 q 690 -60 613 -101 q 901 4 767 -18 l 954 4 z "},"Å":{"ha":961,"x_min":-29,"x_max":971,"o":"m 553 983 l 889 117 q 931 49 908 69 q 971 28 953 29 l 971 0 q 854 3 921 3 q 718 4 788 4 q 585 3 647 4 q 485 0 522 3 l 485 28 q 574 52 556 31 q 565 144 593 74 l 343 760 l 371 808 l 179 310 q 137 165 144 219 q 143 81 129 110 q 188 40 157 51 q 260 28 218 29 l 260 0 q 167 3 208 3 q 78 4 126 4 q 22 3 51 4 q -29 0 -8 3 l -29 28 q 34 69 3 33 q 99 190 65 104 l 407 983 q 480 981 440 981 q 553 983 519 981 m 601 400 l 601 372 l 188 372 l 201 400 l 601 400 m 479 1313 q 593 1275 544 1313 q 642 1172 642 1238 q 593 1069 642 1107 q 479 1031 544 1031 q 367 1069 415 1031 q 318 1172 318 1107 q 367 1275 318 1238 q 479 1313 415 1313 m 479 1283 q 397 1254 436 1283 q 357 1171 357 1225 q 397 1088 357 1115 q 479 1060 436 1060 q 563 1088 524 1060 q 603 1171 603 1115 q 563 1254 603 1225 q 479 1283 524 1283 z "},"Ã":{"ha":961,"x_min":-29,"x_max":971,"o":"m 553 983 l 889 117 q 931 49 908 69 q 971 28 953 29 l 971 0 q 854 3 921 3 q 718 4 788 4 q 585 3 647 4 q 485 0 522 3 l 485 28 q 574 52 556 31 q 565 144 593 74 l 343 760 l 371 808 l 179 310 q 137 165 144 219 q 143 81 129 110 q 188 40 157 51 q 260 28 218 29 l 260 0 q 167 3 208 3 q 78 4 126 4 q 22 3 51 4 q -29 0 -8 3 l -29 28 q 34 69 3 33 q 99 190 65 104 l 407 983 q 480 981 440 981 q 553 983 519 981 m 601 400 l 601 372 l 188 372 l 201 400 l 601 400 m 350 1303 q 444 1289 406 1303 q 515 1257 483 1275 q 579 1225 546 1239 q 657 1211 613 1211 q 728 1228 694 1211 q 792 1285 761 1246 l 811 1275 q 727 1112 783 1161 q 606 1063 671 1063 q 510 1076 550 1063 q 440 1109 471 1090 q 375 1142 408 1128 q 297 1156 342 1156 q 226 1138 260 1156 q 163 1081 193 1121 l 143 1090 q 228 1253 171 1204 q 350 1303 285 1303 z "},"Æ":{"ha":1267,"x_min":-24,"x_max":1207,"o":"m 657 1072 l 125 144 q 106 55 88 79 q 196 28 125 31 l 196 0 q 141 3 175 3 q 69 4 107 4 q 19 3 44 4 q -24 0 -7 3 l -24 28 q 21 48 -1 29 q 72 117 43 67 l 624 1072 l 657 1072 m 1179 983 q 1172 865 1174 922 q 1169 778 1169 808 q 1171 722 1169 749 q 1174 678 1172 696 l 1142 678 q 1097 842 1128 782 q 1025 926 1065 901 q 942 951 985 951 l 924 951 q 862 944 883 951 q 833 912 840 936 q 825 836 825 888 l 825 147 q 833 72 825 97 q 862 40 840 47 q 924 32 883 32 l 969 32 q 1046 60 1004 32 q 1122 153 1088 88 q 1169 333 1157 219 l 1201 333 q 1197 206 1197 283 q 1199 118 1197 175 q 1207 0 1200 61 q 1047 3 1136 3 q 889 4 958 4 q 767 4 843 4 q 605 3 690 4 q 444 0 519 3 l 444 28 q 508 39 488 31 q 536 72 529 47 q 543 147 543 97 l 543 836 q 536 912 543 888 q 508 945 529 936 q 444 956 486 954 l 444 983 q 605 981 519 982 q 767 979 690 979 q 889 979 843 979 q 1034 980 953 979 q 1179 983 1115 981 m 589 508 l 589 481 l 301 481 l 315 508 l 589 508 m 1006 508 q 1006 494 1006 508 q 1006 481 1006 481 l 783 481 q 783 494 783 481 q 783 508 783 508 l 1006 508 m 1046 678 q 1041 565 1040 604 q 1042 494 1042 526 q 1043 424 1042 463 q 1050 311 1044 385 l 1018 311 q 997 392 1011 353 q 956 456 983 431 q 881 481 929 481 l 881 508 q 940 526 917 508 q 978 570 964 543 q 1000 626 992 597 q 1014 678 1008 656 l 1046 678 z "},"B":{"ha":978,"x_min":39,"x_max":950,"o":"m 39 983 q 145 981 79 982 q 278 979 211 979 q 411 981 347 979 q 501 982 475 982 q 785 921 692 982 q 878 764 878 860 q 843 663 878 715 q 738 572 808 611 q 557 518 667 532 l 557 515 q 786 471 700 508 q 911 380 872 433 q 950 269 950 326 q 900 117 950 176 q 756 28 850 57 q 533 0 663 0 q 435 2 500 0 q 281 4 371 4 q 145 3 211 4 q 39 0 79 3 l 39 28 q 103 39 82 31 q 131 72 124 47 q 138 147 138 97 l 138 836 q 131 912 138 888 q 102 945 124 936 q 39 956 81 954 l 39 983 m 494 956 q 433 932 447 956 q 419 836 419 908 l 419 147 q 426 74 419 99 q 453 40 433 49 q 510 32 472 32 q 623 95 588 32 q 658 275 658 158 q 608 440 658 382 q 439 499 557 499 l 338 499 q 338 510 338 499 q 338 522 338 522 l 457 522 q 540 553 511 522 q 581 637 569 585 q 592 749 592 689 q 569 903 592 851 q 494 956 547 956 z "},"C":{"ha":996,"x_min":50,"x_max":925,"o":"m 575 1003 q 726 976 667 1003 q 831 913 785 949 q 873 908 858 892 q 893 983 888 924 l 925 983 q 921 848 922 928 q 919 636 919 768 l 888 636 q 869 755 882 703 q 832 847 857 807 q 760 918 807 888 q 698 949 731 938 q 631 960 665 960 q 500 916 551 960 q 420 802 449 872 q 381 649 392 732 q 369 489 369 567 q 381 328 369 411 q 420 176 392 246 q 500 62 449 106 q 631 18 551 18 q 698 30 665 18 q 760 60 731 42 q 853 175 829 103 q 888 361 878 247 l 919 361 q 921 141 919 225 q 925 0 922 57 l 893 0 q 874 75 888 60 q 831 71 861 90 q 722 8 779 35 q 574 -19 664 -19 q 299 40 417 -19 q 115 213 181 100 q 50 483 50 325 q 117 756 50 639 q 303 938 185 872 q 575 1003 421 1003 z "},"Ć":{"ha":996,"x_min":50,"x_max":925,"o":"m 575 1003 q 726 976 667 1003 q 831 913 785 949 q 873 908 858 892 q 893 983 888 924 l 925 983 q 921 848 922 928 q 919 636 919 768 l 888 636 q 869 755 882 703 q 832 847 857 807 q 760 918 807 888 q 698 949 731 938 q 631 960 665 960 q 500 916 551 960 q 420 802 449 872 q 381 649 392 732 q 369 489 369 567 q 381 328 369 411 q 420 176 392 246 q 500 62 449 106 q 631 18 551 18 q 698 30 665 18 q 760 60 731 42 q 853 175 829 103 q 888 361 878 247 l 919 361 q 921 141 919 225 q 925 0 922 57 l 893 0 q 874 75 888 60 q 831 71 861 90 q 722 8 779 35 q 574 -19 664 -19 q 299 40 417 -19 q 115 213 181 100 q 50 483 50 325 q 117 756 50 639 q 303 938 185 872 q 575 1003 421 1003 m 647 1304 q 719 1310 678 1319 q 778 1261 760 1301 q 780 1194 793 1228 q 733 1143 767 1160 q 664 1121 701 1126 q 573 1106 626 1115 q 438 1072 519 1097 l 428 1089 q 531 1188 496 1146 q 590 1260 565 1231 q 647 1304 614 1289 z "},"Č":{"ha":996,"x_min":50,"x_max":925,"o":"m 575 1003 q 726 976 667 1003 q 831 913 785 949 q 873 908 858 892 q 893 983 888 924 l 925 983 q 921 848 922 928 q 919 636 919 768 l 888 636 q 869 755 882 703 q 832 847 857 807 q 760 918 807 888 q 698 949 731 938 q 631 960 665 960 q 500 916 551 960 q 420 802 449 872 q 381 649 392 732 q 369 489 369 567 q 381 328 369 411 q 420 176 392 246 q 500 62 449 106 q 631 18 551 18 q 698 30 665 18 q 760 60 731 42 q 853 175 829 103 q 888 361 878 247 l 919 361 q 921 141 919 225 q 925 0 922 57 l 893 0 q 874 75 888 60 q 831 71 861 90 q 722 8 779 35 q 574 -19 664 -19 q 299 40 417 -19 q 115 213 181 100 q 50 483 50 325 q 117 756 50 639 q 303 938 185 872 q 575 1003 421 1003 m 843 1314 l 850 1293 q 680 1185 760 1250 q 549 1054 600 1121 l 524 1054 q 394 1185 475 1119 q 222 1293 314 1250 l 229 1314 q 417 1276 325 1300 q 564 1229 510 1253 q 687 1276 610 1253 q 843 1314 764 1300 z "},"Ç":{"ha":996,"x_min":50,"x_max":925,"o":"m 575 1003 q 726 976 667 1003 q 831 913 785 949 q 873 908 858 892 q 893 983 888 924 l 925 983 q 921 848 922 928 q 919 636 919 768 l 888 636 q 869 755 882 703 q 832 847 857 807 q 760 918 807 888 q 698 949 731 938 q 631 960 665 960 q 500 916 551 960 q 420 802 449 872 q 381 649 392 732 q 369 489 369 567 q 381 328 369 411 q 420 176 392 246 q 500 62 449 106 q 631 18 551 18 q 698 30 665 18 q 760 60 731 42 q 853 175 829 103 q 888 361 878 247 l 919 361 q 921 141 919 225 q 925 0 922 57 l 893 0 q 874 75 888 60 q 831 71 861 90 q 722 8 779 35 q 574 -19 664 -19 q 299 40 417 -19 q 115 213 181 100 q 50 483 50 325 q 117 756 50 639 q 303 938 185 872 q 575 1003 421 1003 m 599 7 l 572 -83 q 631 -67 600 -72 q 696 -62 661 -62 q 784 -85 756 -62 q 813 -143 813 -108 q 778 -210 813 -183 q 686 -249 744 -236 q 551 -261 628 -261 q 474 -256 510 -261 q 413 -243 438 -251 l 421 -218 q 454 -222 432 -219 q 501 -225 476 -225 q 561 -219 532 -225 q 610 -202 590 -214 q 629 -172 629 -190 q 611 -145 629 -153 q 563 -137 593 -137 q 539 -140 551 -137 q 517 -147 526 -142 l 561 7 l 599 7 z "},"Ĉ":{"ha":996,"x_min":50,"x_max":925,"o":"m 575 1003 q 726 976 667 1003 q 831 913 785 949 q 873 908 858 892 q 893 983 888 924 l 925 983 q 921 848 922 928 q 919 636 919 768 l 888 636 q 869 755 882 703 q 832 847 857 807 q 760 918 807 888 q 698 949 731 938 q 631 960 665 960 q 500 916 551 960 q 420 802 449 872 q 381 649 392 732 q 369 489 369 567 q 381 328 369 411 q 420 176 392 246 q 500 62 449 106 q 631 18 551 18 q 698 30 665 18 q 760 60 731 42 q 853 175 829 103 q 888 361 878 247 l 919 361 q 921 141 919 225 q 925 0 922 57 l 893 0 q 874 75 888 60 q 831 71 861 90 q 722 8 779 35 q 574 -19 664 -19 q 299 40 417 -19 q 115 213 181 100 q 50 483 50 325 q 117 756 50 639 q 303 938 185 872 q 575 1003 421 1003 m 553 1328 q 682 1198 601 1263 q 854 1089 763 1133 l 847 1068 q 659 1107 751 1083 q 513 1153 567 1131 q 390 1107 467 1131 q 233 1068 313 1083 l 226 1089 q 397 1197 317 1132 q 528 1328 476 1261 l 553 1328 z "},"Ċ":{"ha":996,"x_min":50,"x_max":925,"o":"m 575 1003 q 726 976 667 1003 q 831 913 785 949 q 873 908 858 892 q 893 983 888 924 l 925 983 q 921 848 922 928 q 919 636 919 768 l 888 636 q 869 755 882 703 q 832 847 857 807 q 760 918 807 888 q 698 949 731 938 q 631 960 665 960 q 500 916 551 960 q 420 802 449 872 q 381 649 392 732 q 369 489 369 567 q 381 328 369 411 q 420 176 392 246 q 500 62 449 106 q 631 18 551 18 q 698 30 665 18 q 760 60 731 42 q 853 175 829 103 q 888 361 878 247 l 919 361 q 921 141 919 225 q 925 0 922 57 l 893 0 q 874 75 888 60 q 831 71 861 90 q 722 8 779 35 q 574 -19 664 -19 q 299 40 417 -19 q 115 213 181 100 q 50 483 50 325 q 117 756 50 639 q 303 938 185 872 q 575 1003 421 1003 m 542 1294 q 643 1265 607 1294 q 679 1175 679 1235 q 643 1085 679 1115 q 542 1056 607 1056 q 440 1085 475 1056 q 404 1175 404 1115 q 440 1265 404 1235 q 542 1294 475 1294 z "},"D":{"ha":1126,"x_min":39,"x_max":1075,"o":"m 501 983 q 934 859 793 983 q 1075 503 1075 735 q 1006 238 1075 351 q 805 63 936 125 q 489 0 674 0 q 430 1 467 0 q 353 3 393 3 q 281 4 313 4 q 145 3 211 4 q 39 0 79 3 l 39 28 q 103 39 82 31 q 131 72 124 47 q 138 147 138 97 l 138 836 q 131 912 138 888 q 102 945 124 936 q 39 956 81 954 l 39 983 q 145 980 79 982 q 278 979 211 978 q 394 982 329 981 q 501 983 458 983 m 522 958 q 439 935 458 958 q 419 839 419 911 l 419 144 q 440 49 419 72 q 524 25 460 25 q 675 80 618 25 q 758 240 732 135 q 783 497 783 346 q 756 755 783 653 q 672 908 729 857 q 522 958 614 958 z "},"Ð":{"ha":1126,"x_min":11,"x_max":1075,"o":"m 501 983 q 934 859 793 983 q 1075 503 1075 735 q 1006 238 1075 351 q 805 63 936 125 q 489 0 674 0 q 430 1 467 0 q 353 3 393 3 q 281 4 313 4 q 145 3 211 4 q 39 0 79 3 l 39 28 q 103 39 82 31 q 131 72 124 47 q 138 147 138 97 l 138 836 q 131 912 138 888 q 102 945 124 936 q 39 956 81 954 l 39 983 q 145 980 79 982 q 278 979 211 978 q 394 982 329 981 q 501 983 458 983 m 522 958 q 439 935 458 958 q 419 839 419 911 l 419 144 q 440 49 419 72 q 524 25 460 25 q 675 80 618 25 q 758 240 732 135 q 783 497 783 346 q 756 755 783 653 q 672 908 729 857 q 522 958 614 958 m 572 508 l 572 481 l 11 481 l 11 508 l 572 508 z "},"Ď":{"ha":1126,"x_min":39,"x_max":1075,"o":"m 501 983 q 934 859 793 983 q 1075 503 1075 735 q 1006 238 1075 351 q 805 63 936 125 q 489 0 674 0 q 430 1 467 0 q 353 3 393 3 q 281 4 313 4 q 145 3 211 4 q 39 0 79 3 l 39 28 q 103 39 82 31 q 131 72 124 47 q 138 147 138 97 l 138 836 q 131 912 138 888 q 102 945 124 936 q 39 956 81 954 l 39 983 q 145 980 79 982 q 278 979 211 978 q 394 982 329 981 q 501 983 458 983 m 522 958 q 439 935 458 958 q 419 839 419 911 l 419 144 q 440 49 419 72 q 524 25 460 25 q 675 80 618 25 q 758 240 732 135 q 783 497 783 346 q 756 755 783 653 q 672 908 729 857 q 522 958 614 958 m 804 1314 l 811 1293 q 641 1185 721 1250 q 510 1054 561 1121 l 485 1054 q 356 1185 436 1119 q 183 1293 275 1250 l 190 1314 q 378 1276 286 1300 q 525 1229 471 1253 q 648 1276 571 1253 q 804 1314 725 1300 z "},"Đ":{"ha":1126,"x_min":11,"x_max":1075,"o":"m 501 983 q 934 859 793 983 q 1075 503 1075 735 q 1006 238 1075 351 q 805 63 936 125 q 489 0 674 0 q 430 1 467 0 q 353 3 393 3 q 281 4 313 4 q 145 3 211 4 q 39 0 79 3 l 39 28 q 103 39 82 31 q 131 72 124 47 q 138 147 138 97 l 138 836 q 131 912 138 888 q 102 945 124 936 q 39 956 81 954 l 39 983 q 145 980 79 982 q 278 979 211 978 q 394 982 329 981 q 501 983 458 983 m 522 958 q 439 935 458 958 q 419 839 419 911 l 419 144 q 440 49 419 72 q 524 25 460 25 q 675 80 618 25 q 758 240 732 135 q 783 497 783 346 q 756 755 783 653 q 672 908 729 857 q 522 958 614 958 m 572 508 l 572 481 l 11 481 l 11 508 l 572 508 z "},"E":{"ha":903,"x_min":39,"x_max":843,"o":"m 815 983 q 808 849 810 914 q 806 750 806 785 q 807 694 806 721 q 810 650 808 668 l 778 650 q 722 831 761 765 q 631 924 683 897 q 522 951 579 951 l 504 951 q 450 945 468 951 q 426 921 432 939 q 419 864 419 903 l 419 119 q 426 63 419 82 q 450 38 432 44 q 504 32 468 32 l 550 32 q 647 62 596 32 q 740 164 697 92 q 806 361 783 236 l 838 361 q 833 233 833 311 q 835 134 833 199 q 843 0 836 69 q 683 3 772 3 q 525 4 594 4 q 430 4 488 4 q 305 3 372 4 q 169 2 238 3 q 39 0 100 1 l 39 28 q 103 39 82 31 q 131 72 124 47 q 138 147 138 97 l 138 836 q 131 912 138 888 q 102 945 124 936 q 39 956 81 954 l 39 983 q 169 981 100 982 q 305 980 238 981 q 430 979 372 979 q 525 979 488 979 q 670 980 589 979 q 815 983 751 981 m 614 508 q 614 494 614 508 q 614 481 614 481 l 378 481 q 378 494 378 481 q 378 508 378 508 l 614 508 m 654 692 q 649 571 649 613 q 650 494 650 529 q 651 418 650 460 q 658 297 653 376 l 626 297 q 592 390 618 349 q 526 456 567 432 q 433 481 486 481 l 433 508 q 504 525 472 508 q 560 569 536 542 q 601 629 585 597 q 622 692 617 661 l 654 692 z "},"É":{"ha":903,"x_min":39,"x_max":843,"o":"m 815 983 q 808 849 810 914 q 806 750 806 785 q 807 694 806 721 q 810 650 808 668 l 778 650 q 722 831 761 765 q 631 924 683 897 q 522 951 579 951 l 504 951 q 450 945 468 951 q 426 921 432 939 q 419 864 419 903 l 419 119 q 426 63 419 82 q 450 38 432 44 q 504 32 468 32 l 550 32 q 647 62 596 32 q 740 164 697 92 q 806 361 783 236 l 838 361 q 833 233 833 311 q 835 134 833 199 q 843 0 836 69 q 683 3 772 3 q 525 4 594 4 q 430 4 488 4 q 305 3 372 4 q 169 2 238 3 q 39 0 100 1 l 39 28 q 103 39 82 31 q 131 72 124 47 q 138 147 138 97 l 138 836 q 131 912 138 888 q 102 945 124 936 q 39 956 81 954 l 39 983 q 169 981 100 982 q 305 980 238 981 q 430 979 372 979 q 525 979 488 979 q 670 980 589 979 q 815 983 751 981 m 614 508 q 614 494 614 508 q 614 481 614 481 l 378 481 q 378 494 378 481 q 378 508 378 508 l 614 508 m 654 692 q 649 571 649 613 q 650 494 650 529 q 651 418 650 460 q 658 297 653 376 l 626 297 q 592 390 618 349 q 526 456 567 432 q 433 481 486 481 l 433 508 q 504 525 472 508 q 560 569 536 542 q 601 629 585 597 q 622 692 617 661 l 654 692 m 551 1304 q 623 1310 582 1319 q 682 1261 664 1301 q 684 1194 697 1228 q 638 1143 671 1160 q 568 1121 606 1126 q 477 1106 531 1115 q 342 1072 424 1097 l 332 1089 q 435 1188 400 1146 q 494 1260 469 1231 q 551 1304 518 1289 z "},"Ĕ":{"ha":903,"x_min":39,"x_max":843,"o":"m 815 983 q 808 849 810 914 q 806 750 806 785 q 807 694 806 721 q 810 650 808 668 l 778 650 q 722 831 761 765 q 631 924 683 897 q 522 951 579 951 l 504 951 q 450 945 468 951 q 426 921 432 939 q 419 864 419 903 l 419 119 q 426 63 419 82 q 450 38 432 44 q 504 32 468 32 l 550 32 q 647 62 596 32 q 740 164 697 92 q 806 361 783 236 l 838 361 q 833 233 833 311 q 835 134 833 199 q 843 0 836 69 q 683 3 772 3 q 525 4 594 4 q 430 4 488 4 q 305 3 372 4 q 169 2 238 3 q 39 0 100 1 l 39 28 q 103 39 82 31 q 131 72 124 47 q 138 147 138 97 l 138 836 q 131 912 138 888 q 102 945 124 936 q 39 956 81 954 l 39 983 q 169 981 100 982 q 305 980 238 981 q 430 979 372 979 q 525 979 488 979 q 670 980 589 979 q 815 983 751 981 m 614 508 q 614 494 614 508 q 614 481 614 481 l 378 481 q 378 494 378 481 q 378 508 378 508 l 614 508 m 654 692 q 649 571 649 613 q 650 494 650 529 q 651 418 650 460 q 658 297 653 376 l 626 297 q 592 390 618 349 q 526 456 567 432 q 433 481 486 481 l 433 508 q 504 525 472 508 q 560 569 536 542 q 601 629 585 597 q 622 692 617 661 l 654 692 m 746 1278 l 763 1263 q 702 1169 744 1217 q 592 1091 660 1122 q 431 1060 525 1060 q 269 1091 336 1060 q 159 1169 201 1122 q 99 1263 117 1217 l 115 1278 q 233 1224 156 1251 q 431 1197 310 1197 q 628 1224 551 1197 q 746 1278 706 1251 z "},"Ě":{"ha":903,"x_min":39,"x_max":843,"o":"m 815 983 q 808 849 810 914 q 806 750 806 785 q 807 694 806 721 q 810 650 808 668 l 778 650 q 722 831 761 765 q 631 924 683 897 q 522 951 579 951 l 504 951 q 450 945 468 951 q 426 921 432 939 q 419 864 419 903 l 419 119 q 426 63 419 82 q 450 38 432 44 q 504 32 468 32 l 550 32 q 647 62 596 32 q 740 164 697 92 q 806 361 783 236 l 838 361 q 833 233 833 311 q 835 134 833 199 q 843 0 836 69 q 683 3 772 3 q 525 4 594 4 q 430 4 488 4 q 305 3 372 4 q 169 2 238 3 q 39 0 100 1 l 39 28 q 103 39 82 31 q 131 72 124 47 q 138 147 138 97 l 138 836 q 131 912 138 888 q 102 945 124 936 q 39 956 81 954 l 39 983 q 169 981 100 982 q 305 980 238 981 q 430 979 372 979 q 525 979 488 979 q 670 980 589 979 q 815 983 751 981 m 614 508 q 614 494 614 508 q 614 481 614 481 l 378 481 q 378 494 378 481 q 378 508 378 508 l 614 508 m 654 692 q 649 571 649 613 q 650 494 650 529 q 651 418 650 460 q 658 297 653 376 l 626 297 q 592 390 618 349 q 526 456 567 432 q 433 481 486 481 l 433 508 q 504 525 472 508 q 560 569 536 542 q 601 629 585 597 q 622 692 617 661 l 654 692 m 747 1314 l 754 1293 q 584 1185 664 1250 q 453 1054 504 1121 l 428 1054 q 299 1185 379 1119 q 126 1293 218 1250 l 133 1314 q 322 1276 229 1300 q 468 1229 414 1253 q 591 1276 514 1253 q 747 1314 668 1300 z "},"Ê":{"ha":903,"x_min":39,"x_max":843,"o":"m 815 983 q 808 849 810 914 q 806 750 806 785 q 807 694 806 721 q 810 650 808 668 l 778 650 q 722 831 761 765 q 631 924 683 897 q 522 951 579 951 l 504 951 q 450 945 468 951 q 426 921 432 939 q 419 864 419 903 l 419 119 q 426 63 419 82 q 450 38 432 44 q 504 32 468 32 l 550 32 q 647 62 596 32 q 740 164 697 92 q 806 361 783 236 l 838 361 q 833 233 833 311 q 835 134 833 199 q 843 0 836 69 q 683 3 772 3 q 525 4 594 4 q 430 4 488 4 q 305 3 372 4 q 169 2 238 3 q 39 0 100 1 l 39 28 q 103 39 82 31 q 131 72 124 47 q 138 147 138 97 l 138 836 q 131 912 138 888 q 102 945 124 936 q 39 956 81 954 l 39 983 q 169 981 100 982 q 305 980 238 981 q 430 979 372 979 q 525 979 488 979 q 670 980 589 979 q 815 983 751 981 m 614 508 q 614 494 614 508 q 614 481 614 481 l 378 481 q 378 494 378 481 q 378 508 378 508 l 614 508 m 654 692 q 649 571 649 613 q 650 494 650 529 q 651 418 650 460 q 658 297 653 376 l 626 297 q 592 390 618 349 q 526 456 567 432 q 433 481 486 481 l 433 508 q 504 525 472 508 q 560 569 536 542 q 601 629 585 597 q 622 692 617 661 l 654 692 m 457 1328 q 586 1198 506 1263 q 758 1089 667 1133 l 751 1068 q 563 1107 656 1083 q 417 1153 471 1131 q 294 1107 371 1131 q 138 1068 217 1083 l 131 1089 q 301 1197 221 1132 q 432 1328 381 1261 l 457 1328 z "},"Ế":{"ha":903,"x_min":39,"x_max":843,"o":"m 815 983 q 808 849 810 914 q 806 750 806 785 q 807 694 806 721 q 810 650 808 668 l 778 650 q 722 831 761 765 q 631 924 683 897 q 522 951 579 951 l 504 951 q 450 945 468 951 q 426 921 432 939 q 419 864 419 903 l 419 119 q 426 63 419 82 q 450 38 432 44 q 504 32 468 32 l 550 32 q 647 62 596 32 q 740 164 697 92 q 806 361 783 236 l 838 361 q 833 233 833 311 q 835 134 833 199 q 843 0 836 69 q 683 3 772 3 q 525 4 594 4 q 430 4 488 4 q 305 3 372 4 q 169 2 238 3 q 39 0 100 1 l 39 28 q 103 39 82 31 q 131 72 124 47 q 138 147 138 97 l 138 836 q 131 912 138 888 q 102 945 124 936 q 39 956 81 954 l 39 983 q 169 981 100 982 q 305 980 238 981 q 430 979 372 979 q 525 979 488 979 q 670 980 589 979 q 815 983 751 981 m 614 508 q 614 494 614 508 q 614 481 614 481 l 378 481 q 378 494 378 481 q 378 508 378 508 l 614 508 m 654 692 q 649 571 649 613 q 650 494 650 529 q 651 418 650 460 q 658 297 653 376 l 626 297 q 592 390 618 349 q 526 456 567 432 q 433 481 486 481 l 433 508 q 504 525 472 508 q 560 569 536 542 q 601 629 585 597 q 622 692 617 661 l 654 692 m 457 1328 q 586 1198 506 1263 q 758 1089 667 1133 l 751 1068 q 563 1107 656 1083 q 417 1153 471 1131 q 294 1107 371 1131 q 138 1068 217 1083 l 131 1089 q 301 1197 221 1132 q 432 1328 381 1261 l 457 1328 m 551 1610 q 623 1616 582 1625 q 682 1567 664 1607 q 684 1499 697 1533 q 638 1449 671 1465 q 568 1426 606 1432 q 477 1412 531 1421 q 342 1378 424 1403 l 332 1394 q 435 1494 400 1451 q 494 1565 469 1536 q 551 1610 518 1594 z "},"Ệ":{"ha":903,"x_min":39,"x_max":843,"o":"m 815 983 q 808 849 810 914 q 806 750 806 785 q 807 694 806 721 q 810 650 808 668 l 778 650 q 722 831 761 765 q 631 924 683 897 q 522 951 579 951 l 504 951 q 450 945 468 951 q 426 921 432 939 q 419 864 419 903 l 419 119 q 426 63 419 82 q 450 38 432 44 q 504 32 468 32 l 550 32 q 647 62 596 32 q 740 164 697 92 q 806 361 783 236 l 838 361 q 833 233 833 311 q 835 134 833 199 q 843 0 836 69 q 683 3 772 3 q 525 4 594 4 q 430 4 488 4 q 305 3 372 4 q 169 2 238 3 q 39 0 100 1 l 39 28 q 103 39 82 31 q 131 72 124 47 q 138 147 138 97 l 138 836 q 131 912 138 888 q 102 945 124 936 q 39 956 81 954 l 39 983 q 169 981 100 982 q 305 980 238 981 q 430 979 372 979 q 525 979 488 979 q 670 980 589 979 q 815 983 751 981 m 614 508 q 614 494 614 508 q 614 481 614 481 l 378 481 q 378 494 378 481 q 378 508 378 508 l 614 508 m 654 692 q 649 571 649 613 q 650 494 650 529 q 651 418 650 460 q 658 297 653 376 l 626 297 q 592 390 618 349 q 526 456 567 432 q 433 481 486 481 l 433 508 q 504 525 472 508 q 560 569 536 542 q 601 629 585 597 q 622 692 617 661 l 654 692 m 457 1418 q 569 1256 500 1336 q 717 1124 638 1176 l 706 1104 q 544 1142 622 1119 q 417 1188 465 1165 q 314 1142 378 1165 q 183 1104 250 1119 l 172 1124 q 319 1255 250 1175 q 432 1418 388 1335 l 457 1418 m 449 -265 q 362 -240 393 -265 q 331 -165 331 -215 q 362 -90 331 -117 q 453 -62 393 -62 q 540 -87 510 -62 q 571 -162 571 -112 q 540 -238 571 -211 q 449 -265 508 -265 z "},"Ề":{"ha":903,"x_min":39,"x_max":843,"o":"m 815 983 q 808 849 810 914 q 806 750 806 785 q 807 694 806 721 q 810 650 808 668 l 778 650 q 722 831 761 765 q 631 924 683 897 q 522 951 579 951 l 504 951 q 450 945 468 951 q 426 921 432 939 q 419 864 419 903 l 419 119 q 426 63 419 82 q 450 38 432 44 q 504 32 468 32 l 550 32 q 647 62 596 32 q 740 164 697 92 q 806 361 783 236 l 838 361 q 833 233 833 311 q 835 134 833 199 q 843 0 836 69 q 683 3 772 3 q 525 4 594 4 q 430 4 488 4 q 305 3 372 4 q 169 2 238 3 q 39 0 100 1 l 39 28 q 103 39 82 31 q 131 72 124 47 q 138 147 138 97 l 138 836 q 131 912 138 888 q 102 945 124 936 q 39 956 81 954 l 39 983 q 169 981 100 982 q 305 980 238 981 q 430 979 372 979 q 525 979 488 979 q 670 980 589 979 q 815 983 751 981 m 614 508 q 614 494 614 508 q 614 481 614 481 l 378 481 q 378 494 378 481 q 378 508 378 508 l 614 508 m 654 692 q 649 571 649 613 q 650 494 650 529 q 651 418 650 460 q 658 297 653 376 l 626 297 q 592 390 618 349 q 526 456 567 432 q 433 481 486 481 l 433 508 q 504 525 472 508 q 560 569 536 542 q 601 629 585 597 q 622 692 617 661 l 654 692 m 457 1328 q 586 1198 506 1263 q 758 1089 667 1133 l 751 1068 q 563 1107 656 1083 q 417 1153 471 1131 q 294 1107 371 1131 q 138 1068 217 1083 l 131 1089 q 301 1197 221 1132 q 432 1328 381 1261 l 457 1328 m 318 1610 q 376 1565 353 1594 q 435 1494 400 1536 q 538 1394 471 1451 l 528 1378 q 393 1412 447 1403 q 301 1426 339 1421 q 232 1449 264 1432 q 185 1499 199 1465 q 188 1567 172 1533 q 247 1616 207 1607 q 318 1610 288 1625 z "},"Ể":{"ha":903,"x_min":39,"x_max":939,"o":"m 815 983 q 808 849 810 914 q 806 750 806 785 q 807 694 806 721 q 810 650 808 668 l 778 650 q 722 831 761 765 q 631 924 683 897 q 522 951 579 951 l 504 951 q 450 945 468 951 q 426 921 432 939 q 419 864 419 903 l 419 119 q 426 63 419 82 q 450 38 432 44 q 504 32 468 32 l 550 32 q 647 62 596 32 q 740 164 697 92 q 806 361 783 236 l 838 361 q 833 233 833 311 q 835 134 833 199 q 843 0 836 69 q 683 3 772 3 q 525 4 594 4 q 430 4 488 4 q 305 3 372 4 q 169 2 238 3 q 39 0 100 1 l 39 28 q 103 39 82 31 q 131 72 124 47 q 138 147 138 97 l 138 836 q 131 912 138 888 q 102 945 124 936 q 39 956 81 954 l 39 983 q 169 981 100 982 q 305 980 238 981 q 430 979 372 979 q 525 979 488 979 q 670 980 589 979 q 815 983 751 981 m 614 508 q 614 494 614 508 q 614 481 614 481 l 378 481 q 378 494 378 481 q 378 508 378 508 l 614 508 m 654 692 q 649 571 649 613 q 650 494 650 529 q 651 418 650 460 q 658 297 653 376 l 626 297 q 592 390 618 349 q 526 456 567 432 q 433 481 486 481 l 433 508 q 504 525 472 508 q 560 569 536 542 q 601 629 585 597 q 622 692 617 661 l 654 692 m 457 1328 q 586 1198 506 1263 q 758 1089 667 1133 l 751 1068 q 563 1107 656 1083 q 417 1153 471 1131 q 294 1107 371 1131 q 138 1068 217 1083 l 131 1089 q 301 1197 221 1132 q 432 1328 381 1261 l 457 1328 m 696 1290 l 696 1367 q 769 1420 750 1392 q 788 1478 788 1449 q 755 1544 788 1524 q 678 1565 722 1565 q 636 1560 653 1565 q 614 1550 619 1556 q 665 1520 647 1540 q 683 1468 683 1500 q 659 1410 683 1432 q 599 1389 635 1389 q 539 1412 561 1389 q 517 1469 517 1435 q 535 1526 517 1504 q 574 1561 553 1549 q 638 1585 601 1578 q 721 1593 674 1593 q 834 1580 785 1593 q 911 1542 883 1567 q 939 1485 939 1518 q 909 1424 939 1450 q 830 1381 879 1397 q 724 1354 781 1364 l 724 1290 l 696 1290 z "},"Ễ":{"ha":903,"x_min":39,"x_max":843,"o":"m 815 983 q 808 849 810 914 q 806 750 806 785 q 807 694 806 721 q 810 650 808 668 l 778 650 q 722 831 761 765 q 631 924 683 897 q 522 951 579 951 l 504 951 q 450 945 468 951 q 426 921 432 939 q 419 864 419 903 l 419 119 q 426 63 419 82 q 450 38 432 44 q 504 32 468 32 l 550 32 q 647 62 596 32 q 740 164 697 92 q 806 361 783 236 l 838 361 q 833 233 833 311 q 835 134 833 199 q 843 0 836 69 q 683 3 772 3 q 525 4 594 4 q 430 4 488 4 q 305 3 372 4 q 169 2 238 3 q 39 0 100 1 l 39 28 q 103 39 82 31 q 131 72 124 47 q 138 147 138 97 l 138 836 q 131 912 138 888 q 102 945 124 936 q 39 956 81 954 l 39 983 q 169 981 100 982 q 305 980 238 981 q 430 979 372 979 q 525 979 488 979 q 670 980 589 979 q 815 983 751 981 m 614 508 q 614 494 614 508 q 614 481 614 481 l 378 481 q 378 494 378 481 q 378 508 378 508 l 614 508 m 654 692 q 649 571 649 613 q 650 494 650 529 q 651 418 650 460 q 658 297 653 376 l 626 297 q 592 390 618 349 q 526 456 567 432 q 433 481 486 481 l 433 508 q 504 525 472 508 q 560 569 536 542 q 601 629 585 597 q 622 692 617 661 l 654 692 m 457 1328 q 586 1198 506 1263 q 758 1089 667 1133 l 751 1068 q 563 1107 656 1083 q 417 1153 471 1131 q 294 1107 371 1131 q 138 1068 217 1083 l 131 1089 q 301 1197 221 1132 q 432 1328 381 1261 l 457 1328 m 315 1608 q 410 1594 371 1608 q 480 1563 449 1581 q 544 1531 511 1544 q 622 1517 578 1517 q 693 1534 660 1517 q 757 1590 726 1551 l 776 1581 q 692 1417 749 1467 q 571 1368 636 1368 q 476 1382 515 1368 q 405 1415 436 1396 q 340 1447 374 1433 q 263 1461 307 1461 q 192 1444 225 1461 q 128 1386 158 1426 l 108 1396 q 193 1559 136 1510 q 315 1608 250 1608 z "},"Ë":{"ha":903,"x_min":39,"x_max":843,"o":"m 815 983 q 808 849 810 914 q 806 750 806 785 q 807 694 806 721 q 810 650 808 668 l 778 650 q 722 831 761 765 q 631 924 683 897 q 522 951 579 951 l 504 951 q 450 945 468 951 q 426 921 432 939 q 419 864 419 903 l 419 119 q 426 63 419 82 q 450 38 432 44 q 504 32 468 32 l 550 32 q 647 62 596 32 q 740 164 697 92 q 806 361 783 236 l 838 361 q 833 233 833 311 q 835 134 833 199 q 843 0 836 69 q 683 3 772 3 q 525 4 594 4 q 430 4 488 4 q 305 3 372 4 q 169 2 238 3 q 39 0 100 1 l 39 28 q 103 39 82 31 q 131 72 124 47 q 138 147 138 97 l 138 836 q 131 912 138 888 q 102 945 124 936 q 39 956 81 954 l 39 983 q 169 981 100 982 q 305 980 238 981 q 430 979 372 979 q 525 979 488 979 q 670 980 589 979 q 815 983 751 981 m 614 508 q 614 494 614 508 q 614 481 614 481 l 378 481 q 378 494 378 481 q 378 508 378 508 l 614 508 m 654 692 q 649 571 649 613 q 650 494 650 529 q 651 418 650 460 q 658 297 653 376 l 626 297 q 592 390 618 349 q 526 456 567 432 q 433 481 486 481 l 433 508 q 504 525 472 508 q 560 569 536 542 q 601 629 585 597 q 622 692 617 661 l 654 692 m 624 1300 q 708 1264 672 1300 q 744 1179 744 1228 q 708 1094 744 1129 q 624 1058 672 1058 q 538 1094 574 1058 q 503 1179 503 1129 q 538 1264 503 1228 q 624 1300 574 1300 m 265 1300 q 350 1264 314 1300 q 386 1179 386 1228 q 350 1094 386 1129 q 265 1058 314 1058 q 180 1094 215 1058 q 144 1179 144 1129 q 180 1264 144 1228 q 265 1300 215 1300 z "},"Ė":{"ha":903,"x_min":39,"x_max":843,"o":"m 815 983 q 808 849 810 914 q 806 750 806 785 q 807 694 806 721 q 810 650 808 668 l 778 650 q 722 831 761 765 q 631 924 683 897 q 522 951 579 951 l 504 951 q 450 945 468 951 q 426 921 432 939 q 419 864 419 903 l 419 119 q 426 63 419 82 q 450 38 432 44 q 504 32 468 32 l 550 32 q 647 62 596 32 q 740 164 697 92 q 806 361 783 236 l 838 361 q 833 233 833 311 q 835 134 833 199 q 843 0 836 69 q 683 3 772 3 q 525 4 594 4 q 430 4 488 4 q 305 3 372 4 q 169 2 238 3 q 39 0 100 1 l 39 28 q 103 39 82 31 q 131 72 124 47 q 138 147 138 97 l 138 836 q 131 912 138 888 q 102 945 124 936 q 39 956 81 954 l 39 983 q 169 981 100 982 q 305 980 238 981 q 430 979 372 979 q 525 979 488 979 q 670 980 589 979 q 815 983 751 981 m 614 508 q 614 494 614 508 q 614 481 614 481 l 378 481 q 378 494 378 481 q 378 508 378 508 l 614 508 m 654 692 q 649 571 649 613 q 650 494 650 529 q 651 418 650 460 q 658 297 653 376 l 626 297 q 592 390 618 349 q 526 456 567 432 q 433 481 486 481 l 433 508 q 504 525 472 508 q 560 569 536 542 q 601 629 585 597 q 622 692 617 661 l 654 692 m 446 1294 q 547 1265 511 1294 q 583 1175 583 1235 q 547 1085 583 1115 q 446 1056 511 1056 q 344 1085 379 1056 q 308 1175 308 1115 q 344 1265 308 1235 q 446 1294 379 1294 z "},"Ẹ":{"ha":903,"x_min":39,"x_max":843,"o":"m 815 983 q 808 849 810 914 q 806 750 806 785 q 807 694 806 721 q 810 650 808 668 l 778 650 q 722 831 761 765 q 631 924 683 897 q 522 951 579 951 l 504 951 q 450 945 468 951 q 426 921 432 939 q 419 864 419 903 l 419 119 q 426 63 419 82 q 450 38 432 44 q 504 32 468 32 l 550 32 q 647 62 596 32 q 740 164 697 92 q 806 361 783 236 l 838 361 q 833 233 833 311 q 835 134 833 199 q 843 0 836 69 q 683 3 772 3 q 525 4 594 4 q 430 4 488 4 q 305 3 372 4 q 169 2 238 3 q 39 0 100 1 l 39 28 q 103 39 82 31 q 131 72 124 47 q 138 147 138 97 l 138 836 q 131 912 138 888 q 102 945 124 936 q 39 956 81 954 l 39 983 q 169 981 100 982 q 305 980 238 981 q 430 979 372 979 q 525 979 488 979 q 670 980 589 979 q 815 983 751 981 m 614 508 q 614 494 614 508 q 614 481 614 481 l 378 481 q 378 494 378 481 q 378 508 378 508 l 614 508 m 654 692 q 649 571 649 613 q 650 494 650 529 q 651 418 650 460 q 658 297 653 376 l 626 297 q 592 390 618 349 q 526 456 567 432 q 433 481 486 481 l 433 508 q 504 525 472 508 q 560 569 536 542 q 601 629 585 597 q 622 692 617 661 l 654 692 m 449 -265 q 362 -240 393 -265 q 331 -165 331 -215 q 362 -90 331 -117 q 453 -62 393 -62 q 540 -87 510 -62 q 571 -162 571 -112 q 540 -238 571 -211 q 449 -265 508 -265 z "},"È":{"ha":903,"x_min":39,"x_max":843,"o":"m 815 983 q 808 849 810 914 q 806 750 806 785 q 807 694 806 721 q 810 650 808 668 l 778 650 q 722 831 761 765 q 631 924 683 897 q 522 951 579 951 l 504 951 q 450 945 468 951 q 426 921 432 939 q 419 864 419 903 l 419 119 q 426 63 419 82 q 450 38 432 44 q 504 32 468 32 l 550 32 q 647 62 596 32 q 740 164 697 92 q 806 361 783 236 l 838 361 q 833 233 833 311 q 835 134 833 199 q 843 0 836 69 q 683 3 772 3 q 525 4 594 4 q 430 4 488 4 q 305 3 372 4 q 169 2 238 3 q 39 0 100 1 l 39 28 q 103 39 82 31 q 131 72 124 47 q 138 147 138 97 l 138 836 q 131 912 138 888 q 102 945 124 936 q 39 956 81 954 l 39 983 q 169 981 100 982 q 305 980 238 981 q 430 979 372 979 q 525 979 488 979 q 670 980 589 979 q 815 983 751 981 m 614 508 q 614 494 614 508 q 614 481 614 481 l 378 481 q 378 494 378 481 q 378 508 378 508 l 614 508 m 654 692 q 649 571 649 613 q 650 494 650 529 q 651 418 650 460 q 658 297 653 376 l 626 297 q 592 390 618 349 q 526 456 567 432 q 433 481 486 481 l 433 508 q 504 525 472 508 q 560 569 536 542 q 601 629 585 597 q 622 692 617 661 l 654 692 m 318 1304 q 376 1260 353 1289 q 435 1188 400 1231 q 538 1089 471 1146 l 528 1072 q 393 1106 447 1097 q 301 1121 339 1115 q 232 1143 264 1126 q 185 1194 199 1160 q 188 1261 172 1228 q 247 1310 207 1301 q 318 1304 288 1319 z "},"Ẻ":{"ha":903,"x_min":39,"x_max":843,"o":"m 815 983 q 808 849 810 914 q 806 750 806 785 q 807 694 806 721 q 810 650 808 668 l 778 650 q 722 831 761 765 q 631 924 683 897 q 522 951 579 951 l 504 951 q 450 945 468 951 q 426 921 432 939 q 419 864 419 903 l 419 119 q 426 63 419 82 q 450 38 432 44 q 504 32 468 32 l 550 32 q 647 62 596 32 q 740 164 697 92 q 806 361 783 236 l 838 361 q 833 233 833 311 q 835 134 833 199 q 843 0 836 69 q 683 3 772 3 q 525 4 594 4 q 430 4 488 4 q 305 3 372 4 q 169 2 238 3 q 39 0 100 1 l 39 28 q 103 39 82 31 q 131 72 124 47 q 138 147 138 97 l 138 836 q 131 912 138 888 q 102 945 124 936 q 39 956 81 954 l 39 983 q 169 981 100 982 q 305 980 238 981 q 430 979 372 979 q 525 979 488 979 q 670 980 589 979 q 815 983 751 981 m 614 508 q 614 494 614 508 q 614 481 614 481 l 378 481 q 378 494 378 481 q 378 508 378 508 l 614 508 m 654 692 q 649 571 649 613 q 650 494 650 529 q 651 418 650 460 q 658 297 653 376 l 626 297 q 592 390 618 349 q 526 456 567 432 q 433 481 486 481 l 433 508 q 504 525 472 508 q 560 569 536 542 q 601 629 585 597 q 622 692 617 661 l 654 692 m 417 1054 l 417 1131 q 490 1184 471 1156 q 508 1242 508 1213 q 476 1308 508 1288 q 399 1329 443 1329 q 357 1324 374 1329 q 335 1314 340 1319 q 386 1284 368 1304 q 404 1232 404 1264 q 380 1174 404 1196 q 319 1153 356 1153 q 260 1176 282 1153 q 238 1233 238 1199 q 256 1290 238 1268 q 294 1325 274 1313 q 358 1349 322 1342 q 442 1357 394 1357 q 555 1344 506 1357 q 632 1306 604 1331 q 660 1249 660 1282 q 630 1188 660 1214 q 551 1144 600 1161 q 444 1118 501 1128 l 444 1054 l 417 1054 z "},"Ē":{"ha":903,"x_min":39,"x_max":843,"o":"m 815 983 q 808 849 810 914 q 806 750 806 785 q 807 694 806 721 q 810 650 808 668 l 778 650 q 722 831 761 765 q 631 924 683 897 q 522 951 579 951 l 504 951 q 450 945 468 951 q 426 921 432 939 q 419 864 419 903 l 419 119 q 426 63 419 82 q 450 38 432 44 q 504 32 468 32 l 550 32 q 647 62 596 32 q 740 164 697 92 q 806 361 783 236 l 838 361 q 833 233 833 311 q 835 134 833 199 q 843 0 836 69 q 683 3 772 3 q 525 4 594 4 q 430 4 488 4 q 305 3 372 4 q 169 2 238 3 q 39 0 100 1 l 39 28 q 103 39 82 31 q 131 72 124 47 q 138 147 138 97 l 138 836 q 131 912 138 888 q 102 945 124 936 q 39 956 81 954 l 39 983 q 169 981 100 982 q 305 980 238 981 q 430 979 372 979 q 525 979 488 979 q 670 980 589 979 q 815 983 751 981 m 614 508 q 614 494 614 508 q 614 481 614 481 l 378 481 q 378 494 378 481 q 378 508 378 508 l 614 508 m 654 692 q 649 571 649 613 q 650 494 650 529 q 651 418 650 460 q 658 297 653 376 l 626 297 q 592 390 618 349 q 526 456 567 432 q 433 481 486 481 l 433 508 q 504 525 472 508 q 560 569 536 542 q 601 629 585 597 q 622 692 617 661 l 654 692 m 744 1172 l 744 1138 l 144 1138 l 144 1172 l 744 1172 z "},"Ę":{"ha":903,"x_min":39,"x_max":846,"o":"m 815 983 q 808 849 810 914 q 806 750 806 785 q 807 694 806 721 q 810 650 808 668 l 778 650 q 722 831 761 765 q 631 924 683 897 q 522 951 579 951 l 504 951 q 450 945 468 951 q 426 921 432 939 q 419 864 419 903 l 419 119 q 426 63 419 82 q 450 38 432 44 q 504 32 468 32 l 550 32 q 647 62 596 32 q 740 164 697 92 q 806 361 783 236 l 838 361 q 833 233 833 311 q 835 134 833 199 q 843 0 836 69 q 683 3 772 3 q 525 4 594 4 q 430 4 488 4 q 305 3 372 4 q 169 2 238 3 q 39 0 100 1 l 39 28 q 103 39 82 31 q 131 72 124 47 q 138 147 138 97 l 138 836 q 131 912 138 888 q 102 945 124 936 q 39 956 81 954 l 39 983 q 169 981 100 982 q 305 980 238 981 q 430 979 372 979 q 525 979 488 979 q 670 980 589 979 q 815 983 751 981 m 614 508 q 614 494 614 508 q 614 481 614 481 l 378 481 q 378 494 378 481 q 378 508 378 508 l 614 508 m 654 692 q 649 571 649 613 q 650 494 650 529 q 651 418 650 460 q 658 297 653 376 l 626 297 q 592 390 618 349 q 526 456 567 432 q 433 481 486 481 l 433 508 q 504 525 472 508 q 560 569 536 542 q 601 629 585 597 q 622 692 617 661 l 654 692 m 838 4 q 716 -60 751 -25 q 681 -125 681 -96 q 694 -165 681 -153 q 736 -178 708 -178 q 786 -169 760 -178 q 828 -146 813 -160 l 846 -167 q 756 -239 806 -217 q 633 -261 707 -261 q 531 -235 565 -261 q 496 -162 496 -210 q 573 -60 496 -101 q 785 4 650 -18 l 838 4 z "},"Ẽ":{"ha":903,"x_min":39,"x_max":843,"o":"m 815 983 q 808 849 810 914 q 806 750 806 785 q 807 694 806 721 q 810 650 808 668 l 778 650 q 722 831 761 765 q 631 924 683 897 q 522 951 579 951 l 504 951 q 450 945 468 951 q 426 921 432 939 q 419 864 419 903 l 419 119 q 426 63 419 82 q 450 38 432 44 q 504 32 468 32 l 550 32 q 647 62 596 32 q 740 164 697 92 q 806 361 783 236 l 838 361 q 833 233 833 311 q 835 134 833 199 q 843 0 836 69 q 683 3 772 3 q 525 4 594 4 q 430 4 488 4 q 305 3 372 4 q 169 2 238 3 q 39 0 100 1 l 39 28 q 103 39 82 31 q 131 72 124 47 q 138 147 138 97 l 138 836 q 131 912 138 888 q 102 945 124 936 q 39 956 81 954 l 39 983 q 169 981 100 982 q 305 980 238 981 q 430 979 372 979 q 525 979 488 979 q 670 980 589 979 q 815 983 751 981 m 614 508 q 614 494 614 508 q 614 481 614 481 l 378 481 q 378 494 378 481 q 378 508 378 508 l 614 508 m 654 692 q 649 571 649 613 q 650 494 650 529 q 651 418 650 460 q 658 297 653 376 l 626 297 q 592 390 618 349 q 526 456 567 432 q 433 481 486 481 l 433 508 q 504 525 472 508 q 560 569 536 542 q 601 629 585 597 q 622 692 617 661 l 654 692 m 315 1303 q 410 1289 371 1303 q 480 1257 449 1275 q 544 1225 511 1239 q 622 1211 578 1211 q 693 1228 660 1211 q 757 1285 726 1246 l 776 1275 q 692 1112 749 1161 q 571 1063 636 1063 q 476 1076 515 1063 q 405 1109 436 1090 q 340 1142 374 1128 q 263 1156 307 1156 q 192 1138 225 1156 q 128 1081 158 1121 l 108 1090 q 193 1253 136 1204 q 315 1303 250 1303 z "},"Ʒ":{"ha":843,"x_min":40,"x_max":800,"o":"m 779 983 l 779 956 l 561 474 l 518 553 q 669 485 607 524 q 766 395 732 446 q 800 278 800 344 q 752 132 800 200 q 613 22 704 64 q 388 -19 521 -19 q 247 -4 307 -19 q 150 32 186 11 q 128 44 142 38 q 104 51 115 51 q 83 36 90 51 q 72 -10 76 21 l 40 -10 q 44 74 43 26 q 45 199 44 122 q 46 393 46 275 l 78 393 q 111 210 83 294 q 194 74 139 125 q 336 22 250 22 q 456 58 410 22 q 522 151 501 94 q 543 267 543 207 q 513 395 543 342 q 428 482 483 449 q 292 528 372 515 l 292 556 l 472 951 l 403 951 q 311 938 360 951 q 217 890 263 924 q 138 797 171 856 q 92 650 104 739 l 60 650 q 63 694 63 668 q 64 747 64 721 q 62 849 64 785 q 54 983 60 914 q 149 981 97 982 q 251 979 200 979 q 344 979 303 979 q 563 980 449 979 q 779 983 678 981 z "},"Ǯ":{"ha":843,"x_min":40,"x_max":800,"o":"m 779 983 l 779 956 l 561 474 l 518 553 q 669 485 607 524 q 766 395 732 446 q 800 278 800 344 q 752 132 800 200 q 613 22 704 64 q 388 -19 521 -19 q 247 -4 307 -19 q 150 32 186 11 q 128 44 142 38 q 104 51 115 51 q 83 36 90 51 q 72 -10 76 21 l 40 -10 q 44 74 43 26 q 45 199 44 122 q 46 393 46 275 l 78 393 q 111 210 83 294 q 194 74 139 125 q 336 22 250 22 q 456 58 410 22 q 522 151 501 94 q 543 267 543 207 q 513 395 543 342 q 428 482 483 449 q 292 528 372 515 l 292 556 l 472 951 l 403 951 q 311 938 360 951 q 217 890 263 924 q 138 797 171 856 q 92 650 104 739 l 60 650 q 63 694 63 668 q 64 747 64 721 q 62 849 64 785 q 54 983 60 914 q 149 981 97 982 q 251 979 200 979 q 344 979 303 979 q 563 980 449 979 q 779 983 678 981 m 728 1314 l 735 1293 q 565 1185 644 1250 q 433 1054 485 1121 l 408 1054 q 279 1185 360 1119 q 107 1293 199 1250 l 114 1314 q 302 1276 210 1300 q 449 1229 394 1253 q 572 1276 494 1253 q 728 1314 649 1300 z "},"F":{"ha":844,"x_min":39,"x_max":815,"o":"m 815 983 q 808 849 810 914 q 806 750 806 785 q 807 694 806 721 q 810 650 808 668 l 778 650 q 713 831 754 765 q 622 924 671 897 q 522 951 572 951 l 504 951 q 450 945 468 951 q 426 921 432 939 q 419 864 419 903 l 419 161 q 431 77 419 106 q 476 40 443 49 q 574 32 510 32 l 574 0 q 450 3 526 1 q 288 4 374 4 q 160 3 224 4 q 39 0 96 1 l 39 28 q 103 39 82 31 q 131 72 124 47 q 138 147 138 97 l 138 836 q 131 912 138 888 q 102 945 124 936 q 39 956 81 954 l 39 983 q 169 981 100 982 q 305 980 238 981 q 430 979 372 979 q 525 979 488 979 q 670 980 589 979 q 815 983 751 981 m 614 508 q 614 494 614 508 q 614 481 614 481 l 378 481 q 378 494 378 481 q 378 508 378 508 l 614 508 m 654 692 q 649 571 649 613 q 650 494 650 529 q 651 418 650 460 q 658 297 653 376 l 626 297 q 592 390 618 349 q 526 456 567 432 q 433 481 486 481 l 433 508 q 504 525 472 508 q 560 569 536 542 q 601 629 585 597 q 622 692 617 661 l 654 692 z "},"G":{"ha":1050,"x_min":50,"x_max":1029,"o":"m 589 1003 q 749 976 686 1003 q 858 913 811 950 q 886 900 874 900 q 921 983 913 900 l 953 983 q 949 848 950 928 q 947 636 947 768 l 915 636 q 881 803 906 736 q 788 918 857 871 q 719 949 758 938 q 644 960 681 960 q 511 916 564 960 q 427 802 458 872 q 383 649 396 732 q 369 489 369 567 q 431 124 369 239 q 593 8 492 8 q 632 13 615 8 q 661 25 649 17 q 683 53 676 36 q 690 94 690 69 l 690 233 q 680 335 690 301 q 639 381 669 368 q 550 394 608 393 l 550 422 q 628 420 582 421 q 724 419 674 419 q 815 418 774 418 q 938 419 882 418 q 1029 422 994 421 l 1029 394 q 993 385 1006 393 q 976 351 981 376 q 972 275 972 326 l 972 0 l 944 0 q 933 51 943 24 q 901 79 924 79 q 870 74 890 79 q 807 47 850 68 q 692 1 753 21 q 572 -19 632 -19 q 282 40 399 -19 q 108 213 165 100 q 50 483 50 325 q 119 756 50 639 q 309 938 188 872 q 589 1003 431 1003 z "},"Ǵ":{"ha":1050,"x_min":50,"x_max":1029,"o":"m 589 1003 q 749 976 686 1003 q 858 913 811 950 q 886 900 874 900 q 921 983 913 900 l 953 983 q 949 848 950 928 q 947 636 947 768 l 915 636 q 881 803 906 736 q 788 918 857 871 q 719 949 758 938 q 644 960 681 960 q 511 916 564 960 q 427 802 458 872 q 383 649 396 732 q 369 489 369 567 q 431 124 369 239 q 593 8 492 8 q 632 13 615 8 q 661 25 649 17 q 683 53 676 36 q 690 94 690 69 l 690 233 q 680 335 690 301 q 639 381 669 368 q 550 394 608 393 l 550 422 q 628 420 582 421 q 724 419 674 419 q 815 418 774 418 q 938 419 882 418 q 1029 422 994 421 l 1029 394 q 993 385 1006 393 q 976 351 981 376 q 972 275 972 326 l 972 0 l 944 0 q 933 51 943 24 q 901 79 924 79 q 870 74 890 79 q 807 47 850 68 q 692 1 753 21 q 572 -19 632 -19 q 282 40 399 -19 q 108 213 165 100 q 50 483 50 325 q 119 756 50 639 q 309 938 188 872 q 589 1003 431 1003 m 667 1304 q 738 1310 697 1319 q 797 1261 779 1301 q 799 1194 813 1228 q 753 1143 786 1160 q 683 1121 721 1126 q 592 1106 646 1115 q 457 1072 539 1097 l 447 1089 q 550 1188 515 1146 q 609 1260 585 1231 q 667 1304 633 1289 z "},"Ğ":{"ha":1050,"x_min":50,"x_max":1029,"o":"m 589 1003 q 749 976 686 1003 q 858 913 811 950 q 886 900 874 900 q 921 983 913 900 l 953 983 q 949 848 950 928 q 947 636 947 768 l 915 636 q 881 803 906 736 q 788 918 857 871 q 719 949 758 938 q 644 960 681 960 q 511 916 564 960 q 427 802 458 872 q 383 649 396 732 q 369 489 369 567 q 431 124 369 239 q 593 8 492 8 q 632 13 615 8 q 661 25 649 17 q 683 53 676 36 q 690 94 690 69 l 690 233 q 680 335 690 301 q 639 381 669 368 q 550 394 608 393 l 550 422 q 628 420 582 421 q 724 419 674 419 q 815 418 774 418 q 938 419 882 418 q 1029 422 994 421 l 1029 394 q 993 385 1006 393 q 976 351 981 376 q 972 275 972 326 l 972 0 l 944 0 q 933 51 943 24 q 901 79 924 79 q 870 74 890 79 q 807 47 850 68 q 692 1 753 21 q 572 -19 632 -19 q 282 40 399 -19 q 108 213 165 100 q 50 483 50 325 q 119 756 50 639 q 309 938 188 872 q 589 1003 431 1003 m 861 1278 l 878 1263 q 817 1169 860 1217 q 708 1091 775 1122 q 546 1060 640 1060 q 384 1091 451 1060 q 274 1169 317 1122 q 214 1263 232 1217 l 231 1278 q 348 1224 271 1251 q 546 1197 425 1197 q 744 1224 667 1197 q 861 1278 821 1251 z "},"Ǧ":{"ha":1050,"x_min":50,"x_max":1029,"o":"m 589 1003 q 749 976 686 1003 q 858 913 811 950 q 886 900 874 900 q 921 983 913 900 l 953 983 q 949 848 950 928 q 947 636 947 768 l 915 636 q 881 803 906 736 q 788 918 857 871 q 719 949 758 938 q 644 960 681 960 q 511 916 564 960 q 427 802 458 872 q 383 649 396 732 q 369 489 369 567 q 431 124 369 239 q 593 8 492 8 q 632 13 615 8 q 661 25 649 17 q 683 53 676 36 q 690 94 690 69 l 690 233 q 680 335 690 301 q 639 381 669 368 q 550 394 608 393 l 550 422 q 628 420 582 421 q 724 419 674 419 q 815 418 774 418 q 938 419 882 418 q 1029 422 994 421 l 1029 394 q 993 385 1006 393 q 976 351 981 376 q 972 275 972 326 l 972 0 l 944 0 q 933 51 943 24 q 901 79 924 79 q 870 74 890 79 q 807 47 850 68 q 692 1 753 21 q 572 -19 632 -19 q 282 40 399 -19 q 108 213 165 100 q 50 483 50 325 q 119 756 50 639 q 309 938 188 872 q 589 1003 431 1003 m 863 1314 l 869 1293 q 699 1185 779 1250 q 568 1054 619 1121 l 543 1054 q 414 1185 494 1119 q 242 1293 333 1250 l 249 1314 q 437 1276 344 1300 q 583 1229 529 1253 q 706 1276 629 1253 q 863 1314 783 1300 z "},"Ĝ":{"ha":1050,"x_min":50,"x_max":1029,"o":"m 589 1003 q 749 976 686 1003 q 858 913 811 950 q 886 900 874 900 q 921 983 913 900 l 953 983 q 949 848 950 928 q 947 636 947 768 l 915 636 q 881 803 906 736 q 788 918 857 871 q 719 949 758 938 q 644 960 681 960 q 511 916 564 960 q 427 802 458 872 q 383 649 396 732 q 369 489 369 567 q 431 124 369 239 q 593 8 492 8 q 632 13 615 8 q 661 25 649 17 q 683 53 676 36 q 690 94 690 69 l 690 233 q 680 335 690 301 q 639 381 669 368 q 550 394 608 393 l 550 422 q 628 420 582 421 q 724 419 674 419 q 815 418 774 418 q 938 419 882 418 q 1029 422 994 421 l 1029 394 q 993 385 1006 393 q 976 351 981 376 q 972 275 972 326 l 972 0 l 944 0 q 933 51 943 24 q 901 79 924 79 q 870 74 890 79 q 807 47 850 68 q 692 1 753 21 q 572 -19 632 -19 q 282 40 399 -19 q 108 213 165 100 q 50 483 50 325 q 119 756 50 639 q 309 938 188 872 q 589 1003 431 1003 m 572 1328 q 701 1198 621 1263 q 874 1089 782 1133 l 867 1068 q 678 1107 771 1083 q 532 1153 586 1131 q 409 1107 486 1131 q 253 1068 332 1083 l 246 1089 q 416 1197 336 1132 q 547 1328 496 1261 l 572 1328 z "},"Ģ":{"ha":1050,"x_min":50,"x_max":1029,"o":"m 589 1003 q 749 976 686 1003 q 858 913 811 950 q 886 900 874 900 q 921 983 913 900 l 953 983 q 949 848 950 928 q 947 636 947 768 l 915 636 q 881 803 906 736 q 788 918 857 871 q 719 949 758 938 q 644 960 681 960 q 511 916 564 960 q 427 802 458 872 q 383 649 396 732 q 369 489 369 567 q 431 124 369 239 q 593 8 492 8 q 632 13 615 8 q 661 25 649 17 q 683 53 676 36 q 690 94 690 69 l 690 233 q 680 335 690 301 q 639 381 669 368 q 550 394 608 393 l 550 422 q 628 420 582 421 q 724 419 674 419 q 815 418 774 418 q 938 419 882 418 q 1029 422 994 421 l 1029 394 q 993 385 1006 393 q 976 351 981 376 q 972 275 972 326 l 972 0 l 944 0 q 933 51 943 24 q 901 79 924 79 q 870 74 890 79 q 807 47 850 68 q 692 1 753 21 q 572 -19 632 -19 q 282 40 399 -19 q 108 213 165 100 q 50 483 50 325 q 119 756 50 639 q 309 938 188 872 q 589 1003 431 1003 m 579 -62 q 672 -91 635 -62 q 708 -176 708 -119 q 661 -291 708 -246 q 521 -339 614 -336 l 518 -308 q 608 -285 578 -301 q 646 -239 638 -269 q 619 -254 636 -249 q 572 -260 601 -260 q 486 -235 517 -260 q 456 -164 456 -211 q 488 -89 456 -115 q 579 -62 519 -62 z "},"Ġ":{"ha":1050,"x_min":50,"x_max":1029,"o":"m 589 1003 q 749 976 686 1003 q 858 913 811 950 q 886 900 874 900 q 921 983 913 900 l 953 983 q 949 848 950 928 q 947 636 947 768 l 915 636 q 881 803 906 736 q 788 918 857 871 q 719 949 758 938 q 644 960 681 960 q 511 916 564 960 q 427 802 458 872 q 383 649 396 732 q 369 489 369 567 q 431 124 369 239 q 593 8 492 8 q 632 13 615 8 q 661 25 649 17 q 683 53 676 36 q 690 94 690 69 l 690 233 q 680 335 690 301 q 639 381 669 368 q 550 394 608 393 l 550 422 q 628 420 582 421 q 724 419 674 419 q 815 418 774 418 q 938 419 882 418 q 1029 422 994 421 l 1029 394 q 993 385 1006 393 q 976 351 981 376 q 972 275 972 326 l 972 0 l 944 0 q 933 51 943 24 q 901 79 924 79 q 870 74 890 79 q 807 47 850 68 q 692 1 753 21 q 572 -19 632 -19 q 282 40 399 -19 q 108 213 165 100 q 50 483 50 325 q 119 756 50 639 q 309 938 188 872 q 589 1003 431 1003 m 579 1294 q 681 1265 644 1294 q 717 1175 717 1235 q 681 1085 717 1115 q 579 1056 644 1056 q 477 1085 513 1056 q 442 1175 442 1115 q 477 1265 442 1235 q 579 1294 513 1294 z "},"Ǥ":{"ha":1050,"x_min":50,"x_max":1050,"o":"m 589 1003 q 749 976 686 1003 q 858 913 811 950 q 886 900 874 900 q 921 983 913 900 l 953 983 q 949 848 950 928 q 947 636 947 768 l 915 636 q 881 803 906 736 q 788 918 857 871 q 719 949 758 938 q 644 960 681 960 q 511 916 564 960 q 427 802 458 872 q 383 649 396 732 q 369 489 369 567 q 431 124 369 239 q 593 8 492 8 q 632 13 615 8 q 661 25 649 17 q 683 53 676 36 q 690 94 690 69 l 690 275 q 680 376 690 343 q 639 422 669 410 q 550 436 608 435 l 550 464 q 628 462 582 463 q 724 460 674 461 q 815 460 774 460 q 938 461 882 460 q 1029 464 994 463 l 1029 436 q 993 426 1006 435 q 976 393 981 418 q 972 317 972 368 l 972 0 l 944 0 q 933 51 943 24 q 901 79 924 79 q 870 74 890 79 q 807 47 850 68 q 692 1 753 21 q 572 -19 632 -19 q 282 40 399 -19 q 108 213 165 100 q 50 483 50 325 q 119 756 50 639 q 309 938 188 872 q 589 1003 431 1003 m 543 247 l 543 275 l 1050 275 l 1050 247 l 543 247 z "},"H":{"ha":1151,"x_min":39,"x_max":1113,"o":"m 633 0 l 633 28 q 697 39 676 31 q 725 72 718 47 q 732 147 732 97 l 732 836 q 725 912 732 888 q 697 945 718 936 q 633 956 675 954 l 633 983 q 744 981 676 982 q 879 979 811 979 q 1013 981 950 979 q 1113 983 1075 982 l 1113 956 q 1049 945 1071 954 q 1021 912 1028 936 q 1014 836 1014 888 l 1014 147 q 1022 72 1014 97 q 1050 39 1029 47 q 1113 28 1071 31 l 1113 0 q 1013 3 1075 3 q 879 4 950 4 q 744 3 811 4 q 633 0 676 3 m 39 0 l 39 28 q 103 39 82 31 q 131 72 124 47 q 138 147 138 97 l 138 836 q 131 912 138 888 q 102 945 124 936 q 39 956 81 954 l 39 983 q 145 981 79 982 q 286 979 211 979 q 415 981 351 979 q 518 983 478 982 l 518 956 q 455 945 476 954 q 426 912 433 936 q 419 836 419 888 l 419 147 q 427 72 419 97 q 456 39 435 47 q 518 28 476 31 l 518 0 q 415 3 478 3 q 286 4 351 4 q 145 3 211 4 q 39 0 79 3 m 301 481 l 301 508 l 850 508 l 850 481 l 301 481 z "},"Ħ":{"ha":1151,"x_min":39,"x_max":1113,"o":"m 633 0 l 633 28 q 697 39 676 31 q 725 72 718 47 q 732 147 732 97 l 732 836 q 725 912 732 888 q 697 945 718 936 q 633 956 675 954 l 633 983 q 744 981 676 982 q 879 979 811 979 q 1013 981 950 979 q 1113 983 1075 982 l 1113 956 q 1049 945 1071 954 q 1021 912 1028 936 q 1014 836 1014 888 l 1014 147 q 1022 72 1014 97 q 1050 39 1029 47 q 1113 28 1071 31 l 1113 0 q 1013 3 1075 3 q 879 4 950 4 q 744 3 811 4 q 633 0 676 3 m 39 0 l 39 28 q 103 39 82 31 q 131 72 124 47 q 138 147 138 97 l 138 836 q 131 912 138 888 q 102 945 124 936 q 39 956 81 954 l 39 983 q 145 981 79 982 q 286 979 211 979 q 415 981 351 979 q 518 983 478 982 l 518 956 q 455 945 476 954 q 426 912 433 936 q 419 836 419 888 l 419 147 q 427 72 419 97 q 456 39 435 47 q 518 28 476 31 l 518 0 q 415 3 478 3 q 286 4 351 4 q 145 3 211 4 q 39 0 79 3 m 301 481 l 301 508 l 850 508 l 850 481 l 301 481 m 1113 740 l 1113 713 l 39 713 l 39 740 l 1113 740 z "},"Ȟ":{"ha":1151,"x_min":39,"x_max":1113,"o":"m 633 0 l 633 28 q 697 39 676 31 q 725 72 718 47 q 732 147 732 97 l 732 836 q 725 912 732 888 q 697 945 718 936 q 633 956 675 954 l 633 983 q 744 981 676 982 q 879 979 811 979 q 1013 981 950 979 q 1113 983 1075 982 l 1113 956 q 1049 945 1071 954 q 1021 912 1028 936 q 1014 836 1014 888 l 1014 147 q 1022 72 1014 97 q 1050 39 1029 47 q 1113 28 1071 31 l 1113 0 q 1013 3 1075 3 q 879 4 950 4 q 744 3 811 4 q 633 0 676 3 m 39 0 l 39 28 q 103 39 82 31 q 131 72 124 47 q 138 147 138 97 l 138 836 q 131 912 138 888 q 102 945 124 936 q 39 956 81 954 l 39 983 q 145 981 79 982 q 286 979 211 979 q 415 981 351 979 q 518 983 478 982 l 518 956 q 455 945 476 954 q 426 912 433 936 q 419 836 419 888 l 419 147 q 427 72 419 97 q 456 39 435 47 q 518 28 476 31 l 518 0 q 415 3 478 3 q 286 4 351 4 q 145 3 211 4 q 39 0 79 3 m 301 481 l 301 508 l 850 508 l 850 481 l 301 481 m 882 1314 l 889 1293 q 719 1185 799 1250 q 588 1054 639 1121 l 563 1054 q 433 1185 514 1119 q 261 1293 353 1250 l 268 1314 q 456 1276 364 1300 q 603 1229 549 1253 q 726 1276 649 1253 q 882 1314 803 1300 z "},"Ĥ":{"ha":1151,"x_min":39,"x_max":1113,"o":"m 633 0 l 633 28 q 697 39 676 31 q 725 72 718 47 q 732 147 732 97 l 732 836 q 725 912 732 888 q 697 945 718 936 q 633 956 675 954 l 633 983 q 744 981 676 982 q 879 979 811 979 q 1013 981 950 979 q 1113 983 1075 982 l 1113 956 q 1049 945 1071 954 q 1021 912 1028 936 q 1014 836 1014 888 l 1014 147 q 1022 72 1014 97 q 1050 39 1029 47 q 1113 28 1071 31 l 1113 0 q 1013 3 1075 3 q 879 4 950 4 q 744 3 811 4 q 633 0 676 3 m 39 0 l 39 28 q 103 39 82 31 q 131 72 124 47 q 138 147 138 97 l 138 836 q 131 912 138 888 q 102 945 124 936 q 39 956 81 954 l 39 983 q 145 981 79 982 q 286 979 211 979 q 415 981 351 979 q 518 983 478 982 l 518 956 q 455 945 476 954 q 426 912 433 936 q 419 836 419 888 l 419 147 q 427 72 419 97 q 456 39 435 47 q 518 28 476 31 l 518 0 q 415 3 478 3 q 286 4 351 4 q 145 3 211 4 q 39 0 79 3 m 301 481 l 301 508 l 850 508 l 850 481 l 301 481 m 592 1328 q 721 1198 640 1263 q 893 1089 801 1133 l 886 1068 q 698 1107 790 1083 q 551 1153 606 1131 q 428 1107 506 1131 q 272 1068 351 1083 l 265 1089 q 435 1197 356 1132 q 567 1328 515 1261 l 592 1328 z "},"I":{"ha":557,"x_min":39,"x_max":518,"o":"m 518 983 l 518 956 q 455 945 476 954 q 426 912 433 936 q 419 836 419 888 l 419 147 q 427 72 419 97 q 456 39 435 47 q 518 28 476 31 l 518 0 q 415 3 478 3 q 286 4 351 4 q 145 3 211 4 q 39 0 79 3 l 39 28 q 103 39 82 31 q 131 72 124 47 q 138 147 138 97 l 138 836 q 131 912 138 888 q 102 945 124 936 q 39 956 81 954 l 39 983 q 145 981 79 982 q 286 979 211 979 q 415 981 351 979 q 518 983 478 982 z "},"Ĳ":{"ha":1108,"x_min":39,"x_max":1078,"o":"m 518 983 l 518 956 q 455 945 476 954 q 426 912 433 936 q 419 836 419 888 l 419 147 q 427 72 419 97 q 456 39 435 47 q 518 28 476 31 l 518 0 q 415 3 478 3 q 286 4 351 4 q 145 3 211 4 q 39 0 79 3 l 39 28 q 103 39 82 31 q 131 72 124 47 q 138 147 138 97 l 138 836 q 131 912 138 888 q 102 945 124 936 q 39 956 81 954 l 39 983 q 145 981 79 982 q 286 979 211 979 q 415 981 351 979 q 518 983 478 982 m 532 -261 l 532 -232 q 619 -199 582 -225 q 677 -109 657 -174 q 697 76 697 -44 l 697 836 q 690 912 697 888 q 662 945 683 936 q 599 956 640 954 l 599 983 q 699 981 636 982 q 831 979 761 979 q 967 981 900 979 q 1078 983 1035 982 l 1078 956 q 1015 945 1036 954 q 986 912 993 936 q 979 836 979 888 l 979 328 q 980 205 979 271 q 976 76 981 139 q 956 -35 971 14 q 821 -196 925 -131 q 532 -261 717 -261 z "},"Í":{"ha":557,"x_min":39,"x_max":539,"o":"m 518 983 l 518 956 q 455 945 476 954 q 426 912 433 936 q 419 836 419 888 l 419 147 q 427 72 419 97 q 456 39 435 47 q 518 28 476 31 l 518 0 q 415 3 478 3 q 286 4 351 4 q 145 3 211 4 q 39 0 79 3 l 39 28 q 103 39 82 31 q 131 72 124 47 q 138 147 138 97 l 138 836 q 131 912 138 888 q 102 945 124 936 q 39 956 81 954 l 39 983 q 145 981 79 982 q 286 979 211 979 q 415 981 351 979 q 518 983 478 982 m 393 1304 q 465 1310 424 1319 q 524 1261 506 1301 q 526 1194 539 1228 q 479 1143 513 1160 q 410 1121 447 1126 q 319 1106 372 1115 q 183 1072 265 1097 l 174 1089 q 276 1188 242 1146 q 335 1260 311 1231 q 393 1304 360 1289 z "},"Ĭ":{"ha":557,"x_min":-60,"x_max":604,"o":"m 518 983 l 518 956 q 455 945 476 954 q 426 912 433 936 q 419 836 419 888 l 419 147 q 427 72 419 97 q 456 39 435 47 q 518 28 476 31 l 518 0 q 415 3 478 3 q 286 4 351 4 q 145 3 211 4 q 39 0 79 3 l 39 28 q 103 39 82 31 q 131 72 124 47 q 138 147 138 97 l 138 836 q 131 912 138 888 q 102 945 124 936 q 39 956 81 954 l 39 983 q 145 981 79 982 q 286 979 211 979 q 415 981 351 979 q 518 983 478 982 m 588 1278 l 604 1263 q 544 1169 586 1217 q 434 1091 501 1122 q 272 1060 367 1060 q 110 1091 178 1060 q 1 1169 43 1122 q -60 1263 -42 1217 l -43 1278 q 74 1224 -3 1251 q 272 1197 151 1197 q 470 1224 393 1197 q 588 1278 547 1251 z "},"Î":{"ha":557,"x_min":-28,"x_max":600,"o":"m 518 983 l 518 956 q 455 945 476 954 q 426 912 433 936 q 419 836 419 888 l 419 147 q 427 72 419 97 q 456 39 435 47 q 518 28 476 31 l 518 0 q 415 3 478 3 q 286 4 351 4 q 145 3 211 4 q 39 0 79 3 l 39 28 q 103 39 82 31 q 131 72 124 47 q 138 147 138 97 l 138 836 q 131 912 138 888 q 102 945 124 936 q 39 956 81 954 l 39 983 q 145 981 79 982 q 286 979 211 979 q 415 981 351 979 q 518 983 478 982 m 299 1328 q 428 1198 347 1263 q 600 1089 508 1133 l 593 1068 q 405 1107 497 1083 q 258 1153 313 1131 q 135 1107 213 1131 q -21 1068 58 1083 l -28 1089 q 142 1197 63 1132 q 274 1328 222 1261 l 299 1328 z "},"Ï":{"ha":557,"x_min":-14,"x_max":586,"o":"m 518 983 l 518 956 q 455 945 476 954 q 426 912 433 936 q 419 836 419 888 l 419 147 q 427 72 419 97 q 456 39 435 47 q 518 28 476 31 l 518 0 q 415 3 478 3 q 286 4 351 4 q 145 3 211 4 q 39 0 79 3 l 39 28 q 103 39 82 31 q 131 72 124 47 q 138 147 138 97 l 138 836 q 131 912 138 888 q 102 945 124 936 q 39 956 81 954 l 39 983 q 145 981 79 982 q 286 979 211 979 q 415 981 351 979 q 518 983 478 982 m 465 1300 q 550 1264 514 1300 q 586 1179 586 1228 q 550 1094 586 1129 q 465 1058 514 1058 q 380 1094 415 1058 q 344 1179 344 1129 q 380 1264 344 1228 q 465 1300 415 1300 m 107 1300 q 192 1264 156 1300 q 228 1179 228 1228 q 192 1094 228 1129 q 107 1058 156 1058 q 22 1094 57 1058 q -14 1179 -14 1129 q 22 1264 -14 1228 q 107 1300 57 1300 z "},"İ":{"ha":557,"x_min":39,"x_max":518,"o":"m 518 983 l 518 956 q 455 945 476 954 q 426 912 433 936 q 419 836 419 888 l 419 147 q 427 72 419 97 q 456 39 435 47 q 518 28 476 31 l 518 0 q 415 3 478 3 q 286 4 351 4 q 145 3 211 4 q 39 0 79 3 l 39 28 q 103 39 82 31 q 131 72 124 47 q 138 147 138 97 l 138 836 q 131 912 138 888 q 102 945 124 936 q 39 956 81 954 l 39 983 q 145 981 79 982 q 286 979 211 979 q 415 981 351 979 q 518 983 478 982 m 286 1349 q 398 1319 358 1349 q 438 1229 438 1289 q 398 1140 438 1169 q 286 1110 358 1110 q 174 1140 214 1110 q 135 1229 135 1169 q 174 1319 135 1289 q 286 1349 214 1349 z "},"Ị":{"ha":557,"x_min":39,"x_max":518,"o":"m 518 983 l 518 956 q 455 945 476 954 q 426 912 433 936 q 419 836 419 888 l 419 147 q 427 72 419 97 q 456 39 435 47 q 518 28 476 31 l 518 0 q 415 3 478 3 q 286 4 351 4 q 145 3 211 4 q 39 0 79 3 l 39 28 q 103 39 82 31 q 131 72 124 47 q 138 147 138 97 l 138 836 q 131 912 138 888 q 102 945 124 936 q 39 956 81 954 l 39 983 q 145 981 79 982 q 286 979 211 979 q 415 981 351 979 q 518 983 478 982 m 283 -265 q 197 -240 228 -265 q 165 -165 165 -215 q 197 -90 165 -117 q 288 -62 228 -62 q 375 -87 344 -62 q 406 -162 406 -112 q 374 -238 406 -211 q 283 -265 343 -265 z "},"Ì":{"ha":557,"x_min":14,"x_max":518,"o":"m 518 983 l 518 956 q 455 945 476 954 q 426 912 433 936 q 419 836 419 888 l 419 147 q 427 72 419 97 q 456 39 435 47 q 518 28 476 31 l 518 0 q 415 3 478 3 q 286 4 351 4 q 145 3 211 4 q 39 0 79 3 l 39 28 q 103 39 82 31 q 131 72 124 47 q 138 147 138 97 l 138 836 q 131 912 138 888 q 102 945 124 936 q 39 956 81 954 l 39 983 q 145 981 79 982 q 286 979 211 979 q 415 981 351 979 q 518 983 478 982 m 160 1304 q 218 1260 194 1289 q 277 1188 242 1231 q 379 1089 313 1146 l 369 1072 q 235 1106 289 1097 q 143 1121 181 1115 q 74 1143 106 1126 q 27 1194 40 1160 q 29 1261 14 1228 q 89 1310 49 1301 q 160 1304 129 1319 z "},"Ỉ":{"ha":557,"x_min":39,"x_max":518,"o":"m 518 983 l 518 956 q 455 945 476 954 q 426 912 433 936 q 419 836 419 888 l 419 147 q 427 72 419 97 q 456 39 435 47 q 518 28 476 31 l 518 0 q 415 3 478 3 q 286 4 351 4 q 145 3 211 4 q 39 0 79 3 l 39 28 q 103 39 82 31 q 131 72 124 47 q 138 147 138 97 l 138 836 q 131 912 138 888 q 102 945 124 936 q 39 956 81 954 l 39 983 q 145 981 79 982 q 286 979 211 979 q 415 981 351 979 q 518 983 478 982 m 258 1054 l 258 1131 q 331 1184 313 1156 q 350 1242 350 1213 q 317 1308 350 1288 q 240 1329 285 1329 q 199 1324 215 1329 q 176 1314 182 1319 q 228 1284 210 1304 q 246 1232 246 1264 q 222 1174 246 1196 q 161 1153 197 1153 q 101 1176 124 1153 q 79 1233 79 1199 q 97 1290 79 1268 q 136 1325 115 1313 q 200 1349 164 1342 q 283 1357 236 1357 q 397 1344 347 1357 q 474 1306 446 1331 q 501 1249 501 1282 q 472 1188 501 1214 q 392 1144 442 1161 q 286 1118 343 1128 l 286 1054 l 258 1054 z "},"Ī":{"ha":557,"x_min":-14,"x_max":586,"o":"m 518 983 l 518 956 q 455 945 476 954 q 426 912 433 936 q 419 836 419 888 l 419 147 q 427 72 419 97 q 456 39 435 47 q 518 28 476 31 l 518 0 q 415 3 478 3 q 286 4 351 4 q 145 3 211 4 q 39 0 79 3 l 39 28 q 103 39 82 31 q 131 72 124 47 q 138 147 138 97 l 138 836 q 131 912 138 888 q 102 945 124 936 q 39 956 81 954 l 39 983 q 145 981 79 982 q 286 979 211 979 q 415 981 351 979 q 518 983 478 982 m 586 1172 l 586 1138 l -14 1138 l -14 1172 l 586 1172 z "},"Į":{"ha":557,"x_min":39,"x_max":518,"o":"m 518 983 l 518 956 q 455 945 476 954 q 426 912 433 936 q 419 836 419 888 l 419 147 q 427 72 419 97 q 456 39 435 47 q 518 28 476 31 l 518 0 q 415 3 478 3 q 286 4 351 4 q 145 3 211 4 q 39 0 79 3 l 39 28 q 103 39 82 31 q 131 72 124 47 q 138 147 138 97 l 138 836 q 131 912 138 888 q 102 945 124 936 q 39 956 81 954 l 39 983 q 145 981 79 982 q 286 979 211 979 q 415 981 351 979 q 518 983 478 982 m 492 4 q 370 -60 406 -25 q 335 -125 335 -96 q 349 -165 335 -153 q 390 -178 363 -178 q 440 -169 414 -178 q 482 -146 467 -160 l 500 -167 q 410 -239 460 -217 q 288 -261 361 -261 q 185 -235 219 -261 q 150 -162 150 -210 q 227 -60 150 -101 q 439 4 304 -18 l 492 4 z "},"Ĩ":{"ha":557,"x_min":-50,"x_max":618,"o":"m 518 983 l 518 956 q 455 945 476 954 q 426 912 433 936 q 419 836 419 888 l 419 147 q 427 72 419 97 q 456 39 435 47 q 518 28 476 31 l 518 0 q 415 3 478 3 q 286 4 351 4 q 145 3 211 4 q 39 0 79 3 l 39 28 q 103 39 82 31 q 131 72 124 47 q 138 147 138 97 l 138 836 q 131 912 138 888 q 102 945 124 936 q 39 956 81 954 l 39 983 q 145 981 79 982 q 286 979 211 979 q 415 981 351 979 q 518 983 478 982 m 157 1303 q 251 1289 213 1303 q 322 1257 290 1275 q 386 1225 353 1239 q 464 1211 419 1211 q 535 1228 501 1211 q 599 1285 568 1246 l 618 1275 q 534 1112 590 1161 q 413 1063 478 1063 q 317 1076 357 1063 q 247 1109 278 1090 q 182 1142 215 1128 q 104 1156 149 1156 q 33 1138 67 1156 q -31 1081 0 1121 l -50 1090 q 35 1253 -22 1204 q 157 1303 92 1303 z "},"J":{"ha":542,"x_min":-35,"x_max":511,"o":"m -35 -261 l -35 -232 q 53 -199 15 -225 q 110 -109 90 -174 q 131 76 131 -44 l 131 836 q 124 912 131 888 q 95 945 117 936 q 32 956 74 954 l 32 983 q 132 981 69 982 q 264 979 194 979 q 401 981 333 979 q 511 983 468 982 l 511 956 q 448 945 469 954 q 419 912 426 936 q 413 836 413 888 l 413 328 q 413 205 413 271 q 409 76 414 139 q 389 -35 404 14 q 254 -196 358 -131 q -35 -261 150 -261 z "},"Ĵ":{"ha":542,"x_min":-49,"x_max":579,"o":"m -35 -261 l -35 -232 q 53 -199 15 -225 q 110 -109 90 -174 q 131 76 131 -44 l 131 836 q 124 912 131 888 q 95 945 117 936 q 32 956 74 954 l 32 983 q 132 981 69 982 q 264 979 194 979 q 401 981 333 979 q 511 983 468 982 l 511 956 q 448 945 469 954 q 419 912 426 936 q 413 836 413 888 l 413 328 q 413 205 413 271 q 409 76 414 139 q 389 -35 404 14 q 254 -196 358 -131 q -35 -261 150 -261 m 278 1328 q 407 1198 326 1263 q 579 1089 488 1133 l 572 1068 q 384 1107 476 1083 q 238 1153 292 1131 q 115 1107 192 1131 q -42 1068 38 1083 l -49 1089 q 122 1197 42 1132 q 253 1328 201 1261 l 278 1328 z "},"K":{"ha":1047,"x_min":39,"x_max":1069,"o":"m 1026 983 l 1026 957 q 922 911 979 944 q 799 804 864 878 l 543 514 l 656 661 l 985 113 q 1021 64 1003 83 q 1069 28 1039 44 l 1069 0 q 945 3 1011 3 q 819 4 879 4 q 740 3 788 4 q 621 0 693 3 l 621 28 q 697 43 686 31 q 686 90 707 56 l 485 431 q 460 468 471 456 q 438 486 449 481 q 411 493 428 492 l 411 522 q 526 563 472 525 q 657 688 581 601 l 704 740 q 766 853 763 806 q 737 928 769 901 q 651 957 704 956 l 651 983 q 724 981 690 982 q 797 980 758 981 q 886 979 835 979 q 965 981 931 979 q 1026 983 999 982 m 518 983 l 518 956 q 455 945 476 954 q 426 912 433 936 q 419 836 419 888 l 419 147 q 427 72 419 97 q 456 39 435 47 q 518 28 476 31 l 518 0 q 415 3 478 3 q 286 4 351 4 q 145 3 211 4 q 39 0 79 3 l 39 28 q 103 39 82 31 q 131 72 124 47 q 138 147 138 97 l 138 836 q 131 912 138 888 q 102 945 124 936 q 39 956 81 954 l 39 983 q 145 981 79 982 q 286 979 211 979 q 415 981 351 979 q 518 983 478 982 z "},"Ǩ":{"ha":1047,"x_min":39,"x_max":1069,"o":"m 1026 983 l 1026 957 q 922 911 979 944 q 799 804 864 878 l 543 514 l 656 661 l 985 113 q 1021 64 1003 83 q 1069 28 1039 44 l 1069 0 q 945 3 1011 3 q 819 4 879 4 q 740 3 788 4 q 621 0 693 3 l 621 28 q 697 43 686 31 q 686 90 707 56 l 485 431 q 460 468 471 456 q 438 486 449 481 q 411 493 428 492 l 411 522 q 526 563 472 525 q 657 688 581 601 l 704 740 q 766 853 763 806 q 737 928 769 901 q 651 957 704 956 l 651 983 q 724 981 690 982 q 797 980 758 981 q 886 979 835 979 q 965 981 931 979 q 1026 983 999 982 m 518 983 l 518 956 q 455 945 476 954 q 426 912 433 936 q 419 836 419 888 l 419 147 q 427 72 419 97 q 456 39 435 47 q 518 28 476 31 l 518 0 q 415 3 478 3 q 286 4 351 4 q 145 3 211 4 q 39 0 79 3 l 39 28 q 103 39 82 31 q 131 72 124 47 q 138 147 138 97 l 138 836 q 131 912 138 888 q 102 945 124 936 q 39 956 81 954 l 39 983 q 145 981 79 982 q 286 979 211 979 q 415 981 351 979 q 518 983 478 982 m 901 1314 l 908 1293 q 738 1185 818 1250 q 607 1054 658 1121 l 582 1054 q 453 1185 533 1119 q 281 1293 372 1250 l 288 1314 q 476 1276 383 1300 q 622 1229 568 1253 q 745 1276 668 1253 q 901 1314 822 1300 z "},"Ķ":{"ha":1047,"x_min":39,"x_max":1069,"o":"m 1026 983 l 1026 957 q 922 911 979 944 q 799 804 864 878 l 543 514 l 656 661 l 985 113 q 1021 64 1003 83 q 1069 28 1039 44 l 1069 0 q 945 3 1011 3 q 819 4 879 4 q 740 3 788 4 q 621 0 693 3 l 621 28 q 697 43 686 31 q 686 90 707 56 l 485 431 q 460 468 471 456 q 438 486 449 481 q 411 493 428 492 l 411 522 q 526 563 472 525 q 657 688 581 601 l 704 740 q 766 853 763 806 q 737 928 769 901 q 651 957 704 956 l 651 983 q 724 981 690 982 q 797 980 758 981 q 886 979 835 979 q 965 981 931 979 q 1026 983 999 982 m 518 983 l 518 956 q 455 945 476 954 q 426 912 433 936 q 419 836 419 888 l 419 147 q 427 72 419 97 q 456 39 435 47 q 518 28 476 31 l 518 0 q 415 3 478 3 q 286 4 351 4 q 145 3 211 4 q 39 0 79 3 l 39 28 q 103 39 82 31 q 131 72 124 47 q 138 147 138 97 l 138 836 q 131 912 138 888 q 102 945 124 936 q 39 956 81 954 l 39 983 q 145 981 79 982 q 286 979 211 979 q 415 981 351 979 q 518 983 478 982 m 597 -62 q 690 -91 653 -62 q 726 -176 726 -119 q 679 -291 726 -246 q 539 -339 632 -336 l 536 -308 q 626 -285 596 -301 q 664 -239 656 -269 q 637 -254 654 -249 q 590 -260 619 -260 q 504 -235 535 -260 q 474 -164 474 -211 q 506 -89 474 -115 q 597 -62 538 -62 z "},"L":{"ha":869,"x_min":39,"x_max":843,"o":"m 532 983 l 532 956 q 460 945 485 954 q 428 912 436 936 q 419 836 419 888 l 419 119 q 425 63 419 82 q 446 38 431 44 q 490 32 461 32 l 536 32 q 614 60 572 32 q 695 136 656 88 q 764 247 735 185 q 806 375 793 308 l 838 375 q 833 247 833 325 q 835 142 833 211 q 843 0 836 74 q 683 3 772 3 q 525 4 594 4 q 430 4 488 4 q 305 3 372 4 q 169 2 238 3 q 39 0 100 1 l 39 28 q 103 39 82 31 q 131 72 124 47 q 138 147 138 97 l 138 836 q 131 912 138 888 q 102 945 124 936 q 39 956 81 954 l 39 983 q 145 981 79 982 q 286 979 211 979 q 422 981 356 979 q 532 983 489 982 z "},"Ĺ":{"ha":869,"x_min":39,"x_max":843,"o":"m 532 983 l 532 956 q 460 945 485 954 q 428 912 436 936 q 419 836 419 888 l 419 119 q 425 63 419 82 q 446 38 431 44 q 490 32 461 32 l 536 32 q 614 60 572 32 q 695 136 656 88 q 764 247 735 185 q 806 375 793 308 l 838 375 q 833 247 833 325 q 835 142 833 211 q 843 0 836 74 q 683 3 772 3 q 525 4 594 4 q 430 4 488 4 q 305 3 372 4 q 169 2 238 3 q 39 0 100 1 l 39 28 q 103 39 82 31 q 131 72 124 47 q 138 147 138 97 l 138 836 q 131 912 138 888 q 102 945 124 936 q 39 956 81 954 l 39 983 q 145 981 79 982 q 286 979 211 979 q 422 981 356 979 q 532 983 489 982 m 393 1304 q 465 1310 424 1319 q 524 1261 506 1301 q 526 1194 539 1228 q 479 1143 513 1160 q 410 1121 447 1126 q 319 1106 372 1115 q 183 1072 265 1097 l 174 1089 q 276 1188 242 1146 q 335 1260 311 1231 q 393 1304 360 1289 z "},"Ľ":{"ha":869,"x_min":39,"x_max":843,"o":"m 532 983 l 532 956 q 460 945 485 954 q 428 912 436 936 q 419 836 419 888 l 419 119 q 425 63 419 82 q 446 38 431 44 q 490 32 461 32 l 536 32 q 614 60 572 32 q 695 136 656 88 q 764 247 735 185 q 806 375 793 308 l 838 375 q 833 247 833 325 q 835 142 833 211 q 843 0 836 74 q 683 3 772 3 q 525 4 594 4 q 430 4 488 4 q 305 3 372 4 q 169 2 238 3 q 39 0 100 1 l 39 28 q 103 39 82 31 q 131 72 124 47 q 138 147 138 97 l 138 836 q 131 912 138 888 q 102 945 124 936 q 39 956 81 954 l 39 983 q 145 981 79 982 q 286 979 211 979 q 422 981 356 979 q 532 983 489 982 m 826 992 q 831 969 829 985 q 833 942 833 954 q 781 831 833 897 q 643 664 729 764 l 624 669 q 646 827 640 776 q 651 899 651 878 q 644 940 651 926 q 610 954 636 954 l 610 983 q 735 981 689 978 q 826 992 782 985 z "},"Ļ":{"ha":869,"x_min":39,"x_max":843,"o":"m 532 983 l 532 956 q 460 945 485 954 q 428 912 436 936 q 419 836 419 888 l 419 119 q 425 63 419 82 q 446 38 431 44 q 490 32 461 32 l 536 32 q 614 60 572 32 q 695 136 656 88 q 764 247 735 185 q 806 375 793 308 l 838 375 q 833 247 833 325 q 835 142 833 211 q 843 0 836 74 q 683 3 772 3 q 525 4 594 4 q 430 4 488 4 q 305 3 372 4 q 169 2 238 3 q 39 0 100 1 l 39 28 q 103 39 82 31 q 131 72 124 47 q 138 147 138 97 l 138 836 q 131 912 138 888 q 102 945 124 936 q 39 956 81 954 l 39 983 q 145 981 79 982 q 286 979 211 979 q 422 981 356 979 q 532 983 489 982 m 508 -62 q 601 -91 564 -62 q 638 -176 638 -119 q 590 -291 638 -246 q 450 -339 543 -336 l 447 -308 q 537 -285 507 -301 q 575 -239 567 -269 q 548 -254 565 -249 q 501 -260 531 -260 q 415 -235 446 -260 q 385 -164 385 -211 q 417 -89 385 -115 q 508 -62 449 -62 z "},"Ŀ":{"ha":871,"x_min":39,"x_max":844,"o":"m 532 983 l 532 956 q 460 945 485 954 q 428 912 436 936 q 419 836 419 888 l 419 119 q 425 63 419 82 q 446 38 431 44 q 490 32 461 32 l 536 32 q 614 60 572 32 q 695 136 656 88 q 764 247 735 185 q 806 375 793 308 l 838 375 q 833 247 833 325 q 835 142 833 211 q 843 0 836 74 q 683 3 772 3 q 525 4 594 4 q 430 4 488 4 q 305 3 372 4 q 169 2 238 3 q 39 0 100 1 l 39 28 q 103 39 82 31 q 131 72 124 47 q 138 147 138 97 l 138 836 q 131 912 138 888 q 102 945 124 936 q 39 956 81 954 l 39 983 q 145 981 79 982 q 286 979 211 979 q 422 981 356 979 q 532 983 489 982 m 707 728 q 808 698 772 728 q 844 608 844 668 q 808 519 844 549 q 707 489 772 489 q 605 519 640 489 q 569 608 569 549 q 605 698 569 668 q 707 728 640 728 z "},"Ł":{"ha":869,"x_min":35,"x_max":843,"o":"m 532 983 l 532 956 q 460 945 485 954 q 428 912 436 936 q 419 836 419 888 l 419 119 q 425 63 419 82 q 446 38 431 44 q 490 32 461 32 l 536 32 q 614 60 572 32 q 695 136 656 88 q 764 247 735 185 q 806 375 793 308 l 838 375 q 833 247 833 325 q 835 142 833 211 q 843 0 836 74 q 683 3 772 3 q 525 4 594 4 q 430 4 488 4 q 305 3 372 4 q 169 2 238 3 q 39 0 100 1 l 39 28 q 103 39 82 31 q 131 72 124 47 q 138 147 138 97 l 138 836 q 131 912 138 888 q 102 945 124 936 q 39 956 81 954 l 39 983 q 145 981 79 982 q 286 979 211 979 q 422 981 356 979 q 532 983 489 982 m 653 657 l 653 625 l 258 396 l 258 428 l 653 657 m 258 442 l 258 410 l 35 281 l 35 313 l 258 442 z "},"M":{"ha":1340,"x_min":42,"x_max":1301,"o":"m 1301 983 l 1301 956 q 1238 945 1260 954 q 1210 912 1217 936 q 1203 836 1203 888 l 1203 147 q 1210 72 1203 97 q 1239 39 1218 47 q 1301 28 1260 31 l 1301 0 q 1192 3 1258 3 q 1056 4 1125 4 q 915 3 981 4 q 808 0 849 3 l 808 28 q 880 39 856 31 q 913 72 904 47 q 921 147 921 97 l 921 890 l 935 893 l 586 1 l 564 1 l 172 893 l 172 272 q 180 130 172 179 q 217 59 188 81 q 313 28 247 38 l 313 0 q 240 3 285 3 q 157 4 196 4 q 94 3 126 4 q 42 0 63 3 l 42 28 q 106 58 85 38 q 133 122 126 78 q 140 244 140 167 l 140 836 q 133 912 140 888 q 105 945 126 936 q 42 956 83 954 l 42 983 q 94 981 63 982 q 157 979 126 979 q 311 981 238 979 q 444 983 385 982 l 719 364 l 678 318 l 935 979 q 994 979 963 979 q 1056 979 1026 979 q 1192 981 1125 979 q 1301 983 1258 982 z "},"N":{"ha":1017,"x_min":42,"x_max":983,"o":"m 983 983 l 983 956 q 920 926 942 947 q 892 862 899 906 q 885 739 885 818 l 885 0 q 840 3 864 3 q 788 0 815 3 l 172 672 l 172 272 q 180 130 172 179 q 217 59 188 81 q 313 28 247 38 l 313 0 q 240 3 285 3 q 157 4 196 4 q 94 3 126 4 q 42 0 63 3 l 42 28 q 106 58 85 38 q 133 122 126 78 q 140 244 140 167 l 140 836 q 133 912 140 888 q 105 945 126 936 q 42 956 83 954 l 42 983 q 94 981 63 982 q 157 979 126 979 q 225 981 192 979 q 285 983 258 982 l 853 383 l 853 711 q 845 853 853 804 q 808 925 838 903 q 713 956 779 947 l 713 983 q 785 981 740 982 q 868 979 829 979 q 931 981 900 979 q 983 983 963 982 z "},"Ń":{"ha":1017,"x_min":42,"x_max":983,"o":"m 983 983 l 983 956 q 920 926 942 947 q 892 862 899 906 q 885 739 885 818 l 885 0 q 840 3 864 3 q 788 0 815 3 l 172 672 l 172 272 q 180 130 172 179 q 217 59 188 81 q 313 28 247 38 l 313 0 q 240 3 285 3 q 157 4 196 4 q 94 3 126 4 q 42 0 63 3 l 42 28 q 106 58 85 38 q 133 122 126 78 q 140 244 140 167 l 140 836 q 133 912 140 888 q 105 945 126 936 q 42 956 83 954 l 42 983 q 94 981 63 982 q 157 979 126 979 q 225 981 192 979 q 285 983 258 982 l 853 383 l 853 711 q 845 853 853 804 q 808 925 838 903 q 713 956 779 947 l 713 983 q 785 981 740 982 q 868 979 829 979 q 931 981 900 979 q 983 983 963 982 m 638 1304 q 709 1310 668 1319 q 768 1261 750 1301 q 770 1194 783 1228 q 724 1143 757 1160 q 654 1121 692 1126 q 563 1106 617 1115 q 428 1072 510 1097 l 418 1089 q 521 1188 486 1146 q 580 1260 556 1231 q 638 1304 604 1289 z "},"Ň":{"ha":1017,"x_min":42,"x_max":983,"o":"m 983 983 l 983 956 q 920 926 942 947 q 892 862 899 906 q 885 739 885 818 l 885 0 q 840 3 864 3 q 788 0 815 3 l 172 672 l 172 272 q 180 130 172 179 q 217 59 188 81 q 313 28 247 38 l 313 0 q 240 3 285 3 q 157 4 196 4 q 94 3 126 4 q 42 0 63 3 l 42 28 q 106 58 85 38 q 133 122 126 78 q 140 244 140 167 l 140 836 q 133 912 140 888 q 105 945 126 936 q 42 956 83 954 l 42 983 q 94 981 63 982 q 157 979 126 979 q 225 981 192 979 q 285 983 258 982 l 853 383 l 853 711 q 845 853 853 804 q 808 925 838 903 q 713 956 779 947 l 713 983 q 785 981 740 982 q 868 979 829 979 q 931 981 900 979 q 983 983 963 982 m 833 1314 l 840 1293 q 670 1185 750 1250 q 539 1054 590 1121 l 514 1054 q 385 1185 465 1119 q 213 1293 304 1250 l 219 1314 q 408 1276 315 1300 q 554 1229 500 1253 q 677 1276 600 1253 q 833 1314 754 1300 z "},"Ņ":{"ha":1017,"x_min":42,"x_max":983,"o":"m 983 983 l 983 956 q 920 926 942 947 q 892 862 899 906 q 885 739 885 818 l 885 0 q 840 3 864 3 q 788 0 815 3 l 172 672 l 172 272 q 180 130 172 179 q 217 59 188 81 q 313 28 247 38 l 313 0 q 240 3 285 3 q 157 4 196 4 q 94 3 126 4 q 42 0 63 3 l 42 28 q 106 58 85 38 q 133 122 126 78 q 140 244 140 167 l 140 836 q 133 912 140 888 q 105 945 126 936 q 42 956 83 954 l 42 983 q 94 981 63 982 q 157 979 126 979 q 225 981 192 979 q 285 983 258 982 l 853 383 l 853 711 q 845 853 853 804 q 808 925 838 903 q 713 956 779 947 l 713 983 q 785 981 740 982 q 868 979 829 979 q 931 981 900 979 q 983 983 963 982 m 518 -62 q 610 -91 574 -62 q 647 -176 647 -119 q 600 -291 647 -246 q 460 -339 553 -336 l 457 -308 q 547 -285 517 -301 q 585 -239 576 -269 q 558 -254 575 -249 q 511 -260 540 -260 q 425 -235 456 -260 q 394 -164 394 -211 q 426 -89 394 -115 q 518 -62 458 -62 z "},"Ŋ":{"ha":1013,"x_min":39,"x_max":981,"o":"m 981 983 l 981 956 q 918 945 939 954 q 890 912 897 936 q 882 836 882 888 l 882 356 l 860 1 q 824 3 843 3 q 785 0 806 3 l 169 672 l 169 147 q 178 72 169 97 q 210 39 186 47 q 282 28 235 31 l 282 0 q 224 3 257 3 q 154 4 190 4 q 92 3 124 4 q 39 0 60 3 l 39 28 q 102 39 81 31 q 131 72 124 47 q 138 147 138 97 l 138 836 q 131 912 138 888 q 102 945 124 936 q 39 956 81 954 l 39 983 q 92 981 60 982 q 154 979 124 979 q 222 981 189 979 q 282 983 256 982 l 850 383 l 850 836 q 842 912 850 888 q 809 945 833 936 q 738 956 785 954 l 738 983 q 797 981 763 982 q 865 979 831 979 q 928 981 897 979 q 981 983 960 982 m 882 618 l 882 64 q 869 -99 882 -36 q 829 -198 856 -162 q 765 -247 803 -233 q 678 -261 728 -261 q 546 -231 599 -261 q 493 -133 493 -200 q 531 -52 493 -81 q 629 -24 568 -24 q 720 -49 686 -24 q 754 -124 754 -75 q 735 -187 754 -157 q 674 -232 717 -217 q 687 -233 681 -233 q 699 -233 693 -233 q 814 -168 778 -233 q 850 40 850 -103 l 850 618 q 866 618 850 618 q 882 618 882 618 z "},"Ñ":{"ha":1017,"x_min":42,"x_max":983,"o":"m 983 983 l 983 956 q 920 926 942 947 q 892 862 899 906 q 885 739 885 818 l 885 0 q 840 3 864 3 q 788 0 815 3 l 172 672 l 172 272 q 180 130 172 179 q 217 59 188 81 q 313 28 247 38 l 313 0 q 240 3 285 3 q 157 4 196 4 q 94 3 126 4 q 42 0 63 3 l 42 28 q 106 58 85 38 q 133 122 126 78 q 140 244 140 167 l 140 836 q 133 912 140 888 q 105 945 126 936 q 42 956 83 954 l 42 983 q 94 981 63 982 q 157 979 126 979 q 225 981 192 979 q 285 983 258 982 l 853 383 l 853 711 q 845 853 853 804 q 808 925 838 903 q 713 956 779 947 l 713 983 q 785 981 740 982 q 868 979 829 979 q 931 981 900 979 q 983 983 963 982 m 401 1303 q 496 1289 457 1303 q 566 1257 535 1275 q 631 1225 597 1239 q 708 1211 664 1211 q 779 1228 746 1211 q 843 1285 813 1246 l 863 1275 q 778 1112 835 1161 q 657 1063 722 1063 q 562 1076 601 1063 q 491 1109 522 1090 q 426 1142 460 1128 q 349 1156 393 1156 q 278 1138 311 1156 q 214 1081 244 1121 l 194 1090 q 279 1253 222 1204 q 401 1303 336 1303 z "},"O":{"ha":1149,"x_min":50,"x_max":1099,"o":"m 575 1003 q 850 943 732 1003 q 1033 772 968 883 q 1099 500 1099 660 q 1032 228 1099 344 q 847 46 965 111 q 574 -19 728 -19 q 299 40 417 -19 q 115 213 181 100 q 50 483 50 325 q 117 756 50 639 q 303 938 185 872 q 575 1003 421 1003 m 569 978 q 449 915 500 978 q 369 743 397 853 q 342 489 342 633 q 374 233 342 342 q 460 65 406 124 q 579 6 514 6 q 700 68 649 6 q 779 241 751 131 q 807 494 807 351 q 775 751 807 643 q 689 919 743 860 q 569 978 635 978 z "},"Ó":{"ha":1149,"x_min":50,"x_max":1099,"o":"m 575 1003 q 850 943 732 1003 q 1033 772 968 883 q 1099 500 1099 660 q 1032 228 1099 344 q 847 46 965 111 q 574 -19 728 -19 q 299 40 417 -19 q 115 213 181 100 q 50 483 50 325 q 117 756 50 639 q 303 938 185 872 q 575 1003 421 1003 m 569 978 q 449 915 500 978 q 369 743 397 853 q 342 489 342 633 q 374 233 342 342 q 460 65 406 124 q 579 6 514 6 q 700 68 649 6 q 779 241 751 131 q 807 494 807 351 q 775 751 807 643 q 689 919 743 860 q 569 978 635 978 m 679 1304 q 751 1310 710 1319 q 810 1261 792 1301 q 812 1194 825 1228 q 765 1143 799 1160 q 696 1121 733 1126 q 605 1106 658 1115 q 469 1072 551 1097 l 460 1089 q 563 1188 528 1146 q 622 1260 597 1231 q 679 1304 646 1289 z "},"Ŏ":{"ha":1149,"x_min":50,"x_max":1099,"o":"m 575 1003 q 850 943 732 1003 q 1033 772 968 883 q 1099 500 1099 660 q 1032 228 1099 344 q 847 46 965 111 q 574 -19 728 -19 q 299 40 417 -19 q 115 213 181 100 q 50 483 50 325 q 117 756 50 639 q 303 938 185 872 q 575 1003 421 1003 m 569 978 q 449 915 500 978 q 369 743 397 853 q 342 489 342 633 q 374 233 342 342 q 460 65 406 124 q 579 6 514 6 q 700 68 649 6 q 779 241 751 131 q 807 494 807 351 q 775 751 807 643 q 689 919 743 860 q 569 978 635 978 m 874 1278 l 890 1263 q 830 1169 872 1217 q 720 1091 788 1122 q 558 1060 653 1060 q 397 1091 464 1060 q 287 1169 329 1122 q 226 1263 244 1217 l 243 1278 q 360 1224 283 1251 q 558 1197 438 1197 q 756 1224 679 1197 q 874 1278 833 1251 z "},"Ô":{"ha":1149,"x_min":50,"x_max":1099,"o":"m 575 1003 q 850 943 732 1003 q 1033 772 968 883 q 1099 500 1099 660 q 1032 228 1099 344 q 847 46 965 111 q 574 -19 728 -19 q 299 40 417 -19 q 115 213 181 100 q 50 483 50 325 q 117 756 50 639 q 303 938 185 872 q 575 1003 421 1003 m 569 978 q 449 915 500 978 q 369 743 397 853 q 342 489 342 633 q 374 233 342 342 q 460 65 406 124 q 579 6 514 6 q 700 68 649 6 q 779 241 751 131 q 807 494 807 351 q 775 751 807 643 q 689 919 743 860 q 569 978 635 978 m 585 1328 q 714 1198 633 1263 q 886 1089 794 1133 l 879 1068 q 691 1107 783 1083 q 544 1153 599 1131 q 422 1107 499 1131 q 265 1068 344 1083 l 258 1089 q 428 1197 349 1132 q 560 1328 508 1261 l 585 1328 z "},"Ố":{"ha":1149,"x_min":50,"x_max":1099,"o":"m 575 1003 q 850 943 732 1003 q 1033 772 968 883 q 1099 500 1099 660 q 1032 228 1099 344 q 847 46 965 111 q 574 -19 728 -19 q 299 40 417 -19 q 115 213 181 100 q 50 483 50 325 q 117 756 50 639 q 303 938 185 872 q 575 1003 421 1003 m 569 978 q 449 915 500 978 q 369 743 397 853 q 342 489 342 633 q 374 233 342 342 q 460 65 406 124 q 579 6 514 6 q 700 68 649 6 q 779 241 751 131 q 807 494 807 351 q 775 751 807 643 q 689 919 743 860 q 569 978 635 978 m 585 1328 q 714 1198 633 1263 q 886 1089 794 1133 l 879 1068 q 691 1107 783 1083 q 544 1153 599 1131 q 422 1107 499 1131 q 265 1068 344 1083 l 258 1089 q 428 1197 349 1132 q 560 1328 508 1261 l 585 1328 m 679 1610 q 751 1616 710 1625 q 810 1567 792 1607 q 812 1499 825 1533 q 765 1449 799 1465 q 696 1426 733 1432 q 605 1412 658 1421 q 469 1378 551 1403 l 460 1394 q 563 1494 528 1451 q 622 1565 597 1536 q 679 1610 646 1594 z "},"Ộ":{"ha":1149,"x_min":50,"x_max":1099,"o":"m 575 1003 q 850 943 732 1003 q 1033 772 968 883 q 1099 500 1099 660 q 1032 228 1099 344 q 847 46 965 111 q 574 -19 728 -19 q 299 40 417 -19 q 115 213 181 100 q 50 483 50 325 q 117 756 50 639 q 303 938 185 872 q 575 1003 421 1003 m 569 978 q 449 915 500 978 q 369 743 397 853 q 342 489 342 633 q 374 233 342 342 q 460 65 406 124 q 579 6 514 6 q 700 68 649 6 q 779 241 751 131 q 807 494 807 351 q 775 751 807 643 q 689 919 743 860 q 569 978 635 978 m 585 1328 q 714 1198 633 1263 q 886 1089 794 1133 l 879 1068 q 691 1107 783 1083 q 544 1153 599 1131 q 422 1107 499 1131 q 265 1068 344 1083 l 258 1089 q 428 1197 349 1132 q 560 1328 508 1261 l 585 1328 m 574 -265 q 487 -240 518 -265 q 456 -165 456 -215 q 487 -90 456 -117 q 578 -62 518 -62 q 665 -87 635 -62 q 696 -162 696 -112 q 665 -238 696 -211 q 574 -265 633 -265 z "},"Ồ":{"ha":1149,"x_min":50,"x_max":1099,"o":"m 575 1003 q 850 943 732 1003 q 1033 772 968 883 q 1099 500 1099 660 q 1032 228 1099 344 q 847 46 965 111 q 574 -19 728 -19 q 299 40 417 -19 q 115 213 181 100 q 50 483 50 325 q 117 756 50 639 q 303 938 185 872 q 575 1003 421 1003 m 569 978 q 449 915 500 978 q 369 743 397 853 q 342 489 342 633 q 374 233 342 342 q 460 65 406 124 q 579 6 514 6 q 700 68 649 6 q 779 241 751 131 q 807 494 807 351 q 775 751 807 643 q 689 919 743 860 q 569 978 635 978 m 585 1328 q 714 1198 633 1263 q 886 1089 794 1133 l 879 1068 q 691 1107 783 1083 q 544 1153 599 1131 q 422 1107 499 1131 q 265 1068 344 1083 l 258 1089 q 428 1197 349 1132 q 560 1328 508 1261 l 585 1328 m 446 1610 q 504 1565 481 1594 q 563 1494 528 1536 q 665 1394 599 1451 l 656 1378 q 521 1412 575 1403 q 429 1426 467 1421 q 360 1449 392 1432 q 313 1499 326 1465 q 315 1567 300 1533 q 375 1616 335 1607 q 446 1610 415 1625 z "},"Ổ":{"ha":1149,"x_min":50,"x_max":1099,"o":"m 575 1003 q 850 943 732 1003 q 1033 772 968 883 q 1099 500 1099 660 q 1032 228 1099 344 q 847 46 965 111 q 574 -19 728 -19 q 299 40 417 -19 q 115 213 181 100 q 50 483 50 325 q 117 756 50 639 q 303 938 185 872 q 575 1003 421 1003 m 569 978 q 449 915 500 978 q 369 743 397 853 q 342 489 342 633 q 374 233 342 342 q 460 65 406 124 q 579 6 514 6 q 700 68 649 6 q 779 241 751 131 q 807 494 807 351 q 775 751 807 643 q 689 919 743 860 q 569 978 635 978 m 585 1328 q 714 1198 633 1263 q 886 1089 794 1133 l 879 1068 q 691 1107 783 1083 q 544 1153 599 1131 q 422 1107 499 1131 q 265 1068 344 1083 l 258 1089 q 428 1197 349 1132 q 560 1328 508 1261 l 585 1328 m 824 1290 l 824 1367 q 897 1420 878 1392 q 915 1478 915 1449 q 883 1544 915 1524 q 806 1565 850 1565 q 764 1560 781 1565 q 742 1550 747 1556 q 793 1520 775 1540 q 811 1468 811 1500 q 787 1410 811 1432 q 726 1389 763 1389 q 667 1412 689 1389 q 644 1469 644 1435 q 663 1526 644 1504 q 701 1561 681 1549 q 765 1585 729 1578 q 849 1593 801 1593 q 962 1580 913 1593 q 1039 1542 1011 1567 q 1067 1485 1067 1518 q 1037 1424 1067 1450 q 958 1381 1007 1397 q 851 1354 908 1364 l 851 1290 l 824 1290 z "},"Ỗ":{"ha":1149,"x_min":50,"x_max":1099,"o":"m 575 1003 q 850 943 732 1003 q 1033 772 968 883 q 1099 500 1099 660 q 1032 228 1099 344 q 847 46 965 111 q 574 -19 728 -19 q 299 40 417 -19 q 115 213 181 100 q 50 483 50 325 q 117 756 50 639 q 303 938 185 872 q 575 1003 421 1003 m 569 978 q 449 915 500 978 q 369 743 397 853 q 342 489 342 633 q 374 233 342 342 q 460 65 406 124 q 579 6 514 6 q 700 68 649 6 q 779 241 751 131 q 807 494 807 351 q 775 751 807 643 q 689 919 743 860 q 569 978 635 978 m 585 1328 q 714 1198 633 1263 q 886 1089 794 1133 l 879 1068 q 691 1107 783 1083 q 544 1153 599 1131 q 422 1107 499 1131 q 265 1068 344 1083 l 258 1089 q 428 1197 349 1132 q 560 1328 508 1261 l 585 1328 m 443 1608 q 538 1594 499 1608 q 608 1563 576 1581 q 672 1531 639 1544 q 750 1517 706 1517 q 821 1534 788 1517 q 885 1590 854 1551 l 904 1581 q 820 1417 876 1467 q 699 1368 764 1368 q 603 1382 643 1368 q 533 1415 564 1396 q 468 1447 501 1433 q 390 1461 435 1461 q 319 1444 353 1461 q 256 1386 286 1426 l 236 1396 q 321 1559 264 1510 q 443 1608 378 1608 z "},"Ö":{"ha":1149,"x_min":50,"x_max":1099,"o":"m 575 1003 q 850 943 732 1003 q 1033 772 968 883 q 1099 500 1099 660 q 1032 228 1099 344 q 847 46 965 111 q 574 -19 728 -19 q 299 40 417 -19 q 115 213 181 100 q 50 483 50 325 q 117 756 50 639 q 303 938 185 872 q 575 1003 421 1003 m 569 978 q 449 915 500 978 q 369 743 397 853 q 342 489 342 633 q 374 233 342 342 q 460 65 406 124 q 579 6 514 6 q 700 68 649 6 q 779 241 751 131 q 807 494 807 351 q 775 751 807 643 q 689 919 743 860 q 569 978 635 978 m 751 1300 q 836 1264 800 1300 q 872 1179 872 1228 q 836 1094 872 1129 q 751 1058 800 1058 q 666 1094 701 1058 q 631 1179 631 1129 q 666 1264 631 1228 q 751 1300 701 1300 m 393 1300 q 478 1264 442 1300 q 514 1179 514 1228 q 478 1094 514 1129 q 393 1058 442 1058 q 308 1094 343 1058 q 272 1179 272 1129 q 308 1264 272 1228 q 393 1300 343 1300 z "},"Ọ":{"ha":1149,"x_min":50,"x_max":1099,"o":"m 575 1003 q 850 943 732 1003 q 1033 772 968 883 q 1099 500 1099 660 q 1032 228 1099 344 q 847 46 965 111 q 574 -19 728 -19 q 299 40 417 -19 q 115 213 181 100 q 50 483 50 325 q 117 756 50 639 q 303 938 185 872 q 575 1003 421 1003 m 569 978 q 449 915 500 978 q 369 743 397 853 q 342 489 342 633 q 374 233 342 342 q 460 65 406 124 q 579 6 514 6 q 700 68 649 6 q 779 241 751 131 q 807 494 807 351 q 775 751 807 643 q 689 919 743 860 q 569 978 635 978 m 574 -265 q 487 -240 518 -265 q 456 -165 456 -215 q 487 -90 456 -117 q 578 -62 518 -62 q 665 -87 635 -62 q 696 -162 696 -112 q 665 -238 696 -211 q 574 -265 633 -265 z "},"Ò":{"ha":1149,"x_min":50,"x_max":1099,"o":"m 575 1003 q 850 943 732 1003 q 1033 772 968 883 q 1099 500 1099 660 q 1032 228 1099 344 q 847 46 965 111 q 574 -19 728 -19 q 299 40 417 -19 q 115 213 181 100 q 50 483 50 325 q 117 756 50 639 q 303 938 185 872 q 575 1003 421 1003 m 569 978 q 449 915 500 978 q 369 743 397 853 q 342 489 342 633 q 374 233 342 342 q 460 65 406 124 q 579 6 514 6 q 700 68 649 6 q 779 241 751 131 q 807 494 807 351 q 775 751 807 643 q 689 919 743 860 q 569 978 635 978 m 446 1304 q 504 1260 481 1289 q 563 1188 528 1231 q 665 1089 599 1146 l 656 1072 q 521 1106 575 1097 q 429 1121 467 1115 q 360 1143 392 1126 q 313 1194 326 1160 q 315 1261 300 1228 q 375 1310 335 1301 q 446 1304 415 1319 z "},"Ỏ":{"ha":1149,"x_min":50,"x_max":1099,"o":"m 575 1003 q 850 943 732 1003 q 1033 772 968 883 q 1099 500 1099 660 q 1032 228 1099 344 q 847 46 965 111 q 574 -19 728 -19 q 299 40 417 -19 q 115 213 181 100 q 50 483 50 325 q 117 756 50 639 q 303 938 185 872 q 575 1003 421 1003 m 569 978 q 449 915 500 978 q 369 743 397 853 q 342 489 342 633 q 374 233 342 342 q 460 65 406 124 q 579 6 514 6 q 700 68 649 6 q 779 241 751 131 q 807 494 807 351 q 775 751 807 643 q 689 919 743 860 q 569 978 635 978 m 544 1054 l 544 1131 q 617 1184 599 1156 q 636 1242 636 1213 q 603 1308 636 1288 q 526 1329 571 1329 q 485 1324 501 1329 q 463 1314 468 1319 q 514 1284 496 1304 q 532 1232 532 1264 q 508 1174 532 1196 q 447 1153 483 1153 q 388 1176 410 1153 q 365 1233 365 1199 q 383 1290 365 1268 q 422 1325 401 1313 q 486 1349 450 1342 q 569 1357 522 1357 q 683 1344 633 1357 q 760 1306 732 1331 q 788 1249 788 1282 q 758 1188 788 1214 q 678 1144 728 1161 q 572 1118 629 1128 l 572 1054 l 544 1054 z "},"Ơ":{"ha":1149,"x_min":50,"x_max":1103,"o":"m 731 971 q 873 975 814 967 q 983 1000 932 983 l 979 988 q 915 1034 944 1003 q 885 1111 885 1065 q 917 1188 885 1160 q 992 1217 949 1217 q 1069 1187 1036 1217 q 1103 1103 1103 1157 q 1082 1033 1103 1064 q 1017 982 1061 1001 q 918 953 982 967 q 765 942 854 940 l 731 971 m 575 1003 q 850 943 732 1003 q 1033 772 968 883 q 1099 500 1099 660 q 1032 228 1099 344 q 847 46 965 111 q 574 -19 728 -19 q 299 40 417 -19 q 115 213 181 100 q 50 483 50 325 q 117 756 50 639 q 303 938 185 872 q 575 1003 421 1003 m 569 978 q 449 915 500 978 q 369 743 397 853 q 342 489 342 633 q 374 233 342 342 q 460 65 406 124 q 579 6 514 6 q 700 68 649 6 q 779 241 751 131 q 807 494 807 351 q 775 751 807 643 q 689 919 743 860 q 569 978 635 978 z "},"Ớ":{"ha":1149,"x_min":50,"x_max":1103,"o":"m 731 971 q 873 975 814 967 q 983 1000 932 983 l 979 988 q 915 1034 944 1003 q 885 1111 885 1065 q 917 1188 885 1160 q 992 1217 949 1217 q 1069 1187 1036 1217 q 1103 1103 1103 1157 q 1082 1033 1103 1064 q 1017 982 1061 1001 q 918 953 982 967 q 765 942 854 940 l 731 971 m 575 1003 q 850 943 732 1003 q 1033 772 968 883 q 1099 500 1099 660 q 1032 228 1099 344 q 847 46 965 111 q 574 -19 728 -19 q 299 40 417 -19 q 115 213 181 100 q 50 483 50 325 q 117 756 50 639 q 303 938 185 872 q 575 1003 421 1003 m 569 978 q 449 915 500 978 q 369 743 397 853 q 342 489 342 633 q 374 233 342 342 q 460 65 406 124 q 579 6 514 6 q 700 68 649 6 q 779 241 751 131 q 807 494 807 351 q 775 751 807 643 q 689 919 743 860 q 569 978 635 978 m 679 1304 q 751 1310 710 1319 q 810 1261 792 1301 q 812 1194 825 1228 q 765 1143 799 1160 q 696 1121 733 1126 q 605 1106 658 1115 q 469 1072 551 1097 l 460 1089 q 563 1188 528 1146 q 622 1260 597 1231 q 679 1304 646 1289 z "},"Ợ":{"ha":1149,"x_min":50,"x_max":1103,"o":"m 731 971 q 873 975 814 967 q 983 1000 932 983 l 979 988 q 915 1034 944 1003 q 885 1111 885 1065 q 917 1188 885 1160 q 992 1217 949 1217 q 1069 1187 1036 1217 q 1103 1103 1103 1157 q 1082 1033 1103 1064 q 1017 982 1061 1001 q 918 953 982 967 q 765 942 854 940 l 731 971 m 575 1003 q 850 943 732 1003 q 1033 772 968 883 q 1099 500 1099 660 q 1032 228 1099 344 q 847 46 965 111 q 574 -19 728 -19 q 299 40 417 -19 q 115 213 181 100 q 50 483 50 325 q 117 756 50 639 q 303 938 185 872 q 575 1003 421 1003 m 569 978 q 449 915 500 978 q 369 743 397 853 q 342 489 342 633 q 374 233 342 342 q 460 65 406 124 q 579 6 514 6 q 700 68 649 6 q 779 241 751 131 q 807 494 807 351 q 775 751 807 643 q 689 919 743 860 q 569 978 635 978 m 574 -265 q 487 -240 518 -265 q 456 -165 456 -215 q 487 -90 456 -117 q 578 -62 518 -62 q 665 -87 635 -62 q 696 -162 696 -112 q 665 -238 696 -211 q 574 -265 633 -265 z "},"Ờ":{"ha":1149,"x_min":50,"x_max":1103,"o":"m 731 971 q 873 975 814 967 q 983 1000 932 983 l 979 988 q 915 1034 944 1003 q 885 1111 885 1065 q 917 1188 885 1160 q 992 1217 949 1217 q 1069 1187 1036 1217 q 1103 1103 1103 1157 q 1082 1033 1103 1064 q 1017 982 1061 1001 q 918 953 982 967 q 765 942 854 940 l 731 971 m 575 1003 q 850 943 732 1003 q 1033 772 968 883 q 1099 500 1099 660 q 1032 228 1099 344 q 847 46 965 111 q 574 -19 728 -19 q 299 40 417 -19 q 115 213 181 100 q 50 483 50 325 q 117 756 50 639 q 303 938 185 872 q 575 1003 421 1003 m 569 978 q 449 915 500 978 q 369 743 397 853 q 342 489 342 633 q 374 233 342 342 q 460 65 406 124 q 579 6 514 6 q 700 68 649 6 q 779 241 751 131 q 807 494 807 351 q 775 751 807 643 q 689 919 743 860 q 569 978 635 978 m 446 1304 q 504 1260 481 1289 q 563 1188 528 1231 q 665 1089 599 1146 l 656 1072 q 521 1106 575 1097 q 429 1121 467 1115 q 360 1143 392 1126 q 313 1194 326 1160 q 315 1261 300 1228 q 375 1310 335 1301 q 446 1304 415 1319 z "},"Ở":{"ha":1149,"x_min":50,"x_max":1103,"o":"m 731 971 q 873 975 814 967 q 983 1000 932 983 l 979 988 q 915 1034 944 1003 q 885 1111 885 1065 q 917 1188 885 1160 q 992 1217 949 1217 q 1069 1187 1036 1217 q 1103 1103 1103 1157 q 1082 1033 1103 1064 q 1017 982 1061 1001 q 918 953 982 967 q 765 942 854 940 l 731 971 m 575 1003 q 850 943 732 1003 q 1033 772 968 883 q 1099 500 1099 660 q 1032 228 1099 344 q 847 46 965 111 q 574 -19 728 -19 q 299 40 417 -19 q 115 213 181 100 q 50 483 50 325 q 117 756 50 639 q 303 938 185 872 q 575 1003 421 1003 m 569 978 q 449 915 500 978 q 369 743 397 853 q 342 489 342 633 q 374 233 342 342 q 460 65 406 124 q 579 6 514 6 q 700 68 649 6 q 779 241 751 131 q 807 494 807 351 q 775 751 807 643 q 689 919 743 860 q 569 978 635 978 m 544 1054 l 544 1131 q 617 1184 599 1156 q 636 1242 636 1213 q 603 1308 636 1288 q 526 1329 571 1329 q 485 1324 501 1329 q 463 1314 468 1319 q 514 1284 496 1304 q 532 1232 532 1264 q 508 1174 532 1196 q 447 1153 483 1153 q 388 1176 410 1153 q 365 1233 365 1199 q 383 1290 365 1268 q 422 1325 401 1313 q 486 1349 450 1342 q 569 1357 522 1357 q 683 1344 633 1357 q 760 1306 732 1331 q 788 1249 788 1282 q 758 1188 788 1214 q 678 1144 728 1161 q 572 1118 629 1128 l 572 1054 l 544 1054 z "},"Ỡ":{"ha":1149,"x_min":50,"x_max":1103,"o":"m 731 971 q 873 975 814 967 q 983 1000 932 983 l 979 988 q 915 1034 944 1003 q 885 1111 885 1065 q 917 1188 885 1160 q 992 1217 949 1217 q 1069 1187 1036 1217 q 1103 1103 1103 1157 q 1082 1033 1103 1064 q 1017 982 1061 1001 q 918 953 982 967 q 765 942 854 940 l 731 971 m 575 1003 q 850 943 732 1003 q 1033 772 968 883 q 1099 500 1099 660 q 1032 228 1099 344 q 847 46 965 111 q 574 -19 728 -19 q 299 40 417 -19 q 115 213 181 100 q 50 483 50 325 q 117 756 50 639 q 303 938 185 872 q 575 1003 421 1003 m 569 978 q 449 915 500 978 q 369 743 397 853 q 342 489 342 633 q 374 233 342 342 q 460 65 406 124 q 579 6 514 6 q 700 68 649 6 q 779 241 751 131 q 807 494 807 351 q 775 751 807 643 q 689 919 743 860 q 569 978 635 978 m 443 1303 q 538 1289 499 1303 q 608 1257 576 1275 q 672 1225 639 1239 q 750 1211 706 1211 q 821 1228 788 1211 q 885 1285 854 1246 l 904 1275 q 820 1112 876 1161 q 699 1063 764 1063 q 603 1076 643 1063 q 533 1109 564 1090 q 468 1142 501 1128 q 390 1156 435 1156 q 319 1138 353 1156 q 256 1081 286 1121 l 236 1090 q 321 1253 264 1204 q 443 1303 378 1303 z "},"Ő":{"ha":1149,"x_min":50,"x_max":1099,"o":"m 575 1003 q 850 943 732 1003 q 1033 772 968 883 q 1099 500 1099 660 q 1032 228 1099 344 q 847 46 965 111 q 574 -19 728 -19 q 299 40 417 -19 q 115 213 181 100 q 50 483 50 325 q 117 756 50 639 q 303 938 185 872 q 575 1003 421 1003 m 569 978 q 449 915 500 978 q 369 743 397 853 q 342 489 342 633 q 374 233 342 342 q 460 65 406 124 q 579 6 514 6 q 700 68 649 6 q 779 241 751 131 q 807 494 807 351 q 775 751 807 643 q 689 919 743 860 q 569 978 635 978 m 815 1310 q 887 1325 847 1332 q 949 1283 926 1318 q 962 1216 971 1250 q 919 1160 953 1182 q 862 1134 896 1144 q 781 1111 828 1124 q 667 1072 733 1099 l 653 1088 q 726 1188 700 1144 q 772 1261 753 1231 q 815 1310 792 1292 m 500 1310 q 572 1325 532 1332 q 633 1283 611 1318 q 647 1216 656 1250 q 604 1160 638 1182 q 547 1134 581 1144 q 465 1111 513 1124 q 351 1072 418 1099 l 338 1088 q 411 1188 385 1144 q 457 1261 438 1231 q 500 1310 476 1292 z "},"Ō":{"ha":1149,"x_min":50,"x_max":1099,"o":"m 575 1003 q 850 943 732 1003 q 1033 772 968 883 q 1099 500 1099 660 q 1032 228 1099 344 q 847 46 965 111 q 574 -19 728 -19 q 299 40 417 -19 q 115 213 181 100 q 50 483 50 325 q 117 756 50 639 q 303 938 185 872 q 575 1003 421 1003 m 569 978 q 449 915 500 978 q 369 743 397 853 q 342 489 342 633 q 374 233 342 342 q 460 65 406 124 q 579 6 514 6 q 700 68 649 6 q 779 241 751 131 q 807 494 807 351 q 775 751 807 643 q 689 919 743 860 q 569 978 635 978 m 872 1172 l 872 1138 l 272 1138 l 272 1172 l 872 1172 z "},"Ø":{"ha":1149,"x_min":50,"x_max":1099,"o":"m 575 1003 q 850 943 732 1003 q 1033 772 968 883 q 1099 500 1099 660 q 1032 228 1099 344 q 847 46 965 111 q 574 -19 728 -19 q 299 40 417 -19 q 115 213 181 100 q 50 483 50 325 q 117 756 50 639 q 303 938 185 872 q 575 1003 421 1003 m 569 978 q 449 915 500 978 q 369 743 397 853 q 342 489 342 633 q 374 233 342 342 q 460 65 406 124 q 579 6 514 6 q 700 68 649 6 q 779 241 751 131 q 807 494 807 351 q 775 751 807 643 q 689 919 743 860 q 569 978 635 978 m 794 889 l 815 861 l 346 104 l 321 129 l 794 889 m 300 129 l 325 104 l 167 -115 l 138 -96 l 300 129 m 939 1088 l 965 1069 l 825 861 l 804 889 l 939 1088 z "},"Ǿ":{"ha":1149,"x_min":50,"x_max":1099,"o":"m 575 1003 q 850 943 732 1003 q 1033 772 968 883 q 1099 500 1099 660 q 1032 228 1099 344 q 847 46 965 111 q 574 -19 728 -19 q 299 40 417 -19 q 115 213 181 100 q 50 483 50 325 q 117 756 50 639 q 303 938 185 872 q 575 1003 421 1003 m 569 978 q 449 915 500 978 q 369 743 397 853 q 342 489 342 633 q 374 233 342 342 q 460 65 406 124 q 579 6 514 6 q 700 68 649 6 q 779 241 751 131 q 807 494 807 351 q 775 751 807 643 q 689 919 743 860 q 569 978 635 978 m 794 889 l 815 861 l 346 104 l 321 129 l 794 889 m 300 129 l 325 104 l 167 -115 l 138 -96 l 300 129 m 939 1088 l 965 1069 l 825 861 l 804 889 l 939 1088 m 679 1304 q 751 1310 710 1319 q 810 1261 792 1301 q 812 1194 825 1228 q 765 1143 799 1160 q 696 1121 733 1126 q 605 1106 658 1115 q 469 1072 551 1097 l 460 1089 q 563 1188 528 1146 q 622 1260 597 1231 q 679 1304 646 1289 z "},"Õ":{"ha":1149,"x_min":50,"x_max":1099,"o":"m 575 1003 q 850 943 732 1003 q 1033 772 968 883 q 1099 500 1099 660 q 1032 228 1099 344 q 847 46 965 111 q 574 -19 728 -19 q 299 40 417 -19 q 115 213 181 100 q 50 483 50 325 q 117 756 50 639 q 303 938 185 872 q 575 1003 421 1003 m 569 978 q 449 915 500 978 q 369 743 397 853 q 342 489 342 633 q 374 233 342 342 q 460 65 406 124 q 579 6 514 6 q 700 68 649 6 q 779 241 751 131 q 807 494 807 351 q 775 751 807 643 q 689 919 743 860 q 569 978 635 978 m 443 1303 q 538 1289 499 1303 q 608 1257 576 1275 q 672 1225 639 1239 q 750 1211 706 1211 q 821 1228 788 1211 q 885 1285 854 1246 l 904 1275 q 820 1112 876 1161 q 699 1063 764 1063 q 603 1076 643 1063 q 533 1109 564 1090 q 468 1142 501 1128 q 390 1156 435 1156 q 319 1138 353 1156 q 256 1081 286 1121 l 236 1090 q 321 1253 264 1204 q 443 1303 378 1303 z "},"Œ":{"ha":1444,"x_min":50,"x_max":1385,"o":"m 561 1003 q 624 997 593 1003 q 682 981 654 992 q 830 980 757 981 q 965 979 903 979 q 1067 979 1026 979 q 1212 980 1131 979 q 1357 983 1293 981 q 1349 865 1351 922 q 1347 778 1347 808 q 1349 722 1347 749 q 1351 678 1350 696 l 1319 678 q 1274 842 1306 782 q 1203 926 1243 901 q 1119 951 1163 951 l 1101 951 q 1040 944 1061 951 q 1010 912 1018 936 q 1003 836 1003 888 l 1003 147 q 1010 72 1003 97 q 1040 40 1018 47 q 1101 32 1061 32 l 1147 32 q 1224 60 1182 32 q 1300 153 1265 88 q 1347 333 1335 219 l 1379 333 q 1375 206 1375 283 q 1376 118 1375 175 q 1385 0 1378 61 q 1225 3 1314 3 q 1067 4 1136 4 q 965 4 1026 4 q 829 4 903 4 q 682 3 756 4 q 624 -13 656 -7 q 560 -19 592 -19 q 292 40 407 -19 q 114 213 178 100 q 50 483 50 325 q 115 756 50 639 q 296 938 181 872 q 561 1003 411 1003 m 556 978 q 442 915 490 978 q 368 743 394 853 q 342 489 342 633 q 372 233 342 342 q 453 65 401 124 q 565 6 504 6 q 633 17 597 6 q 695 54 669 29 q 721 119 721 79 l 721 850 q 692 931 721 904 q 624 968 663 958 q 556 978 585 978 m 1183 508 l 1183 481 l 961 481 l 961 508 l 1183 508 m 1224 678 q 1219 565 1218 604 q 1219 494 1219 526 q 1221 424 1219 463 q 1228 311 1222 385 l 1196 311 q 1175 392 1189 353 q 1134 456 1161 431 q 1058 481 1107 481 l 1058 508 q 1118 526 1094 508 q 1156 570 1142 543 q 1178 626 1169 597 q 1192 678 1186 656 l 1224 678 z "},"P":{"ha":942,"x_min":39,"x_max":919,"o":"m 39 983 q 145 981 79 982 q 278 979 211 979 q 411 981 347 979 q 501 982 475 982 q 816 906 713 982 q 919 708 919 829 q 899 603 919 658 q 828 502 878 549 q 691 426 778 456 q 471 397 604 397 l 324 397 l 324 425 l 457 425 q 565 463 528 425 q 615 561 601 500 q 628 693 628 622 q 598 890 628 825 q 494 956 568 956 q 433 932 447 956 q 419 836 419 908 l 419 161 q 431 76 419 104 q 476 40 443 49 q 574 32 510 32 l 574 0 q 450 3 526 1 q 288 4 374 4 q 160 3 224 4 q 39 0 96 1 l 39 28 q 103 39 82 31 q 131 72 124 47 q 138 147 138 97 l 138 836 q 131 912 138 888 q 102 945 124 936 q 39 956 81 954 l 39 983 z "},"Þ":{"ha":900,"x_min":39,"x_max":882,"o":"m 464 796 q 698 767 606 796 q 836 681 790 739 q 882 532 882 622 q 861 412 882 469 q 790 309 840 354 q 653 238 740 264 q 433 211 567 211 l 300 211 q 300 225 300 211 q 300 239 300 239 l 419 239 q 527 277 490 239 q 577 379 564 315 q 590 517 590 443 q 555 705 590 640 q 429 769 519 769 q 366 769 400 769 q 302 767 332 768 q 257 767 272 767 l 254 793 q 379 794 319 793 q 464 796 439 796 m 518 983 l 518 956 q 455 945 476 954 q 426 912 433 936 q 419 836 419 888 l 419 147 q 427 72 419 97 q 456 39 435 47 q 518 28 476 31 l 518 0 q 415 3 478 3 q 286 4 351 4 q 145 3 211 4 q 39 0 79 3 l 39 28 q 103 39 82 31 q 131 72 124 47 q 138 147 138 97 l 138 836 q 131 912 138 888 q 102 945 124 936 q 39 956 81 954 l 39 983 q 145 981 79 982 q 286 979 211 979 q 415 981 351 979 q 518 983 478 982 z "},"Q":{"ha":1149,"x_min":50,"x_max":1103,"o":"m 1076 50 l 1103 43 q 1071 -112 1096 -46 q 1001 -212 1046 -179 q 924 -249 971 -236 q 828 -261 876 -261 q 674 -238 750 -261 q 523 -181 599 -215 q 367 -114 447 -147 q 349 -108 358 -111 q 333 -104 339 -104 q 276 -129 307 -119 q 217 -139 244 -139 q 170 -129 189 -139 q 151 -97 151 -119 q 228 -54 151 -54 q 333 -79 276 -54 q 424 -48 386 -65 q 503 -15 463 -31 q 600 4 543 0 l 601 -18 q 524 -34 557 -22 q 459 -60 492 -46 q 382 -86 426 -74 q 588 -91 501 -89 q 744 -89 675 -93 q 875 -72 813 -85 q 997 -29 951 -56 q 1076 50 1042 -3 m 575 1003 q 850 943 732 1003 q 1033 772 968 883 q 1099 500 1099 660 q 1032 228 1099 344 q 847 46 965 111 q 574 -19 728 -19 q 299 40 417 -19 q 115 213 181 100 q 50 483 50 325 q 117 756 50 639 q 303 938 185 872 q 575 1003 421 1003 m 569 978 q 449 915 500 978 q 369 743 397 853 q 342 489 342 633 q 374 233 342 342 q 460 65 406 124 q 579 6 514 6 q 700 68 649 6 q 779 241 751 131 q 807 494 807 351 q 775 751 807 643 q 689 919 743 860 q 569 978 635 978 z "},"R":{"ha":1001,"x_min":39,"x_max":1036,"o":"m 39 983 q 145 981 79 982 q 278 979 211 979 q 411 981 347 979 q 501 982 475 982 q 735 956 643 982 q 874 876 828 929 q 919 740 919 822 q 899 640 919 689 q 828 552 878 592 q 691 490 778 513 q 471 467 604 467 l 338 467 l 338 494 l 457 494 q 565 526 528 494 q 615 609 601 557 q 628 725 628 661 q 598 895 628 835 q 494 956 568 956 q 433 932 447 956 q 419 836 419 908 l 419 147 q 427 72 419 97 q 456 39 435 47 q 518 28 476 31 l 518 0 q 415 3 478 3 q 286 4 351 4 q 145 3 211 4 q 39 0 79 3 l 39 28 q 103 39 82 31 q 131 72 124 47 q 138 147 138 97 l 138 836 q 131 912 138 888 q 102 945 124 936 q 39 956 81 954 l 39 983 m 329 490 q 424 485 379 489 q 506 477 468 481 q 569 472 543 474 q 792 421 718 465 q 883 290 867 376 l 913 146 q 938 75 924 94 q 975 56 951 56 q 999 60 989 56 q 1018 74 1008 64 l 1036 56 q 942 -3 993 13 q 828 -19 892 -19 q 682 13 738 -19 q 614 131 626 46 l 593 269 q 572 371 585 326 q 539 441 560 415 q 482 467 518 467 l 332 467 l 329 490 z "},"Ŕ":{"ha":1001,"x_min":39,"x_max":1036,"o":"m 39 983 q 145 981 79 982 q 278 979 211 979 q 411 981 347 979 q 501 982 475 982 q 735 956 643 982 q 874 876 828 929 q 919 740 919 822 q 899 640 919 689 q 828 552 878 592 q 691 490 778 513 q 471 467 604 467 l 338 467 l 338 494 l 457 494 q 565 526 528 494 q 615 609 601 557 q 628 725 628 661 q 598 895 628 835 q 494 956 568 956 q 433 932 447 956 q 419 836 419 908 l 419 147 q 427 72 419 97 q 456 39 435 47 q 518 28 476 31 l 518 0 q 415 3 478 3 q 286 4 351 4 q 145 3 211 4 q 39 0 79 3 l 39 28 q 103 39 82 31 q 131 72 124 47 q 138 147 138 97 l 138 836 q 131 912 138 888 q 102 945 124 936 q 39 956 81 954 l 39 983 m 329 490 q 424 485 379 489 q 506 477 468 481 q 569 472 543 474 q 792 421 718 465 q 883 290 867 376 l 913 146 q 938 75 924 94 q 975 56 951 56 q 999 60 989 56 q 1018 74 1008 64 l 1036 56 q 942 -3 993 13 q 828 -19 892 -19 q 682 13 738 -19 q 614 131 626 46 l 593 269 q 572 371 585 326 q 539 441 560 415 q 482 467 518 467 l 332 467 l 329 490 m 582 1304 q 653 1310 613 1319 q 713 1261 694 1301 q 715 1194 728 1228 q 668 1143 701 1160 q 599 1121 636 1126 q 508 1106 561 1115 q 372 1072 454 1097 l 363 1089 q 465 1188 431 1146 q 524 1260 500 1231 q 582 1304 549 1289 z "},"Ř":{"ha":1001,"x_min":39,"x_max":1036,"o":"m 39 983 q 145 981 79 982 q 278 979 211 979 q 411 981 347 979 q 501 982 475 982 q 735 956 643 982 q 874 876 828 929 q 919 740 919 822 q 899 640 919 689 q 828 552 878 592 q 691 490 778 513 q 471 467 604 467 l 338 467 l 338 494 l 457 494 q 565 526 528 494 q 615 609 601 557 q 628 725 628 661 q 598 895 628 835 q 494 956 568 956 q 433 932 447 956 q 419 836 419 908 l 419 147 q 427 72 419 97 q 456 39 435 47 q 518 28 476 31 l 518 0 q 415 3 478 3 q 286 4 351 4 q 145 3 211 4 q 39 0 79 3 l 39 28 q 103 39 82 31 q 131 72 124 47 q 138 147 138 97 l 138 836 q 131 912 138 888 q 102 945 124 936 q 39 956 81 954 l 39 983 m 329 490 q 424 485 379 489 q 506 477 468 481 q 569 472 543 474 q 792 421 718 465 q 883 290 867 376 l 913 146 q 938 75 924 94 q 975 56 951 56 q 999 60 989 56 q 1018 74 1008 64 l 1036 56 q 942 -3 993 13 q 828 -19 892 -19 q 682 13 738 -19 q 614 131 626 46 l 593 269 q 572 371 585 326 q 539 441 560 415 q 482 467 518 467 l 332 467 l 329 490 m 778 1314 l 785 1293 q 615 1185 694 1250 q 483 1054 535 1121 l 458 1054 q 329 1185 410 1119 q 157 1293 249 1250 l 164 1314 q 352 1276 260 1300 q 499 1229 444 1253 q 622 1276 544 1253 q 778 1314 699 1300 z "},"Ŗ":{"ha":1001,"x_min":39,"x_max":1036,"o":"m 39 983 q 145 981 79 982 q 278 979 211 979 q 411 981 347 979 q 501 982 475 982 q 735 956 643 982 q 874 876 828 929 q 919 740 919 822 q 899 640 919 689 q 828 552 878 592 q 691 490 778 513 q 471 467 604 467 l 338 467 l 338 494 l 457 494 q 565 526 528 494 q 615 609 601 557 q 628 725 628 661 q 598 895 628 835 q 494 956 568 956 q 433 932 447 956 q 419 836 419 908 l 419 147 q 427 72 419 97 q 456 39 435 47 q 518 28 476 31 l 518 0 q 415 3 478 3 q 286 4 351 4 q 145 3 211 4 q 39 0 79 3 l 39 28 q 103 39 82 31 q 131 72 124 47 q 138 147 138 97 l 138 836 q 131 912 138 888 q 102 945 124 936 q 39 956 81 954 l 39 983 m 329 490 q 424 485 379 489 q 506 477 468 481 q 569 472 543 474 q 792 421 718 465 q 883 290 867 376 l 913 146 q 938 75 924 94 q 975 56 951 56 q 999 60 989 56 q 1018 74 1008 64 l 1036 56 q 942 -3 993 13 q 828 -19 892 -19 q 682 13 738 -19 q 614 131 626 46 l 593 269 q 572 371 585 326 q 539 441 560 415 q 482 467 518 467 l 332 467 l 329 490 m 529 -62 q 622 -91 585 -62 q 658 -176 658 -119 q 611 -291 658 -246 q 471 -339 564 -336 l 468 -308 q 558 -285 528 -301 q 596 -239 588 -269 q 569 -254 586 -249 q 522 -260 551 -260 q 436 -235 467 -260 q 406 -164 406 -211 q 438 -89 406 -115 q 529 -62 469 -62 z "},"S":{"ha":851,"x_min":68,"x_max":801,"o":"m 419 1003 q 560 985 510 1003 q 644 947 610 967 q 672 933 661 938 q 692 928 682 928 q 712 943 706 928 q 722 989 718 958 l 754 989 q 751 921 753 960 q 748 818 749 882 q 747 650 747 754 l 715 650 q 680 799 710 726 q 598 918 650 871 q 474 965 546 965 q 372 932 413 965 q 332 836 332 899 q 357 748 332 785 q 435 671 382 711 q 576 569 489 631 q 690 483 639 526 q 771 386 740 440 q 801 256 801 332 q 749 101 801 163 q 611 10 697 40 q 424 -19 525 -19 q 273 -3 329 -19 q 178 32 217 14 q 131 51 147 51 q 110 36 117 51 q 100 -10 104 21 l 68 -10 q 72 74 71 26 q 73 199 72 122 q 74 393 74 275 l 106 393 q 137 211 111 296 q 216 74 163 126 q 358 22 269 22 q 447 38 410 22 q 504 85 483 54 q 525 158 525 115 q 499 260 525 217 q 427 342 472 304 q 322 419 382 381 q 200 508 257 464 q 109 608 143 553 q 75 740 75 664 q 124 890 75 832 q 251 975 172 947 q 419 1003 331 1003 z "},"Ś":{"ha":851,"x_min":68,"x_max":801,"o":"m 419 1003 q 560 985 510 1003 q 644 947 610 967 q 672 933 661 938 q 692 928 682 928 q 712 943 706 928 q 722 989 718 958 l 754 989 q 751 921 753 960 q 748 818 749 882 q 747 650 747 754 l 715 650 q 680 799 710 726 q 598 918 650 871 q 474 965 546 965 q 372 932 413 965 q 332 836 332 899 q 357 748 332 785 q 435 671 382 711 q 576 569 489 631 q 690 483 639 526 q 771 386 740 440 q 801 256 801 332 q 749 101 801 163 q 611 10 697 40 q 424 -19 525 -19 q 273 -3 329 -19 q 178 32 217 14 q 131 51 147 51 q 110 36 117 51 q 100 -10 104 21 l 68 -10 q 72 74 71 26 q 73 199 72 122 q 74 393 74 275 l 106 393 q 137 211 111 296 q 216 74 163 126 q 358 22 269 22 q 447 38 410 22 q 504 85 483 54 q 525 158 525 115 q 499 260 525 217 q 427 342 472 304 q 322 419 382 381 q 200 508 257 464 q 109 608 143 553 q 75 740 75 664 q 124 890 75 832 q 251 975 172 947 q 419 1003 331 1003 m 542 1304 q 613 1310 572 1319 q 672 1261 654 1301 q 674 1194 688 1228 q 628 1143 661 1160 q 558 1121 596 1126 q 467 1106 521 1115 q 332 1072 414 1097 l 322 1089 q 425 1188 390 1146 q 484 1260 460 1231 q 542 1304 508 1289 z "},"Š":{"ha":851,"x_min":68,"x_max":801,"o":"m 419 1003 q 560 985 510 1003 q 644 947 610 967 q 672 933 661 938 q 692 928 682 928 q 712 943 706 928 q 722 989 718 958 l 754 989 q 751 921 753 960 q 748 818 749 882 q 747 650 747 754 l 715 650 q 680 799 710 726 q 598 918 650 871 q 474 965 546 965 q 372 932 413 965 q 332 836 332 899 q 357 748 332 785 q 435 671 382 711 q 576 569 489 631 q 690 483 639 526 q 771 386 740 440 q 801 256 801 332 q 749 101 801 163 q 611 10 697 40 q 424 -19 525 -19 q 273 -3 329 -19 q 178 32 217 14 q 131 51 147 51 q 110 36 117 51 q 100 -10 104 21 l 68 -10 q 72 74 71 26 q 73 199 72 122 q 74 393 74 275 l 106 393 q 137 211 111 296 q 216 74 163 126 q 358 22 269 22 q 447 38 410 22 q 504 85 483 54 q 525 158 525 115 q 499 260 525 217 q 427 342 472 304 q 322 419 382 381 q 200 508 257 464 q 109 608 143 553 q 75 740 75 664 q 124 890 75 832 q 251 975 172 947 q 419 1003 331 1003 m 738 1314 l 744 1293 q 574 1185 654 1250 q 443 1054 494 1121 l 418 1054 q 289 1185 369 1119 q 117 1293 208 1250 l 124 1314 q 312 1276 219 1300 q 458 1229 404 1253 q 581 1276 504 1253 q 738 1314 658 1300 z "},"Ş":{"ha":851,"x_min":68,"x_max":801,"o":"m 419 1003 q 560 985 510 1003 q 644 947 610 967 q 672 933 661 938 q 692 928 682 928 q 712 943 706 928 q 722 989 718 958 l 754 989 q 751 921 753 960 q 748 818 749 882 q 747 650 747 754 l 715 650 q 680 799 710 726 q 598 918 650 871 q 474 965 546 965 q 372 932 413 965 q 332 836 332 899 q 357 748 332 785 q 435 671 382 711 q 576 569 489 631 q 690 483 639 526 q 771 386 740 440 q 801 256 801 332 q 749 101 801 163 q 611 10 697 40 q 424 -19 525 -19 q 273 -3 329 -19 q 178 32 217 14 q 131 51 147 51 q 110 36 117 51 q 100 -10 104 21 l 68 -10 q 72 74 71 26 q 73 199 72 122 q 74 393 74 275 l 106 393 q 137 211 111 296 q 216 74 163 126 q 358 22 269 22 q 447 38 410 22 q 504 85 483 54 q 525 158 525 115 q 499 260 525 217 q 427 342 472 304 q 322 419 382 381 q 200 508 257 464 q 109 608 143 553 q 75 740 75 664 q 124 890 75 832 q 251 975 172 947 q 419 1003 331 1003 m 439 7 l 413 -83 q 471 -67 440 -72 q 536 -62 501 -62 q 624 -85 596 -62 q 653 -143 653 -108 q 619 -210 653 -183 q 526 -249 585 -236 q 392 -261 468 -261 q 314 -256 350 -261 q 253 -243 278 -251 l 261 -218 q 294 -222 272 -219 q 342 -225 317 -225 q 401 -219 372 -225 q 450 -202 431 -214 q 469 -172 469 -190 q 451 -145 469 -153 q 403 -137 433 -137 q 379 -140 392 -137 q 357 -147 367 -142 l 401 7 l 439 7 z "},"Ŝ":{"ha":851,"x_min":68,"x_max":801,"o":"m 419 1003 q 560 985 510 1003 q 644 947 610 967 q 672 933 661 938 q 692 928 682 928 q 712 943 706 928 q 722 989 718 958 l 754 989 q 751 921 753 960 q 748 818 749 882 q 747 650 747 754 l 715 650 q 680 799 710 726 q 598 918 650 871 q 474 965 546 965 q 372 932 413 965 q 332 836 332 899 q 357 748 332 785 q 435 671 382 711 q 576 569 489 631 q 690 483 639 526 q 771 386 740 440 q 801 256 801 332 q 749 101 801 163 q 611 10 697 40 q 424 -19 525 -19 q 273 -3 329 -19 q 178 32 217 14 q 131 51 147 51 q 110 36 117 51 q 100 -10 104 21 l 68 -10 q 72 74 71 26 q 73 199 72 122 q 74 393 74 275 l 106 393 q 137 211 111 296 q 216 74 163 126 q 358 22 269 22 q 447 38 410 22 q 504 85 483 54 q 525 158 525 115 q 499 260 525 217 q 427 342 472 304 q 322 419 382 381 q 200 508 257 464 q 109 608 143 553 q 75 740 75 664 q 124 890 75 832 q 251 975 172 947 q 419 1003 331 1003 m 447 1328 q 576 1198 496 1263 q 749 1089 657 1133 l 742 1068 q 553 1107 646 1083 q 407 1153 461 1131 q 284 1107 361 1131 q 128 1068 207 1083 l 121 1089 q 291 1197 211 1132 q 422 1328 371 1261 l 447 1328 z "},"Ș":{"ha":851,"x_min":68,"x_max":801,"o":"m 419 1003 q 560 985 510 1003 q 644 947 610 967 q 672 933 661 938 q 692 928 682 928 q 712 943 706 928 q 722 989 718 958 l 754 989 q 751 921 753 960 q 748 818 749 882 q 747 650 747 754 l 715 650 q 680 799 710 726 q 598 918 650 871 q 474 965 546 965 q 372 932 413 965 q 332 836 332 899 q 357 748 332 785 q 435 671 382 711 q 576 569 489 631 q 690 483 639 526 q 771 386 740 440 q 801 256 801 332 q 749 101 801 163 q 611 10 697 40 q 424 -19 525 -19 q 273 -3 329 -19 q 178 32 217 14 q 131 51 147 51 q 110 36 117 51 q 100 -10 104 21 l 68 -10 q 72 74 71 26 q 73 199 72 122 q 74 393 74 275 l 106 393 q 137 211 111 296 q 216 74 163 126 q 358 22 269 22 q 447 38 410 22 q 504 85 483 54 q 525 158 525 115 q 499 260 525 217 q 427 342 472 304 q 322 419 382 381 q 200 508 257 464 q 109 608 143 553 q 75 740 75 664 q 124 890 75 832 q 251 975 172 947 q 419 1003 331 1003 m 431 -62 q 523 -91 486 -62 q 560 -176 560 -119 q 513 -291 560 -246 q 372 -339 465 -336 l 369 -308 q 459 -285 429 -301 q 497 -239 489 -269 q 470 -254 488 -249 q 424 -260 453 -260 q 338 -235 368 -260 q 307 -164 307 -211 q 339 -89 307 -115 q 431 -62 371 -62 z "},"ẞ":{"ha":1119,"x_min":6,"x_max":1097,"o":"m 615 1003 q 854 969 747 1003 q 1035 890 961 936 l 772 558 q 960 490 889 532 q 1065 392 1032 447 q 1097 272 1097 338 q 1043 115 1097 181 q 899 15 989 50 q 701 -19 810 -19 q 609 -12 646 -19 q 540 8 572 -6 q 474 70 496 29 q 451 163 451 111 q 489 271 451 232 q 579 310 526 310 q 665 272 632 310 q 697 176 697 235 q 667 79 697 118 q 597 21 636 40 q 616 15 606 17 q 636 13 626 13 q 715 34 676 13 q 780 106 754 56 q 806 240 806 156 q 729 465 806 376 q 492 610 653 554 l 750 964 q 701 974 731 971 q 650 978 672 978 q 512 945 571 978 q 419 828 453 913 q 386 589 386 744 l 386 147 q 395 53 386 78 q 435 28 404 29 l 435 0 q 382 1 407 0 q 322 3 357 3 q 231 4 288 4 q 156 3 199 4 q 73 2 114 3 q 6 0 32 1 l 6 28 q 69 39 47 31 q 97 72 90 47 q 104 147 104 97 l 104 504 q 165 788 104 678 q 341 950 226 897 q 615 1003 456 1003 z "},"Ə":{"ha":1126,"x_min":49,"x_max":1076,"o":"m 557 -19 q 284 45 399 -19 q 109 228 169 110 q 50 508 49 346 l 864 508 l 867 482 l 338 482 q 353 242 326 349 q 437 74 379 136 q 572 13 494 13 q 692 66 644 13 q 765 217 740 119 q 789 446 789 314 q 750 731 789 617 q 638 903 711 846 q 463 961 565 961 q 265 876 338 961 q 178 636 193 792 l 146 636 q 144 853 146 775 q 140 983 143 932 l 172 983 q 192 909 179 924 q 235 913 204 894 q 292 946 254 924 q 394 986 331 968 q 556 1004 458 1004 q 835 943 718 1004 q 1014 769 951 882 q 1076 500 1076 656 q 1012 225 1076 342 q 831 44 947 108 q 557 -19 714 -19 z "},"T":{"ha":971,"x_min":32,"x_max":939,"o":"m 939 983 q 931 825 933 901 q 929 708 929 749 q 931 653 929 679 q 933 608 932 626 l 901 608 q 824 814 869 739 q 728 920 779 889 q 628 951 678 951 l 626 951 l 626 157 q 638 72 626 100 q 683 36 650 44 q 781 28 717 28 l 781 0 q 649 3 732 1 q 476 4 567 4 q 314 3 390 4 q 190 0 238 1 l 190 28 q 288 36 254 28 q 333 72 321 44 q 344 157 344 100 l 344 951 l 343 951 q 242 920 293 951 q 147 815 192 889 q 69 608 103 740 l 38 608 q 41 653 40 626 q 42 708 42 679 q 40 825 42 749 q 32 983 38 901 q 179 981 99 982 q 340 979 260 979 q 486 979 421 979 q 632 979 551 979 q 793 981 713 979 q 939 983 874 982 z "},"Ŧ":{"ha":971,"x_min":32,"x_max":939,"o":"m 794 506 l 794 478 l 178 478 l 178 506 l 794 506 m 939 983 q 931 825 933 901 q 929 708 929 749 q 931 653 929 679 q 933 608 932 626 l 901 608 q 824 814 869 739 q 728 920 779 889 q 628 951 678 951 l 626 951 l 626 157 q 638 72 626 100 q 683 36 650 44 q 781 28 717 28 l 781 0 q 649 3 732 1 q 476 4 567 4 q 314 3 390 4 q 190 0 238 1 l 190 28 q 288 36 254 28 q 333 72 321 44 q 344 157 344 100 l 344 951 l 343 951 q 242 920 293 951 q 147 815 192 889 q 69 608 103 740 l 38 608 q 41 653 40 626 q 42 708 42 679 q 40 825 42 749 q 32 983 38 901 q 179 981 99 982 q 340 979 260 979 q 486 979 421 979 q 632 979 551 979 q 793 981 713 979 q 939 983 874 982 z "},"Ť":{"ha":971,"x_min":32,"x_max":939,"o":"m 939 983 q 931 825 933 901 q 929 708 929 749 q 931 653 929 679 q 933 608 932 626 l 901 608 q 824 814 869 739 q 728 920 779 889 q 628 951 678 951 l 626 951 l 626 157 q 638 72 626 100 q 683 36 650 44 q 781 28 717 28 l 781 0 q 649 3 732 1 q 476 4 567 4 q 314 3 390 4 q 190 0 238 1 l 190 28 q 288 36 254 28 q 333 72 321 44 q 344 157 344 100 l 344 951 l 343 951 q 242 920 293 951 q 147 815 192 889 q 69 608 103 740 l 38 608 q 41 653 40 626 q 42 708 42 679 q 40 825 42 749 q 32 983 38 901 q 179 981 99 982 q 340 979 260 979 q 486 979 421 979 q 632 979 551 979 q 793 981 713 979 q 939 983 874 982 m 789 1314 l 796 1293 q 626 1185 706 1250 q 494 1054 546 1121 l 469 1054 q 340 1185 421 1119 q 168 1293 260 1250 l 175 1314 q 363 1276 271 1300 q 510 1229 456 1253 q 633 1276 556 1253 q 789 1314 710 1300 z "},"Ţ":{"ha":971,"x_min":32,"x_max":939,"o":"m 939 983 q 931 825 933 901 q 929 708 929 749 q 931 653 929 679 q 933 608 932 626 l 901 608 q 824 814 869 739 q 728 920 779 889 q 628 951 678 951 l 626 951 l 626 157 q 638 72 626 100 q 683 36 650 44 q 781 28 717 28 l 781 0 q 649 3 732 1 q 476 4 567 4 q 314 3 390 4 q 190 0 238 1 l 190 28 q 288 36 254 28 q 333 72 321 44 q 344 157 344 100 l 344 951 l 343 951 q 242 920 293 951 q 147 815 192 889 q 69 608 103 740 l 38 608 q 41 653 40 626 q 42 708 42 679 q 40 825 42 749 q 32 983 38 901 q 179 981 99 982 q 340 979 260 979 q 486 979 421 979 q 632 979 551 979 q 793 981 713 979 q 939 983 874 982 m 500 7 l 474 -83 q 532 -67 501 -72 q 597 -62 563 -62 q 685 -85 657 -62 q 714 -143 714 -108 q 680 -210 714 -183 q 588 -249 646 -236 q 453 -261 529 -261 q 375 -256 411 -261 q 314 -243 339 -251 l 322 -218 q 356 -222 333 -219 q 403 -225 378 -225 q 463 -219 433 -225 q 511 -202 492 -214 q 531 -172 531 -190 q 513 -145 531 -153 q 464 -137 494 -137 q 440 -140 453 -137 q 418 -147 428 -142 l 463 7 l 500 7 z "},"Ț":{"ha":971,"x_min":32,"x_max":939,"o":"m 939 983 q 931 825 933 901 q 929 708 929 749 q 931 653 929 679 q 933 608 932 626 l 901 608 q 824 814 869 739 q 728 920 779 889 q 628 951 678 951 l 626 951 l 626 157 q 638 72 626 100 q 683 36 650 44 q 781 28 717 28 l 781 0 q 649 3 732 1 q 476 4 567 4 q 314 3 390 4 q 190 0 238 1 l 190 28 q 288 36 254 28 q 333 72 321 44 q 344 157 344 100 l 344 951 l 343 951 q 242 920 293 951 q 147 815 192 889 q 69 608 103 740 l 38 608 q 41 653 40 626 q 42 708 42 679 q 40 825 42 749 q 32 983 38 901 q 179 981 99 982 q 340 979 260 979 q 486 979 421 979 q 632 979 551 979 q 793 981 713 979 q 939 983 874 982 m 478 -62 q 570 -91 533 -62 q 607 -176 607 -119 q 560 -291 607 -246 q 419 -339 513 -336 l 417 -308 q 506 -285 476 -301 q 544 -239 536 -269 q 517 -254 535 -249 q 471 -260 500 -260 q 385 -235 415 -260 q 354 -164 354 -211 q 386 -89 354 -115 q 478 -62 418 -62 z "},"U":{"ha":963,"x_min":18,"x_max":946,"o":"m 946 983 l 946 956 q 883 926 904 947 q 854 862 861 906 q 847 739 847 818 l 847 404 q 835 242 847 318 q 790 110 824 165 q 683 15 754 50 q 492 -19 611 -19 q 357 -6 428 -19 q 231 47 286 8 q 158 132 183 82 q 125 249 133 182 q 117 400 117 315 l 117 836 q 110 912 117 888 q 82 945 103 936 q 18 956 61 954 l 18 983 q 124 981 58 982 q 263 979 190 979 q 401 981 335 979 q 511 983 468 982 l 511 956 q 440 945 464 954 q 407 912 415 936 q 399 836 399 888 l 399 269 q 410 155 399 201 q 442 81 421 108 q 497 41 464 53 q 572 29 529 29 q 718 74 665 29 q 793 201 771 119 q 815 389 815 282 l 815 711 q 808 853 815 804 q 771 925 800 903 q 675 956 742 947 l 675 983 q 747 981 703 982 q 831 979 792 979 q 894 981 863 979 q 946 983 925 982 z "},"Ú":{"ha":963,"x_min":18,"x_max":946,"o":"m 946 983 l 946 956 q 883 926 904 947 q 854 862 861 906 q 847 739 847 818 l 847 404 q 835 242 847 318 q 790 110 824 165 q 683 15 754 50 q 492 -19 611 -19 q 357 -6 428 -19 q 231 47 286 8 q 158 132 183 82 q 125 249 133 182 q 117 400 117 315 l 117 836 q 110 912 117 888 q 82 945 103 936 q 18 956 61 954 l 18 983 q 124 981 58 982 q 263 979 190 979 q 401 981 335 979 q 511 983 468 982 l 511 956 q 440 945 464 954 q 407 912 415 936 q 399 836 399 888 l 399 269 q 410 155 399 201 q 442 81 421 108 q 497 41 464 53 q 572 29 529 29 q 718 74 665 29 q 793 201 771 119 q 815 389 815 282 l 815 711 q 808 853 815 804 q 771 925 800 903 q 675 956 742 947 l 675 983 q 747 981 703 982 q 831 979 792 979 q 894 981 863 979 q 946 983 925 982 m 608 1304 q 680 1310 639 1319 q 739 1261 721 1301 q 741 1194 754 1228 q 694 1143 728 1160 q 625 1121 663 1126 q 534 1106 588 1115 q 399 1072 481 1097 l 389 1089 q 492 1188 457 1146 q 551 1260 526 1231 q 608 1304 575 1289 z "},"Ŭ":{"ha":963,"x_min":18,"x_max":946,"o":"m 946 983 l 946 956 q 883 926 904 947 q 854 862 861 906 q 847 739 847 818 l 847 404 q 835 242 847 318 q 790 110 824 165 q 683 15 754 50 q 492 -19 611 -19 q 357 -6 428 -19 q 231 47 286 8 q 158 132 183 82 q 125 249 133 182 q 117 400 117 315 l 117 836 q 110 912 117 888 q 82 945 103 936 q 18 956 61 954 l 18 983 q 124 981 58 982 q 263 979 190 979 q 401 981 335 979 q 511 983 468 982 l 511 956 q 440 945 464 954 q 407 912 415 936 q 399 836 399 888 l 399 269 q 410 155 399 201 q 442 81 421 108 q 497 41 464 53 q 572 29 529 29 q 718 74 665 29 q 793 201 771 119 q 815 389 815 282 l 815 711 q 808 853 815 804 q 771 925 800 903 q 675 956 742 947 l 675 983 q 747 981 703 982 q 831 979 792 979 q 894 981 863 979 q 946 983 925 982 m 803 1278 l 819 1263 q 759 1169 801 1217 q 649 1091 717 1122 q 488 1060 582 1060 q 326 1091 393 1060 q 216 1169 258 1122 q 156 1263 174 1217 l 172 1278 q 290 1224 213 1251 q 488 1197 367 1197 q 685 1224 608 1197 q 803 1278 763 1251 z "},"Ǔ":{"ha":963,"x_min":18,"x_max":946,"o":"m 946 983 l 946 956 q 883 926 904 947 q 854 862 861 906 q 847 739 847 818 l 847 404 q 835 242 847 318 q 790 110 824 165 q 683 15 754 50 q 492 -19 611 -19 q 357 -6 428 -19 q 231 47 286 8 q 158 132 183 82 q 125 249 133 182 q 117 400 117 315 l 117 836 q 110 912 117 888 q 82 945 103 936 q 18 956 61 954 l 18 983 q 124 981 58 982 q 263 979 190 979 q 401 981 335 979 q 511 983 468 982 l 511 956 q 440 945 464 954 q 407 912 415 936 q 399 836 399 888 l 399 269 q 410 155 399 201 q 442 81 421 108 q 497 41 464 53 q 572 29 529 29 q 718 74 665 29 q 793 201 771 119 q 815 389 815 282 l 815 711 q 808 853 815 804 q 771 925 800 903 q 675 956 742 947 l 675 983 q 747 981 703 982 q 831 979 792 979 q 894 981 863 979 q 946 983 925 982 m 804 1314 l 811 1293 q 641 1185 721 1250 q 510 1054 561 1121 l 485 1054 q 356 1185 436 1119 q 183 1293 275 1250 l 190 1314 q 378 1276 286 1300 q 525 1229 471 1253 q 648 1276 571 1253 q 804 1314 725 1300 z "},"Û":{"ha":963,"x_min":18,"x_max":946,"o":"m 946 983 l 946 956 q 883 926 904 947 q 854 862 861 906 q 847 739 847 818 l 847 404 q 835 242 847 318 q 790 110 824 165 q 683 15 754 50 q 492 -19 611 -19 q 357 -6 428 -19 q 231 47 286 8 q 158 132 183 82 q 125 249 133 182 q 117 400 117 315 l 117 836 q 110 912 117 888 q 82 945 103 936 q 18 956 61 954 l 18 983 q 124 981 58 982 q 263 979 190 979 q 401 981 335 979 q 511 983 468 982 l 511 956 q 440 945 464 954 q 407 912 415 936 q 399 836 399 888 l 399 269 q 410 155 399 201 q 442 81 421 108 q 497 41 464 53 q 572 29 529 29 q 718 74 665 29 q 793 201 771 119 q 815 389 815 282 l 815 711 q 808 853 815 804 q 771 925 800 903 q 675 956 742 947 l 675 983 q 747 981 703 982 q 831 979 792 979 q 894 981 863 979 q 946 983 925 982 m 514 1328 q 643 1198 563 1263 q 815 1089 724 1133 l 808 1068 q 620 1107 713 1083 q 474 1153 528 1131 q 351 1107 428 1131 q 194 1068 274 1083 l 188 1089 q 358 1197 278 1132 q 489 1328 438 1261 l 514 1328 z "},"Ü":{"ha":963,"x_min":18,"x_max":946,"o":"m 946 983 l 946 956 q 883 926 904 947 q 854 862 861 906 q 847 739 847 818 l 847 404 q 835 242 847 318 q 790 110 824 165 q 683 15 754 50 q 492 -19 611 -19 q 357 -6 428 -19 q 231 47 286 8 q 158 132 183 82 q 125 249 133 182 q 117 400 117 315 l 117 836 q 110 912 117 888 q 82 945 103 936 q 18 956 61 954 l 18 983 q 124 981 58 982 q 263 979 190 979 q 401 981 335 979 q 511 983 468 982 l 511 956 q 440 945 464 954 q 407 912 415 936 q 399 836 399 888 l 399 269 q 410 155 399 201 q 442 81 421 108 q 497 41 464 53 q 572 29 529 29 q 718 74 665 29 q 793 201 771 119 q 815 389 815 282 l 815 711 q 808 853 815 804 q 771 925 800 903 q 675 956 742 947 l 675 983 q 747 981 703 982 q 831 979 792 979 q 894 981 863 979 q 946 983 925 982 m 681 1300 q 765 1264 729 1300 q 801 1179 801 1228 q 765 1094 801 1129 q 681 1058 729 1058 q 595 1094 631 1058 q 560 1179 560 1129 q 595 1264 560 1228 q 681 1300 631 1300 m 322 1300 q 407 1264 371 1300 q 443 1179 443 1228 q 407 1094 443 1129 q 322 1058 371 1058 q 237 1094 272 1058 q 201 1179 201 1129 q 237 1264 201 1228 q 322 1300 272 1300 z "},"Ụ":{"ha":963,"x_min":18,"x_max":946,"o":"m 946 983 l 946 956 q 883 926 904 947 q 854 862 861 906 q 847 739 847 818 l 847 404 q 835 242 847 318 q 790 110 824 165 q 683 15 754 50 q 492 -19 611 -19 q 357 -6 428 -19 q 231 47 286 8 q 158 132 183 82 q 125 249 133 182 q 117 400 117 315 l 117 836 q 110 912 117 888 q 82 945 103 936 q 18 956 61 954 l 18 983 q 124 981 58 982 q 263 979 190 979 q 401 981 335 979 q 511 983 468 982 l 511 956 q 440 945 464 954 q 407 912 415 936 q 399 836 399 888 l 399 269 q 410 155 399 201 q 442 81 421 108 q 497 41 464 53 q 572 29 529 29 q 718 74 665 29 q 793 201 771 119 q 815 389 815 282 l 815 711 q 808 853 815 804 q 771 925 800 903 q 675 956 742 947 l 675 983 q 747 981 703 982 q 831 979 792 979 q 894 981 863 979 q 946 983 925 982 m 547 -265 q 460 -240 492 -265 q 429 -165 429 -215 q 460 -90 429 -117 q 551 -62 492 -62 q 639 -87 608 -62 q 669 -162 669 -112 q 638 -238 669 -211 q 547 -265 607 -265 z "},"Ù":{"ha":963,"x_min":18,"x_max":946,"o":"m 946 983 l 946 956 q 883 926 904 947 q 854 862 861 906 q 847 739 847 818 l 847 404 q 835 242 847 318 q 790 110 824 165 q 683 15 754 50 q 492 -19 611 -19 q 357 -6 428 -19 q 231 47 286 8 q 158 132 183 82 q 125 249 133 182 q 117 400 117 315 l 117 836 q 110 912 117 888 q 82 945 103 936 q 18 956 61 954 l 18 983 q 124 981 58 982 q 263 979 190 979 q 401 981 335 979 q 511 983 468 982 l 511 956 q 440 945 464 954 q 407 912 415 936 q 399 836 399 888 l 399 269 q 410 155 399 201 q 442 81 421 108 q 497 41 464 53 q 572 29 529 29 q 718 74 665 29 q 793 201 771 119 q 815 389 815 282 l 815 711 q 808 853 815 804 q 771 925 800 903 q 675 956 742 947 l 675 983 q 747 981 703 982 q 831 979 792 979 q 894 981 863 979 q 946 983 925 982 m 375 1304 q 433 1260 410 1289 q 492 1188 457 1231 q 594 1089 528 1146 l 585 1072 q 450 1106 504 1097 q 358 1121 396 1115 q 289 1143 321 1126 q 242 1194 256 1160 q 244 1261 229 1228 q 304 1310 264 1301 q 375 1304 344 1319 z "},"Ủ":{"ha":963,"x_min":18,"x_max":946,"o":"m 946 983 l 946 956 q 883 926 904 947 q 854 862 861 906 q 847 739 847 818 l 847 404 q 835 242 847 318 q 790 110 824 165 q 683 15 754 50 q 492 -19 611 -19 q 357 -6 428 -19 q 231 47 286 8 q 158 132 183 82 q 125 249 133 182 q 117 400 117 315 l 117 836 q 110 912 117 888 q 82 945 103 936 q 18 956 61 954 l 18 983 q 124 981 58 982 q 263 979 190 979 q 401 981 335 979 q 511 983 468 982 l 511 956 q 440 945 464 954 q 407 912 415 936 q 399 836 399 888 l 399 269 q 410 155 399 201 q 442 81 421 108 q 497 41 464 53 q 572 29 529 29 q 718 74 665 29 q 793 201 771 119 q 815 389 815 282 l 815 711 q 808 853 815 804 q 771 925 800 903 q 675 956 742 947 l 675 983 q 747 981 703 982 q 831 979 792 979 q 894 981 863 979 q 946 983 925 982 m 474 1054 l 474 1131 q 547 1184 528 1156 q 565 1242 565 1213 q 533 1308 565 1288 q 456 1329 500 1329 q 414 1324 431 1329 q 392 1314 397 1319 q 443 1284 425 1304 q 461 1232 461 1264 q 437 1174 461 1196 q 376 1153 413 1153 q 317 1176 339 1153 q 294 1233 294 1199 q 313 1290 294 1268 q 351 1325 331 1313 q 415 1349 379 1342 q 499 1357 451 1357 q 612 1344 563 1357 q 689 1306 661 1331 q 717 1249 717 1282 q 687 1188 717 1214 q 608 1144 657 1161 q 501 1118 558 1128 l 501 1054 l 474 1054 z "},"Ư":{"ha":963,"x_min":18,"x_max":1063,"o":"m 492 -19 q 357 -6 428 -19 q 231 47 286 8 q 158 132 183 82 q 125 249 133 182 q 117 400 117 315 l 117 836 q 110 912 117 888 q 82 945 103 936 q 18 956 61 954 l 18 983 q 124 981 58 982 q 263 979 190 979 q 401 981 335 979 q 511 983 468 982 l 511 956 q 440 945 464 954 q 407 912 415 936 q 399 836 399 888 l 399 269 q 410 155 399 201 q 442 81 421 108 q 497 41 464 53 q 572 29 529 29 q 718 74 665 29 q 793 201 771 119 q 815 389 815 282 l 815 958 l 818 950 q 745 951 782 950 q 674 956 708 951 l 681 983 q 732 980 713 982 q 782 978 751 978 q 872 983 835 978 q 943 1007 910 989 l 939 996 q 874 1042 904 1011 q 844 1119 844 1074 q 876 1197 844 1168 q 951 1225 908 1225 q 1029 1195 996 1225 q 1063 1113 1063 1165 q 1038 1040 1063 1069 q 976 990 1014 1010 q 906 963 942 972 q 836 951 871 954 l 847 958 l 847 404 q 835 242 847 318 q 790 110 824 165 q 683 15 754 50 q 492 -19 611 -19 z "},"Ứ":{"ha":963,"x_min":18,"x_max":1063,"o":"m 492 -19 q 357 -6 428 -19 q 231 47 286 8 q 158 132 183 82 q 125 249 133 182 q 117 400 117 315 l 117 836 q 110 912 117 888 q 82 945 103 936 q 18 956 61 954 l 18 983 q 124 981 58 982 q 263 979 190 979 q 401 981 335 979 q 511 983 468 982 l 511 956 q 440 945 464 954 q 407 912 415 936 q 399 836 399 888 l 399 269 q 410 155 399 201 q 442 81 421 108 q 497 41 464 53 q 572 29 529 29 q 718 74 665 29 q 793 201 771 119 q 815 389 815 282 l 815 958 l 818 950 q 745 951 782 950 q 674 956 708 951 l 681 983 q 732 980 713 982 q 782 978 751 978 q 872 983 835 978 q 943 1007 910 989 l 939 996 q 874 1042 904 1011 q 844 1119 844 1074 q 876 1197 844 1168 q 951 1225 908 1225 q 1029 1195 996 1225 q 1063 1113 1063 1165 q 1038 1040 1063 1069 q 976 990 1014 1010 q 906 963 942 972 q 836 951 871 954 l 847 958 l 847 404 q 835 242 847 318 q 790 110 824 165 q 683 15 754 50 q 492 -19 611 -19 m 608 1304 q 680 1310 639 1319 q 739 1261 721 1301 q 741 1194 754 1228 q 694 1143 728 1160 q 625 1121 663 1126 q 534 1106 588 1115 q 399 1072 481 1097 l 389 1089 q 492 1188 457 1146 q 551 1260 526 1231 q 608 1304 575 1289 z "},"Ự":{"ha":963,"x_min":18,"x_max":1063,"o":"m 492 -19 q 357 -6 428 -19 q 231 47 286 8 q 158 132 183 82 q 125 249 133 182 q 117 400 117 315 l 117 836 q 110 912 117 888 q 82 945 103 936 q 18 956 61 954 l 18 983 q 124 981 58 982 q 263 979 190 979 q 401 981 335 979 q 511 983 468 982 l 511 956 q 440 945 464 954 q 407 912 415 936 q 399 836 399 888 l 399 269 q 410 155 399 201 q 442 81 421 108 q 497 41 464 53 q 572 29 529 29 q 718 74 665 29 q 793 201 771 119 q 815 389 815 282 l 815 958 l 818 950 q 745 951 782 950 q 674 956 708 951 l 681 983 q 732 980 713 982 q 782 978 751 978 q 872 983 835 978 q 943 1007 910 989 l 939 996 q 874 1042 904 1011 q 844 1119 844 1074 q 876 1197 844 1168 q 951 1225 908 1225 q 1029 1195 996 1225 q 1063 1113 1063 1165 q 1038 1040 1063 1069 q 976 990 1014 1010 q 906 963 942 972 q 836 951 871 954 l 847 958 l 847 404 q 835 242 847 318 q 790 110 824 165 q 683 15 754 50 q 492 -19 611 -19 m 547 -265 q 460 -240 492 -265 q 429 -165 429 -215 q 460 -90 429 -117 q 551 -62 492 -62 q 639 -87 608 -62 q 669 -162 669 -112 q 638 -238 669 -211 q 547 -265 607 -265 z "},"Ừ":{"ha":963,"x_min":18,"x_max":1063,"o":"m 492 -19 q 357 -6 428 -19 q 231 47 286 8 q 158 132 183 82 q 125 249 133 182 q 117 400 117 315 l 117 836 q 110 912 117 888 q 82 945 103 936 q 18 956 61 954 l 18 983 q 124 981 58 982 q 263 979 190 979 q 401 981 335 979 q 511 983 468 982 l 511 956 q 440 945 464 954 q 407 912 415 936 q 399 836 399 888 l 399 269 q 410 155 399 201 q 442 81 421 108 q 497 41 464 53 q 572 29 529 29 q 718 74 665 29 q 793 201 771 119 q 815 389 815 282 l 815 958 l 818 950 q 745 951 782 950 q 674 956 708 951 l 681 983 q 732 980 713 982 q 782 978 751 978 q 872 983 835 978 q 943 1007 910 989 l 939 996 q 874 1042 904 1011 q 844 1119 844 1074 q 876 1197 844 1168 q 951 1225 908 1225 q 1029 1195 996 1225 q 1063 1113 1063 1165 q 1038 1040 1063 1069 q 976 990 1014 1010 q 906 963 942 972 q 836 951 871 954 l 847 958 l 847 404 q 835 242 847 318 q 790 110 824 165 q 683 15 754 50 q 492 -19 611 -19 m 375 1304 q 433 1260 410 1289 q 492 1188 457 1231 q 594 1089 528 1146 l 585 1072 q 450 1106 504 1097 q 358 1121 396 1115 q 289 1143 321 1126 q 242 1194 256 1160 q 244 1261 229 1228 q 304 1310 264 1301 q 375 1304 344 1319 z "},"Ử":{"ha":963,"x_min":18,"x_max":1063,"o":"m 492 -19 q 357 -6 428 -19 q 231 47 286 8 q 158 132 183 82 q 125 249 133 182 q 117 400 117 315 l 117 836 q 110 912 117 888 q 82 945 103 936 q 18 956 61 954 l 18 983 q 124 981 58 982 q 263 979 190 979 q 401 981 335 979 q 511 983 468 982 l 511 956 q 440 945 464 954 q 407 912 415 936 q 399 836 399 888 l 399 269 q 410 155 399 201 q 442 81 421 108 q 497 41 464 53 q 572 29 529 29 q 718 74 665 29 q 793 201 771 119 q 815 389 815 282 l 815 958 l 818 950 q 745 951 782 950 q 674 956 708 951 l 681 983 q 732 980 713 982 q 782 978 751 978 q 872 983 835 978 q 943 1007 910 989 l 939 996 q 874 1042 904 1011 q 844 1119 844 1074 q 876 1197 844 1168 q 951 1225 908 1225 q 1029 1195 996 1225 q 1063 1113 1063 1165 q 1038 1040 1063 1069 q 976 990 1014 1010 q 906 963 942 972 q 836 951 871 954 l 847 958 l 847 404 q 835 242 847 318 q 790 110 824 165 q 683 15 754 50 q 492 -19 611 -19 m 474 1054 l 474 1131 q 547 1184 528 1156 q 565 1242 565 1213 q 533 1308 565 1288 q 456 1329 500 1329 q 414 1324 431 1329 q 392 1314 397 1319 q 443 1284 425 1304 q 461 1232 461 1264 q 437 1174 461 1196 q 376 1153 413 1153 q 317 1176 339 1153 q 294 1233 294 1199 q 313 1290 294 1268 q 351 1325 331 1313 q 415 1349 379 1342 q 499 1357 451 1357 q 612 1344 563 1357 q 689 1306 661 1331 q 717 1249 717 1282 q 687 1188 717 1214 q 608 1144 657 1161 q 501 1118 558 1128 l 501 1054 l 474 1054 z "},"Ữ":{"ha":963,"x_min":18,"x_max":1063,"o":"m 492 -19 q 357 -6 428 -19 q 231 47 286 8 q 158 132 183 82 q 125 249 133 182 q 117 400 117 315 l 117 836 q 110 912 117 888 q 82 945 103 936 q 18 956 61 954 l 18 983 q 124 981 58 982 q 263 979 190 979 q 401 981 335 979 q 511 983 468 982 l 511 956 q 440 945 464 954 q 407 912 415 936 q 399 836 399 888 l 399 269 q 410 155 399 201 q 442 81 421 108 q 497 41 464 53 q 572 29 529 29 q 718 74 665 29 q 793 201 771 119 q 815 389 815 282 l 815 958 l 818 950 q 745 951 782 950 q 674 956 708 951 l 681 983 q 732 980 713 982 q 782 978 751 978 q 872 983 835 978 q 943 1007 910 989 l 939 996 q 874 1042 904 1011 q 844 1119 844 1074 q 876 1197 844 1168 q 951 1225 908 1225 q 1029 1195 996 1225 q 1063 1113 1063 1165 q 1038 1040 1063 1069 q 976 990 1014 1010 q 906 963 942 972 q 836 951 871 954 l 847 958 l 847 404 q 835 242 847 318 q 790 110 824 165 q 683 15 754 50 q 492 -19 611 -19 m 372 1303 q 467 1289 428 1303 q 537 1257 506 1275 q 601 1225 568 1239 q 679 1211 635 1211 q 750 1228 717 1211 q 814 1285 783 1246 l 833 1275 q 749 1112 806 1161 q 628 1063 693 1063 q 533 1076 572 1063 q 462 1109 493 1090 q 397 1142 431 1128 q 319 1156 364 1156 q 249 1138 282 1156 q 185 1081 215 1121 l 165 1090 q 250 1253 193 1204 q 372 1303 307 1303 z "},"Ű":{"ha":963,"x_min":18,"x_max":946,"o":"m 946 983 l 946 956 q 883 926 904 947 q 854 862 861 906 q 847 739 847 818 l 847 404 q 835 242 847 318 q 790 110 824 165 q 683 15 754 50 q 492 -19 611 -19 q 357 -6 428 -19 q 231 47 286 8 q 158 132 183 82 q 125 249 133 182 q 117 400 117 315 l 117 836 q 110 912 117 888 q 82 945 103 936 q 18 956 61 954 l 18 983 q 124 981 58 982 q 263 979 190 979 q 401 981 335 979 q 511 983 468 982 l 511 956 q 440 945 464 954 q 407 912 415 936 q 399 836 399 888 l 399 269 q 410 155 399 201 q 442 81 421 108 q 497 41 464 53 q 572 29 529 29 q 718 74 665 29 q 793 201 771 119 q 815 389 815 282 l 815 711 q 808 853 815 804 q 771 925 800 903 q 675 956 742 947 l 675 983 q 747 981 703 982 q 831 979 792 979 q 894 981 863 979 q 946 983 925 982 m 744 1310 q 816 1325 776 1332 q 878 1283 856 1318 q 891 1216 900 1250 q 849 1160 882 1182 q 791 1134 825 1144 q 710 1111 757 1124 q 596 1072 663 1099 l 582 1088 q 656 1188 629 1144 q 701 1261 682 1231 q 744 1310 721 1292 m 429 1310 q 501 1325 461 1332 q 563 1283 540 1318 q 576 1216 585 1250 q 533 1160 567 1182 q 476 1134 510 1144 q 394 1111 442 1124 q 281 1072 347 1099 l 267 1088 q 340 1188 314 1144 q 386 1261 367 1231 q 429 1310 406 1292 z "},"Ū":{"ha":963,"x_min":18,"x_max":946,"o":"m 946 983 l 946 956 q 883 926 904 947 q 854 862 861 906 q 847 739 847 818 l 847 404 q 835 242 847 318 q 790 110 824 165 q 683 15 754 50 q 492 -19 611 -19 q 357 -6 428 -19 q 231 47 286 8 q 158 132 183 82 q 125 249 133 182 q 117 400 117 315 l 117 836 q 110 912 117 888 q 82 945 103 936 q 18 956 61 954 l 18 983 q 124 981 58 982 q 263 979 190 979 q 401 981 335 979 q 511 983 468 982 l 511 956 q 440 945 464 954 q 407 912 415 936 q 399 836 399 888 l 399 269 q 410 155 399 201 q 442 81 421 108 q 497 41 464 53 q 572 29 529 29 q 718 74 665 29 q 793 201 771 119 q 815 389 815 282 l 815 711 q 808 853 815 804 q 771 925 800 903 q 675 956 742 947 l 675 983 q 747 981 703 982 q 831 979 792 979 q 894 981 863 979 q 946 983 925 982 m 801 1172 l 801 1138 l 201 1138 l 201 1172 l 801 1172 z "},"Ų":{"ha":963,"x_min":18,"x_max":946,"o":"m 946 983 l 946 956 q 883 926 904 947 q 854 862 861 906 q 847 739 847 818 l 847 404 q 835 242 847 318 q 790 110 824 165 q 683 15 754 50 q 492 -19 611 -19 q 357 -6 428 -19 q 231 47 286 8 q 158 132 183 82 q 125 249 133 182 q 117 400 117 315 l 117 836 q 110 912 117 888 q 82 945 103 936 q 18 956 61 954 l 18 983 q 124 981 58 982 q 263 979 190 979 q 401 981 335 979 q 511 983 468 982 l 511 956 q 440 945 464 954 q 407 912 415 936 q 399 836 399 888 l 399 269 q 410 155 399 201 q 442 81 421 108 q 497 41 464 53 q 572 29 529 29 q 718 74 665 29 q 793 201 771 119 q 815 389 815 282 l 815 711 q 808 853 815 804 q 771 925 800 903 q 675 956 742 947 l 675 983 q 747 981 703 982 q 831 979 792 979 q 894 981 863 979 q 946 983 925 982 m 656 4 q 534 -60 569 -25 q 499 -125 499 -96 q 513 -165 499 -153 q 554 -178 526 -178 q 604 -169 578 -178 q 646 -146 631 -160 l 664 -167 q 574 -239 624 -217 q 451 -261 525 -261 q 349 -235 383 -261 q 314 -162 314 -210 q 391 -60 314 -101 q 603 4 468 -18 l 656 4 z "},"Ů":{"ha":963,"x_min":18,"x_max":946,"o":"m 946 983 l 946 956 q 883 926 904 947 q 854 862 861 906 q 847 739 847 818 l 847 404 q 835 242 847 318 q 790 110 824 165 q 683 15 754 50 q 492 -19 611 -19 q 357 -6 428 -19 q 231 47 286 8 q 158 132 183 82 q 125 249 133 182 q 117 400 117 315 l 117 836 q 110 912 117 888 q 82 945 103 936 q 18 956 61 954 l 18 983 q 124 981 58 982 q 263 979 190 979 q 401 981 335 979 q 511 983 468 982 l 511 956 q 440 945 464 954 q 407 912 415 936 q 399 836 399 888 l 399 269 q 410 155 399 201 q 442 81 421 108 q 497 41 464 53 q 572 29 529 29 q 718 74 665 29 q 793 201 771 119 q 815 389 815 282 l 815 711 q 808 853 815 804 q 771 925 800 903 q 675 956 742 947 l 675 983 q 747 981 703 982 q 831 979 792 979 q 894 981 863 979 q 946 983 925 982 m 501 1375 q 615 1338 567 1375 q 664 1235 664 1300 q 615 1131 664 1169 q 501 1093 567 1093 q 389 1131 438 1093 q 340 1235 340 1169 q 389 1338 340 1300 q 501 1375 438 1375 m 501 1346 q 419 1317 458 1346 q 379 1233 379 1288 q 419 1150 379 1178 q 501 1122 458 1122 q 585 1150 546 1122 q 625 1233 625 1178 q 585 1317 625 1288 q 501 1346 546 1346 z "},"Ũ":{"ha":963,"x_min":18,"x_max":946,"o":"m 946 983 l 946 956 q 883 926 904 947 q 854 862 861 906 q 847 739 847 818 l 847 404 q 835 242 847 318 q 790 110 824 165 q 683 15 754 50 q 492 -19 611 -19 q 357 -6 428 -19 q 231 47 286 8 q 158 132 183 82 q 125 249 133 182 q 117 400 117 315 l 117 836 q 110 912 117 888 q 82 945 103 936 q 18 956 61 954 l 18 983 q 124 981 58 982 q 263 979 190 979 q 401 981 335 979 q 511 983 468 982 l 511 956 q 440 945 464 954 q 407 912 415 936 q 399 836 399 888 l 399 269 q 410 155 399 201 q 442 81 421 108 q 497 41 464 53 q 572 29 529 29 q 718 74 665 29 q 793 201 771 119 q 815 389 815 282 l 815 711 q 808 853 815 804 q 771 925 800 903 q 675 956 742 947 l 675 983 q 747 981 703 982 q 831 979 792 979 q 894 981 863 979 q 946 983 925 982 m 372 1303 q 467 1289 428 1303 q 537 1257 506 1275 q 601 1225 568 1239 q 679 1211 635 1211 q 750 1228 717 1211 q 814 1285 783 1246 l 833 1275 q 749 1112 806 1161 q 628 1063 693 1063 q 533 1076 572 1063 q 462 1109 493 1090 q 397 1142 431 1128 q 319 1156 364 1156 q 249 1138 282 1156 q 185 1081 215 1121 l 165 1090 q 250 1253 193 1204 q 372 1303 307 1303 z "},"V":{"ha":963,"x_min":-22,"x_max":979,"o":"m 979 983 l 979 956 q 910 895 947 940 q 840 761 872 850 l 569 0 q 534 2 553 1 q 496 3 515 3 q 459 2 478 3 q 424 0 440 1 l 60 867 q 19 935 40 915 q -22 956 -3 954 l -22 983 q 95 981 28 982 q 231 979 163 979 q 364 981 301 979 q 464 983 426 982 l 464 956 q 396 946 421 954 q 367 913 371 938 q 383 839 364 889 l 633 224 l 600 181 l 758 625 q 804 819 801 747 q 776 922 807 890 q 690 956 746 954 l 690 983 q 784 981 743 982 q 872 979 825 979 q 929 981 900 979 q 979 983 958 982 z "},"W":{"ha":1403,"x_min":-21,"x_max":1414,"o":"m 1414 983 l 1414 956 q 1347 896 1382 940 q 1285 761 1313 851 l 1051 0 q 1016 2 1035 1 q 978 3 997 3 q 941 2 960 3 q 906 0 922 1 l 614 890 q 585 940 603 926 q 543 956 567 954 l 543 983 q 654 981 590 982 q 783 979 718 979 q 906 981 849 979 q 999 983 964 982 l 999 956 q 932 945 956 954 q 905 912 908 936 q 918 839 901 888 l 1108 261 l 1068 176 l 1208 625 q 1246 820 1247 749 q 1213 923 1244 892 q 1125 956 1181 954 l 1125 983 q 1219 981 1178 982 q 1307 979 1260 979 q 1364 981 1335 979 q 1414 983 1393 982 m 410 983 l 410 956 q 378 931 386 951 q 374 885 371 911 q 385 839 378 860 l 594 249 l 556 189 l 722 640 l 742 600 l 529 0 q 494 2 513 1 q 456 3 475 3 q 419 2 438 3 q 383 0 400 1 l 61 867 q 21 935 43 915 q -21 956 -1 954 l -21 983 q 97 981 29 982 q 225 979 164 979 q 333 981 286 979 q 410 983 381 982 z "},"Ẃ":{"ha":1403,"x_min":-21,"x_max":1414,"o":"m 1414 983 l 1414 956 q 1347 896 1382 940 q 1285 761 1313 851 l 1051 0 q 1016 2 1035 1 q 978 3 997 3 q 941 2 960 3 q 906 0 922 1 l 614 890 q 585 940 603 926 q 543 956 567 954 l 543 983 q 654 981 590 982 q 783 979 718 979 q 906 981 849 979 q 999 983 964 982 l 999 956 q 932 945 956 954 q 905 912 908 936 q 918 839 901 888 l 1108 261 l 1068 176 l 1208 625 q 1246 820 1247 749 q 1213 923 1244 892 q 1125 956 1181 954 l 1125 983 q 1219 981 1178 982 q 1307 979 1260 979 q 1364 981 1335 979 q 1414 983 1393 982 m 410 983 l 410 956 q 378 931 386 951 q 374 885 371 911 q 385 839 378 860 l 594 249 l 556 189 l 722 640 l 742 600 l 529 0 q 494 2 513 1 q 456 3 475 3 q 419 2 438 3 q 383 0 400 1 l 61 867 q 21 935 43 915 q -21 956 -1 954 l -21 983 q 97 981 29 982 q 225 979 164 979 q 333 981 286 979 q 410 983 381 982 m 836 1304 q 908 1310 867 1319 q 967 1261 949 1301 q 969 1194 982 1228 q 922 1143 956 1160 q 853 1121 890 1126 q 762 1106 815 1115 q 626 1072 708 1097 l 617 1089 q 719 1188 685 1146 q 778 1260 754 1231 q 836 1304 803 1289 z "},"Ŵ":{"ha":1403,"x_min":-21,"x_max":1414,"o":"m 1414 983 l 1414 956 q 1347 896 1382 940 q 1285 761 1313 851 l 1051 0 q 1016 2 1035 1 q 978 3 997 3 q 941 2 960 3 q 906 0 922 1 l 614 890 q 585 940 603 926 q 543 956 567 954 l 543 983 q 654 981 590 982 q 783 979 718 979 q 906 981 849 979 q 999 983 964 982 l 999 956 q 932 945 956 954 q 905 912 908 936 q 918 839 901 888 l 1108 261 l 1068 176 l 1208 625 q 1246 820 1247 749 q 1213 923 1244 892 q 1125 956 1181 954 l 1125 983 q 1219 981 1178 982 q 1307 979 1260 979 q 1364 981 1335 979 q 1414 983 1393 982 m 410 983 l 410 956 q 378 931 386 951 q 374 885 371 911 q 385 839 378 860 l 594 249 l 556 189 l 722 640 l 742 600 l 529 0 q 494 2 513 1 q 456 3 475 3 q 419 2 438 3 q 383 0 400 1 l 61 867 q 21 935 43 915 q -21 956 -1 954 l -21 983 q 97 981 29 982 q 225 979 164 979 q 333 981 286 979 q 410 983 381 982 m 742 1328 q 871 1198 790 1263 q 1043 1089 951 1133 l 1036 1068 q 848 1107 940 1083 q 701 1153 756 1131 q 578 1107 656 1131 q 422 1068 501 1083 l 415 1089 q 585 1197 506 1132 q 717 1328 665 1261 l 742 1328 z "},"Ẅ":{"ha":1403,"x_min":-21,"x_max":1414,"o":"m 1414 983 l 1414 956 q 1347 896 1382 940 q 1285 761 1313 851 l 1051 0 q 1016 2 1035 1 q 978 3 997 3 q 941 2 960 3 q 906 0 922 1 l 614 890 q 585 940 603 926 q 543 956 567 954 l 543 983 q 654 981 590 982 q 783 979 718 979 q 906 981 849 979 q 999 983 964 982 l 999 956 q 932 945 956 954 q 905 912 908 936 q 918 839 901 888 l 1108 261 l 1068 176 l 1208 625 q 1246 820 1247 749 q 1213 923 1244 892 q 1125 956 1181 954 l 1125 983 q 1219 981 1178 982 q 1307 979 1260 979 q 1364 981 1335 979 q 1414 983 1393 982 m 410 983 l 410 956 q 378 931 386 951 q 374 885 371 911 q 385 839 378 860 l 594 249 l 556 189 l 722 640 l 742 600 l 529 0 q 494 2 513 1 q 456 3 475 3 q 419 2 438 3 q 383 0 400 1 l 61 867 q 21 935 43 915 q -21 956 -1 954 l -21 983 q 97 981 29 982 q 225 979 164 979 q 333 981 286 979 q 410 983 381 982 m 908 1300 q 993 1264 957 1300 q 1029 1179 1029 1228 q 993 1094 1029 1129 q 908 1058 957 1058 q 823 1094 858 1058 q 788 1179 788 1129 q 823 1264 788 1228 q 908 1300 858 1300 m 550 1300 q 635 1264 599 1300 q 671 1179 671 1228 q 635 1094 671 1129 q 550 1058 599 1058 q 465 1094 500 1058 q 429 1179 429 1129 q 465 1264 429 1228 q 550 1300 500 1300 z "},"Ẁ":{"ha":1403,"x_min":-21,"x_max":1414,"o":"m 1414 983 l 1414 956 q 1347 896 1382 940 q 1285 761 1313 851 l 1051 0 q 1016 2 1035 1 q 978 3 997 3 q 941 2 960 3 q 906 0 922 1 l 614 890 q 585 940 603 926 q 543 956 567 954 l 543 983 q 654 981 590 982 q 783 979 718 979 q 906 981 849 979 q 999 983 964 982 l 999 956 q 932 945 956 954 q 905 912 908 936 q 918 839 901 888 l 1108 261 l 1068 176 l 1208 625 q 1246 820 1247 749 q 1213 923 1244 892 q 1125 956 1181 954 l 1125 983 q 1219 981 1178 982 q 1307 979 1260 979 q 1364 981 1335 979 q 1414 983 1393 982 m 410 983 l 410 956 q 378 931 386 951 q 374 885 371 911 q 385 839 378 860 l 594 249 l 556 189 l 722 640 l 742 600 l 529 0 q 494 2 513 1 q 456 3 475 3 q 419 2 438 3 q 383 0 400 1 l 61 867 q 21 935 43 915 q -21 956 -1 954 l -21 983 q 97 981 29 982 q 225 979 164 979 q 333 981 286 979 q 410 983 381 982 m 603 1304 q 661 1260 638 1289 q 720 1188 685 1231 q 822 1089 756 1146 l 813 1072 q 678 1106 732 1097 q 586 1121 624 1115 q 517 1143 549 1126 q 470 1194 483 1160 q 472 1261 457 1228 q 532 1310 492 1301 q 603 1304 572 1319 z "},"X":{"ha":1013,"x_min":-8,"x_max":1047,"o":"m 467 985 l 467 956 q 390 946 408 956 q 390 908 371 936 l 961 99 q 1005 46 989 60 q 1047 29 1021 32 l 1047 0 q 946 3 1013 1 q 810 6 879 6 q 672 3 742 6 q 568 0 603 1 l 568 29 q 645 39 626 29 q 644 76 664 49 l 78 886 q 35 940 50 926 q -8 956 19 954 l -8 985 q 99 981 28 983 q 243 979 171 979 q 372 981 308 979 q 467 985 435 983 m 436 486 q 439 477 436 486 q 444 459 442 468 q 447 450 447 450 l 328 301 q 259 167 269 228 q 279 70 249 107 q 372 28 310 33 l 372 0 q 319 2 353 1 q 249 3 286 3 q 181 4 213 4 q 132 4 149 4 q 55 3 89 4 q -3 0 21 3 l -3 28 q 108 99 50 50 q 228 225 167 149 l 436 486 m 963 983 l 963 956 q 865 892 915 938 q 775 799 814 847 l 549 521 q 543 538 549 521 q 538 556 538 556 l 671 719 q 737 834 725 782 q 724 919 749 886 q 643 956 699 951 l 643 983 q 704 981 669 982 q 772 980 739 981 q 828 979 806 979 q 906 981 871 979 q 963 983 940 982 z "},"Y":{"ha":894,"x_min":-12,"x_max":883,"o":"m 883 985 l 883 957 q 815 899 851 942 q 736 772 779 857 l 486 276 l 393 276 l 68 878 q 24 939 44 922 q -12 956 3 956 l -12 985 q 77 978 31 981 q 179 976 124 976 q 333 979 250 976 q 485 985 415 982 l 485 956 q 421 953 450 956 q 379 940 392 950 q 379 903 367 929 l 589 500 l 524 414 l 640 647 q 705 829 699 763 q 681 926 711 896 q 594 957 650 956 l 594 985 q 688 982 647 983 q 776 981 729 981 q 833 982 804 981 q 883 985 863 983 m 607 546 l 607 147 q 615 72 607 97 q 643 39 622 47 q 706 28 664 31 l 706 0 q 599 3 665 3 q 467 4 532 4 q 330 3 396 4 q 226 0 264 3 l 226 28 q 290 39 269 31 q 318 72 311 47 q 325 147 325 97 l 325 432 l 476 346 l 607 546 z "},"Ý":{"ha":894,"x_min":-12,"x_max":883,"o":"m 883 985 l 883 957 q 815 899 851 942 q 736 772 779 857 l 486 276 l 393 276 l 68 878 q 24 939 44 922 q -12 956 3 956 l -12 985 q 77 978 31 981 q 179 976 124 976 q 333 979 250 976 q 485 985 415 982 l 485 956 q 421 953 450 956 q 379 940 392 950 q 379 903 367 929 l 589 500 l 524 414 l 640 647 q 705 829 699 763 q 681 926 711 896 q 594 957 650 956 l 594 985 q 688 982 647 983 q 776 981 729 981 q 833 982 804 981 q 883 985 863 983 m 607 546 l 607 147 q 615 72 607 97 q 643 39 622 47 q 706 28 664 31 l 706 0 q 599 3 665 3 q 467 4 532 4 q 330 3 396 4 q 226 0 264 3 l 226 28 q 290 39 269 31 q 318 72 311 47 q 325 147 325 97 l 325 432 l 476 346 l 607 546 m 590 1304 q 662 1310 621 1319 q 721 1261 703 1301 q 723 1194 736 1228 q 676 1143 710 1160 q 607 1121 644 1126 q 516 1106 569 1115 q 381 1072 463 1097 l 371 1089 q 474 1188 439 1146 q 533 1260 508 1231 q 590 1304 557 1289 z "},"Ŷ":{"ha":894,"x_min":-12,"x_max":883,"o":"m 883 985 l 883 957 q 815 899 851 942 q 736 772 779 857 l 486 276 l 393 276 l 68 878 q 24 939 44 922 q -12 956 3 956 l -12 985 q 77 978 31 981 q 179 976 124 976 q 333 979 250 976 q 485 985 415 982 l 485 956 q 421 953 450 956 q 379 940 392 950 q 379 903 367 929 l 589 500 l 524 414 l 640 647 q 705 829 699 763 q 681 926 711 896 q 594 957 650 956 l 594 985 q 688 982 647 983 q 776 981 729 981 q 833 982 804 981 q 883 985 863 983 m 607 546 l 607 147 q 615 72 607 97 q 643 39 622 47 q 706 28 664 31 l 706 0 q 599 3 665 3 q 467 4 532 4 q 330 3 396 4 q 226 0 264 3 l 226 28 q 290 39 269 31 q 318 72 311 47 q 325 147 325 97 l 325 432 l 476 346 l 607 546 m 496 1328 q 625 1198 544 1263 q 797 1089 706 1133 l 790 1068 q 602 1107 694 1083 q 456 1153 510 1131 q 333 1107 410 1131 q 176 1068 256 1083 l 169 1089 q 340 1197 260 1132 q 471 1328 419 1261 l 496 1328 z "},"Ÿ":{"ha":894,"x_min":-12,"x_max":883,"o":"m 883 985 l 883 957 q 815 899 851 942 q 736 772 779 857 l 486 276 l 393 276 l 68 878 q 24 939 44 922 q -12 956 3 956 l -12 985 q 77 978 31 981 q 179 976 124 976 q 333 979 250 976 q 485 985 415 982 l 485 956 q 421 953 450 956 q 379 940 392 950 q 379 903 367 929 l 589 500 l 524 414 l 640 647 q 705 829 699 763 q 681 926 711 896 q 594 957 650 956 l 594 985 q 688 982 647 983 q 776 981 729 981 q 833 982 804 981 q 883 985 863 983 m 607 546 l 607 147 q 615 72 607 97 q 643 39 622 47 q 706 28 664 31 l 706 0 q 599 3 665 3 q 467 4 532 4 q 330 3 396 4 q 226 0 264 3 l 226 28 q 290 39 269 31 q 318 72 311 47 q 325 147 325 97 l 325 432 l 476 346 l 607 546 m 663 1300 q 747 1264 711 1300 q 783 1179 783 1228 q 747 1094 783 1129 q 663 1058 711 1058 q 577 1094 613 1058 q 542 1179 542 1129 q 577 1264 542 1228 q 663 1300 613 1300 m 304 1300 q 389 1264 353 1300 q 425 1179 425 1228 q 389 1094 425 1129 q 304 1058 353 1058 q 219 1094 254 1058 q 183 1179 183 1129 q 219 1264 183 1228 q 304 1300 254 1300 z "},"Ỵ":{"ha":894,"x_min":-12,"x_max":883,"o":"m 883 985 l 883 957 q 815 899 851 942 q 736 772 779 857 l 486 276 l 393 276 l 68 878 q 24 939 44 922 q -12 956 3 956 l -12 985 q 77 978 31 981 q 179 976 124 976 q 333 979 250 976 q 485 985 415 982 l 485 956 q 421 953 450 956 q 379 940 392 950 q 379 903 367 929 l 589 500 l 524 414 l 640 647 q 705 829 699 763 q 681 926 711 896 q 594 957 650 956 l 594 985 q 688 982 647 983 q 776 981 729 981 q 833 982 804 981 q 883 985 863 983 m 607 546 l 607 147 q 615 72 607 97 q 643 39 622 47 q 706 28 664 31 l 706 0 q 599 3 665 3 q 467 4 532 4 q 330 3 396 4 q 226 0 264 3 l 226 28 q 290 39 269 31 q 318 72 311 47 q 325 147 325 97 l 325 432 l 476 346 l 607 546 m 444 -265 q 358 -240 389 -265 q 326 -165 326 -215 q 358 -90 326 -117 q 449 -62 389 -62 q 536 -87 506 -62 q 567 -162 567 -112 q 535 -238 567 -211 q 444 -265 504 -265 z "},"Ỳ":{"ha":894,"x_min":-12,"x_max":883,"o":"m 883 985 l 883 957 q 815 899 851 942 q 736 772 779 857 l 486 276 l 393 276 l 68 878 q 24 939 44 922 q -12 956 3 956 l -12 985 q 77 978 31 981 q 179 976 124 976 q 333 979 250 976 q 485 985 415 982 l 485 956 q 421 953 450 956 q 379 940 392 950 q 379 903 367 929 l 589 500 l 524 414 l 640 647 q 705 829 699 763 q 681 926 711 896 q 594 957 650 956 l 594 985 q 688 982 647 983 q 776 981 729 981 q 833 982 804 981 q 883 985 863 983 m 607 546 l 607 147 q 615 72 607 97 q 643 39 622 47 q 706 28 664 31 l 706 0 q 599 3 665 3 q 467 4 532 4 q 330 3 396 4 q 226 0 264 3 l 226 28 q 290 39 269 31 q 318 72 311 47 q 325 147 325 97 l 325 432 l 476 346 l 607 546 m 357 1304 q 415 1260 392 1289 q 474 1188 439 1231 q 576 1089 510 1146 l 567 1072 q 432 1106 486 1097 q 340 1121 378 1115 q 271 1143 303 1126 q 224 1194 238 1160 q 226 1261 211 1228 q 286 1310 246 1301 q 357 1304 326 1319 z "},"Ỷ":{"ha":894,"x_min":-12,"x_max":883,"o":"m 883 985 l 883 957 q 815 899 851 942 q 736 772 779 857 l 486 276 l 393 276 l 68 878 q 24 939 44 922 q -12 956 3 956 l -12 985 q 77 978 31 981 q 179 976 124 976 q 333 979 250 976 q 485 985 415 982 l 485 956 q 421 953 450 956 q 379 940 392 950 q 379 903 367 929 l 589 500 l 524 414 l 640 647 q 705 829 699 763 q 681 926 711 896 q 594 957 650 956 l 594 985 q 688 982 647 983 q 776 981 729 981 q 833 982 804 981 q 883 985 863 983 m 607 546 l 607 147 q 615 72 607 97 q 643 39 622 47 q 706 28 664 31 l 706 0 q 599 3 665 3 q 467 4 532 4 q 330 3 396 4 q 226 0 264 3 l 226 28 q 290 39 269 31 q 318 72 311 47 q 325 147 325 97 l 325 432 l 476 346 l 607 546 m 456 1054 l 456 1131 q 528 1184 510 1156 q 547 1242 547 1213 q 515 1308 547 1288 q 438 1329 482 1329 q 396 1324 413 1329 q 374 1314 379 1319 q 425 1284 407 1304 q 443 1232 443 1264 q 419 1174 443 1196 q 358 1153 394 1153 q 299 1176 321 1153 q 276 1233 276 1199 q 294 1290 276 1268 q 333 1325 313 1313 q 397 1349 361 1342 q 481 1357 433 1357 q 594 1344 544 1357 q 671 1306 643 1331 q 699 1249 699 1282 q 669 1188 699 1214 q 590 1144 639 1161 q 483 1118 540 1128 l 483 1054 l 456 1054 z "},"Ỹ":{"ha":894,"x_min":-12,"x_max":883,"o":"m 883 985 l 883 957 q 815 899 851 942 q 736 772 779 857 l 486 276 l 393 276 l 68 878 q 24 939 44 922 q -12 956 3 956 l -12 985 q 77 978 31 981 q 179 976 124 976 q 333 979 250 976 q 485 985 415 982 l 485 956 q 421 953 450 956 q 379 940 392 950 q 379 903 367 929 l 589 500 l 524 414 l 640 647 q 705 829 699 763 q 681 926 711 896 q 594 957 650 956 l 594 985 q 688 982 647 983 q 776 981 729 981 q 833 982 804 981 q 883 985 863 983 m 607 546 l 607 147 q 615 72 607 97 q 643 39 622 47 q 706 28 664 31 l 706 0 q 599 3 665 3 q 467 4 532 4 q 330 3 396 4 q 226 0 264 3 l 226 28 q 290 39 269 31 q 318 72 311 47 q 325 147 325 97 l 325 432 l 476 346 l 607 546 m 354 1303 q 449 1289 410 1303 q 519 1257 488 1275 q 583 1225 550 1239 q 661 1211 617 1211 q 732 1228 699 1211 q 796 1285 765 1246 l 815 1275 q 731 1112 788 1161 q 610 1063 675 1063 q 515 1076 554 1063 q 444 1109 475 1090 q 379 1142 413 1128 q 301 1156 346 1156 q 231 1138 264 1156 q 167 1081 197 1121 l 147 1090 q 232 1253 175 1204 q 354 1303 289 1303 z "},"Z":{"ha":843,"x_min":51,"x_max":790,"o":"m 779 983 l 779 956 l 358 32 l 417 32 q 505 49 453 32 q 610 103 557 65 q 703 203 663 140 q 753 361 743 267 l 785 361 q 781 233 781 311 q 782 134 781 199 q 790 0 783 69 q 678 3 739 3 q 556 4 617 4 q 444 4 496 4 q 247 3 350 4 q 51 0 143 3 l 51 28 l 472 951 l 403 951 q 311 938 360 951 q 217 890 263 924 q 138 797 171 856 q 92 650 104 739 l 60 650 q 63 694 63 668 q 64 750 64 721 q 62 849 64 785 q 54 983 60 914 q 149 981 97 982 q 251 979 200 979 q 344 979 303 979 q 563 980 449 979 q 779 983 678 981 z "},"Ź":{"ha":843,"x_min":51,"x_max":790,"o":"m 779 983 l 779 956 l 358 32 l 417 32 q 505 49 453 32 q 610 103 557 65 q 703 203 663 140 q 753 361 743 267 l 785 361 q 781 233 781 311 q 782 134 781 199 q 790 0 783 69 q 678 3 739 3 q 556 4 617 4 q 444 4 496 4 q 247 3 350 4 q 51 0 143 3 l 51 28 l 472 951 l 403 951 q 311 938 360 951 q 217 890 263 924 q 138 797 171 856 q 92 650 104 739 l 60 650 q 63 694 63 668 q 64 750 64 721 q 62 849 64 785 q 54 983 60 914 q 149 981 97 982 q 251 979 200 979 q 344 979 303 979 q 563 980 449 979 q 779 983 678 981 m 532 1304 q 603 1310 563 1319 q 663 1261 644 1301 q 665 1194 678 1228 q 618 1143 651 1160 q 549 1121 586 1126 q 458 1106 511 1115 q 322 1072 404 1097 l 313 1089 q 415 1188 381 1146 q 474 1260 450 1231 q 532 1304 499 1289 z "},"Ž":{"ha":843,"x_min":51,"x_max":790,"o":"m 779 983 l 779 956 l 358 32 l 417 32 q 505 49 453 32 q 610 103 557 65 q 703 203 663 140 q 753 361 743 267 l 785 361 q 781 233 781 311 q 782 134 781 199 q 790 0 783 69 q 678 3 739 3 q 556 4 617 4 q 444 4 496 4 q 247 3 350 4 q 51 0 143 3 l 51 28 l 472 951 l 403 951 q 311 938 360 951 q 217 890 263 924 q 138 797 171 856 q 92 650 104 739 l 60 650 q 63 694 63 668 q 64 750 64 721 q 62 849 64 785 q 54 983 60 914 q 149 981 97 982 q 251 979 200 979 q 344 979 303 979 q 563 980 449 979 q 779 983 678 981 m 728 1314 l 735 1293 q 565 1185 644 1250 q 433 1054 485 1121 l 408 1054 q 279 1185 360 1119 q 107 1293 199 1250 l 114 1314 q 302 1276 210 1300 q 449 1229 394 1253 q 572 1276 494 1253 q 728 1314 649 1300 z "},"Ż":{"ha":843,"x_min":51,"x_max":790,"o":"m 779 983 l 779 956 l 358 32 l 417 32 q 505 49 453 32 q 610 103 557 65 q 703 203 663 140 q 753 361 743 267 l 785 361 q 781 233 781 311 q 782 134 781 199 q 790 0 783 69 q 678 3 739 3 q 556 4 617 4 q 444 4 496 4 q 247 3 350 4 q 51 0 143 3 l 51 28 l 472 951 l 403 951 q 311 938 360 951 q 217 890 263 924 q 138 797 171 856 q 92 650 104 739 l 60 650 q 63 694 63 668 q 64 750 64 721 q 62 849 64 785 q 54 983 60 914 q 149 981 97 982 q 251 979 200 979 q 344 979 303 979 q 563 980 449 979 q 779 983 678 981 m 425 1349 q 537 1319 497 1349 q 576 1229 576 1289 q 537 1140 576 1169 q 425 1110 497 1110 q 313 1140 353 1110 q 274 1229 274 1169 q 313 1319 274 1289 q 425 1349 353 1349 z "},"a":{"ha":738,"x_min":31,"x_max":728,"o":"m 217 -10 q 110 15 151 -10 q 49 81 68 40 q 31 165 31 121 q 57 260 31 224 q 126 320 83 297 q 215 358 168 343 q 305 388 263 374 q 374 423 347 403 q 400 475 400 443 l 400 599 q 392 647 400 621 q 364 693 385 674 q 301 713 343 713 q 259 706 279 713 q 224 689 239 700 q 294 638 272 671 q 317 567 317 606 q 278 479 317 511 q 186 447 239 447 q 100 482 131 447 q 69 568 69 517 q 91 641 69 611 q 156 696 113 671 q 256 730 197 719 q 378 740 314 740 q 504 727 446 740 q 604 671 563 714 q 642 594 633 640 q 650 476 650 549 l 650 104 q 655 57 650 69 q 672 44 660 44 q 694 51 683 44 q 714 65 704 58 l 728 42 q 652 3 697 15 q 557 -10 607 -10 q 465 5 497 -10 q 419 44 432 19 q 404 96 406 68 q 331 20 375 50 q 217 -10 288 -10 m 349 101 q 376 106 364 101 q 400 125 388 111 l 400 418 q 374 383 390 400 q 342 347 358 365 q 310 308 325 329 q 287 260 296 288 q 278 197 278 233 q 298 123 278 144 q 349 101 318 101 z "},"á":{"ha":738,"x_min":31,"x_max":728,"o":"m 217 -10 q 110 15 151 -10 q 49 81 68 40 q 31 165 31 121 q 57 260 31 224 q 126 320 83 297 q 215 358 168 343 q 305 388 263 374 q 374 423 347 403 q 400 475 400 443 l 400 599 q 392 647 400 621 q 364 693 385 674 q 301 713 343 713 q 259 706 279 713 q 224 689 239 700 q 294 638 272 671 q 317 567 317 606 q 278 479 317 511 q 186 447 239 447 q 100 482 131 447 q 69 568 69 517 q 91 641 69 611 q 156 696 113 671 q 256 730 197 719 q 378 740 314 740 q 504 727 446 740 q 604 671 563 714 q 642 594 633 640 q 650 476 650 549 l 650 104 q 655 57 650 69 q 672 44 660 44 q 694 51 683 44 q 714 65 704 58 l 728 42 q 652 3 697 15 q 557 -10 607 -10 q 465 5 497 -10 q 419 44 432 19 q 404 96 406 68 q 331 20 375 50 q 217 -10 288 -10 m 349 101 q 376 106 364 101 q 400 125 388 111 l 400 418 q 374 383 390 400 q 342 347 358 365 q 310 308 325 329 q 287 260 296 288 q 278 197 278 233 q 298 123 278 144 q 349 101 318 101 m 528 1139 q 556 1079 556 1117 q 533 1013 557 1042 q 478 965 511 985 q 400 916 446 944 q 289 832 354 888 l 274 844 q 329 976 314 924 q 356 1064 344 1028 q 392 1128 367 1100 q 455 1160 414 1154 q 528 1139 496 1167 z "},"ă":{"ha":738,"x_min":31,"x_max":728,"o":"m 217 -10 q 110 15 151 -10 q 49 81 68 40 q 31 165 31 121 q 57 260 31 224 q 126 320 83 297 q 215 358 168 343 q 305 388 263 374 q 374 423 347 403 q 400 475 400 443 l 400 599 q 392 647 400 621 q 364 693 385 674 q 301 713 343 713 q 259 706 279 713 q 224 689 239 700 q 294 638 272 671 q 317 567 317 606 q 278 479 317 511 q 186 447 239 447 q 100 482 131 447 q 69 568 69 517 q 91 641 69 611 q 156 696 113 671 q 256 730 197 719 q 378 740 314 740 q 504 727 446 740 q 604 671 563 714 q 642 594 633 640 q 650 476 650 549 l 650 104 q 655 57 650 69 q 672 44 660 44 q 694 51 683 44 q 714 65 704 58 l 728 42 q 652 3 697 15 q 557 -10 607 -10 q 465 5 497 -10 q 419 44 432 19 q 404 96 406 68 q 331 20 375 50 q 217 -10 288 -10 m 349 101 q 376 106 364 101 q 400 125 388 111 l 400 418 q 374 383 390 400 q 342 347 358 365 q 310 308 325 329 q 287 260 296 288 q 278 197 278 233 q 298 123 278 144 q 349 101 318 101 m 625 1094 l 649 1082 q 601 976 633 1029 q 513 887 568 922 q 372 851 457 851 q 232 887 288 851 q 144 976 176 922 q 96 1082 111 1029 l 119 1094 q 175 1060 142 1078 q 257 1029 208 1042 q 372 1017 306 1017 q 488 1029 439 1017 q 570 1060 536 1042 q 625 1094 604 1078 z "},"ắ":{"ha":738,"x_min":31,"x_max":728,"o":"m 217 -10 q 110 15 151 -10 q 49 81 68 40 q 31 165 31 121 q 57 260 31 224 q 126 320 83 297 q 215 358 168 343 q 305 388 263 374 q 374 423 347 403 q 400 475 400 443 l 400 599 q 392 647 400 621 q 364 693 385 674 q 301 713 343 713 q 259 706 279 713 q 224 689 239 700 q 294 638 272 671 q 317 567 317 606 q 278 479 317 511 q 186 447 239 447 q 100 482 131 447 q 69 568 69 517 q 91 641 69 611 q 156 696 113 671 q 256 730 197 719 q 378 740 314 740 q 504 727 446 740 q 604 671 563 714 q 642 594 633 640 q 650 476 650 549 l 650 104 q 655 57 650 69 q 672 44 660 44 q 694 51 683 44 q 714 65 704 58 l 728 42 q 652 3 697 15 q 557 -10 607 -10 q 465 5 497 -10 q 419 44 432 19 q 404 96 406 68 q 331 20 375 50 q 217 -10 288 -10 m 349 101 q 376 106 364 101 q 400 125 388 111 l 400 418 q 374 383 390 400 q 342 347 358 365 q 310 308 325 329 q 287 260 296 288 q 278 197 278 233 q 298 123 278 144 q 349 101 318 101 m 625 1094 l 649 1082 q 601 976 633 1029 q 513 887 568 922 q 372 851 457 851 q 232 887 288 851 q 144 976 176 922 q 96 1082 111 1029 l 119 1094 q 175 1060 142 1078 q 257 1029 208 1042 q 372 1017 306 1017 q 488 1029 439 1017 q 570 1060 536 1042 q 625 1094 604 1078 m 526 1401 q 555 1342 554 1379 q 532 1275 556 1304 q 477 1227 510 1247 q 399 1178 444 1207 q 288 1094 353 1150 l 272 1107 q 328 1238 313 1186 q 354 1326 343 1290 q 390 1390 365 1363 q 453 1423 413 1417 q 526 1401 494 1429 z "},"ặ":{"ha":738,"x_min":31,"x_max":728,"o":"m 217 -10 q 110 15 151 -10 q 49 81 68 40 q 31 165 31 121 q 57 260 31 224 q 126 320 83 297 q 215 358 168 343 q 305 388 263 374 q 374 423 347 403 q 400 475 400 443 l 400 599 q 392 647 400 621 q 364 693 385 674 q 301 713 343 713 q 259 706 279 713 q 224 689 239 700 q 294 638 272 671 q 317 567 317 606 q 278 479 317 511 q 186 447 239 447 q 100 482 131 447 q 69 568 69 517 q 91 641 69 611 q 156 696 113 671 q 256 730 197 719 q 378 740 314 740 q 504 727 446 740 q 604 671 563 714 q 642 594 633 640 q 650 476 650 549 l 650 104 q 655 57 650 69 q 672 44 660 44 q 694 51 683 44 q 714 65 704 58 l 728 42 q 652 3 697 15 q 557 -10 607 -10 q 465 5 497 -10 q 419 44 432 19 q 404 96 406 68 q 331 20 375 50 q 217 -10 288 -10 m 349 101 q 376 106 364 101 q 400 125 388 111 l 400 418 q 374 383 390 400 q 342 347 358 365 q 310 308 325 329 q 287 260 296 288 q 278 197 278 233 q 298 123 278 144 q 349 101 318 101 m 625 1094 l 649 1082 q 601 976 633 1029 q 513 887 568 922 q 372 851 457 851 q 232 887 288 851 q 144 976 176 922 q 96 1082 111 1029 l 119 1094 q 175 1060 142 1078 q 257 1029 208 1042 q 372 1017 306 1017 q 488 1029 439 1017 q 570 1060 536 1042 q 625 1094 604 1078 m 367 -265 q 280 -240 311 -265 q 249 -165 249 -215 q 280 -90 249 -117 q 371 -62 311 -62 q 458 -87 428 -62 q 489 -162 489 -112 q 458 -238 489 -211 q 367 -265 426 -265 z "},"ằ":{"ha":738,"x_min":31,"x_max":728,"o":"m 217 -10 q 110 15 151 -10 q 49 81 68 40 q 31 165 31 121 q 57 260 31 224 q 126 320 83 297 q 215 358 168 343 q 305 388 263 374 q 374 423 347 403 q 400 475 400 443 l 400 599 q 392 647 400 621 q 364 693 385 674 q 301 713 343 713 q 259 706 279 713 q 224 689 239 700 q 294 638 272 671 q 317 567 317 606 q 278 479 317 511 q 186 447 239 447 q 100 482 131 447 q 69 568 69 517 q 91 641 69 611 q 156 696 113 671 q 256 730 197 719 q 378 740 314 740 q 504 727 446 740 q 604 671 563 714 q 642 594 633 640 q 650 476 650 549 l 650 104 q 655 57 650 69 q 672 44 660 44 q 694 51 683 44 q 714 65 704 58 l 728 42 q 652 3 697 15 q 557 -10 607 -10 q 465 5 497 -10 q 419 44 432 19 q 404 96 406 68 q 331 20 375 50 q 217 -10 288 -10 m 349 101 q 376 106 364 101 q 400 125 388 111 l 400 418 q 374 383 390 400 q 342 347 358 365 q 310 308 325 329 q 287 260 296 288 q 278 197 278 233 q 298 123 278 144 q 349 101 318 101 m 625 1094 l 649 1082 q 601 976 633 1029 q 513 887 568 922 q 372 851 457 851 q 232 887 288 851 q 144 976 176 922 q 96 1082 111 1029 l 119 1094 q 175 1060 142 1078 q 257 1029 208 1042 q 372 1017 306 1017 q 488 1029 439 1017 q 570 1060 536 1042 q 625 1094 604 1078 m 196 1401 q 269 1423 228 1431 q 332 1390 310 1415 q 368 1326 357 1363 q 395 1238 379 1290 q 450 1107 411 1186 l 435 1094 q 324 1178 369 1150 q 246 1227 278 1207 q 190 1275 214 1247 q 167 1341 167 1304 q 196 1401 168 1378 z "},"ẳ":{"ha":738,"x_min":31,"x_max":728,"o":"m 217 -10 q 110 15 151 -10 q 49 81 68 40 q 31 165 31 121 q 57 260 31 224 q 126 320 83 297 q 215 358 168 343 q 305 388 263 374 q 374 423 347 403 q 400 475 400 443 l 400 599 q 392 647 400 621 q 364 693 385 674 q 301 713 343 713 q 259 706 279 713 q 224 689 239 700 q 294 638 272 671 q 317 567 317 606 q 278 479 317 511 q 186 447 239 447 q 100 482 131 447 q 69 568 69 517 q 91 641 69 611 q 156 696 113 671 q 256 730 197 719 q 378 740 314 740 q 504 727 446 740 q 604 671 563 714 q 642 594 633 640 q 650 476 650 549 l 650 104 q 655 57 650 69 q 672 44 660 44 q 694 51 683 44 q 714 65 704 58 l 728 42 q 652 3 697 15 q 557 -10 607 -10 q 465 5 497 -10 q 419 44 432 19 q 404 96 406 68 q 331 20 375 50 q 217 -10 288 -10 m 349 101 q 376 106 364 101 q 400 125 388 111 l 400 418 q 374 383 390 400 q 342 347 358 365 q 310 308 325 329 q 287 260 296 288 q 278 197 278 233 q 298 123 278 144 q 349 101 318 101 m 625 1094 l 649 1082 q 601 976 633 1029 q 513 887 568 922 q 372 851 457 851 q 232 887 288 851 q 144 976 176 922 q 96 1082 111 1029 l 119 1094 q 175 1060 142 1078 q 257 1029 208 1042 q 372 1017 306 1017 q 488 1029 439 1017 q 570 1060 536 1042 q 625 1094 604 1078 m 358 1096 l 358 1172 q 440 1228 415 1199 q 464 1300 464 1258 q 435 1375 464 1351 q 363 1399 406 1399 q 323 1394 342 1399 q 297 1386 304 1390 q 353 1354 333 1375 q 374 1301 374 1333 q 349 1244 374 1265 q 289 1222 325 1222 q 229 1245 251 1222 q 207 1303 207 1268 q 225 1360 207 1338 q 264 1394 243 1382 q 328 1419 292 1411 q 407 1426 364 1426 q 558 1394 501 1426 q 615 1307 615 1361 q 549 1212 615 1247 q 386 1160 483 1176 l 386 1096 l 358 1096 z "},"ẵ":{"ha":738,"x_min":31,"x_max":728,"o":"m 217 -10 q 110 15 151 -10 q 49 81 68 40 q 31 165 31 121 q 57 260 31 224 q 126 320 83 297 q 215 358 168 343 q 305 388 263 374 q 374 423 347 403 q 400 475 400 443 l 400 599 q 392 647 400 621 q 364 693 385 674 q 301 713 343 713 q 259 706 279 713 q 224 689 239 700 q 294 638 272 671 q 317 567 317 606 q 278 479 317 511 q 186 447 239 447 q 100 482 131 447 q 69 568 69 517 q 91 641 69 611 q 156 696 113 671 q 256 730 197 719 q 378 740 314 740 q 504 727 446 740 q 604 671 563 714 q 642 594 633 640 q 650 476 650 549 l 650 104 q 655 57 650 69 q 672 44 660 44 q 694 51 683 44 q 714 65 704 58 l 728 42 q 652 3 697 15 q 557 -10 607 -10 q 465 5 497 -10 q 419 44 432 19 q 404 96 406 68 q 331 20 375 50 q 217 -10 288 -10 m 349 101 q 376 106 364 101 q 400 125 388 111 l 400 418 q 374 383 390 400 q 342 347 358 365 q 310 308 325 329 q 287 260 296 288 q 278 197 278 233 q 298 123 278 144 q 349 101 318 101 m 625 1094 l 649 1082 q 601 976 633 1029 q 513 887 568 922 q 372 851 457 851 q 232 887 288 851 q 144 976 176 922 q 96 1082 111 1029 l 119 1094 q 175 1060 142 1078 q 257 1029 208 1042 q 372 1017 306 1017 q 488 1029 439 1017 q 570 1060 536 1042 q 625 1094 604 1078 m 268 1371 q 345 1357 314 1371 q 403 1325 376 1343 q 456 1293 429 1307 q 519 1279 483 1279 q 576 1297 549 1279 q 626 1353 603 1314 l 646 1343 q 574 1169 622 1222 q 468 1117 525 1117 q 390 1131 422 1117 q 333 1163 358 1144 q 279 1196 307 1182 q 215 1210 251 1210 q 159 1192 186 1210 q 108 1135 132 1175 l 89 1144 q 162 1318 113 1265 q 268 1371 211 1371 z "},"ǎ":{"ha":738,"x_min":31,"x_max":728,"o":"m 217 -10 q 110 15 151 -10 q 49 81 68 40 q 31 165 31 121 q 57 260 31 224 q 126 320 83 297 q 215 358 168 343 q 305 388 263 374 q 374 423 347 403 q 400 475 400 443 l 400 599 q 392 647 400 621 q 364 693 385 674 q 301 713 343 713 q 259 706 279 713 q 224 689 239 700 q 294 638 272 671 q 317 567 317 606 q 278 479 317 511 q 186 447 239 447 q 100 482 131 447 q 69 568 69 517 q 91 641 69 611 q 156 696 113 671 q 256 730 197 719 q 378 740 314 740 q 504 727 446 740 q 604 671 563 714 q 642 594 633 640 q 650 476 650 549 l 650 104 q 655 57 650 69 q 672 44 660 44 q 694 51 683 44 q 714 65 704 58 l 728 42 q 652 3 697 15 q 557 -10 607 -10 q 465 5 497 -10 q 419 44 432 19 q 404 96 406 68 q 331 20 375 50 q 217 -10 288 -10 m 349 101 q 376 106 364 101 q 400 125 388 111 l 400 418 q 374 383 390 400 q 342 347 358 365 q 310 308 325 329 q 287 260 296 288 q 278 197 278 233 q 298 123 278 144 q 349 101 318 101 m 621 1156 l 632 1136 q 485 1005 554 1085 q 372 842 417 925 l 347 842 q 235 1004 304 924 q 88 1136 167 1085 l 99 1156 q 261 1119 182 1142 q 388 1072 340 1096 q 491 1119 428 1096 q 621 1156 554 1142 z "},"â":{"ha":738,"x_min":31,"x_max":728,"o":"m 217 -10 q 110 15 151 -10 q 49 81 68 40 q 31 165 31 121 q 57 260 31 224 q 126 320 83 297 q 215 358 168 343 q 305 388 263 374 q 374 423 347 403 q 400 475 400 443 l 400 599 q 392 647 400 621 q 364 693 385 674 q 301 713 343 713 q 259 706 279 713 q 224 689 239 700 q 294 638 272 671 q 317 567 317 606 q 278 479 317 511 q 186 447 239 447 q 100 482 131 447 q 69 568 69 517 q 91 641 69 611 q 156 696 113 671 q 256 730 197 719 q 378 740 314 740 q 504 727 446 740 q 604 671 563 714 q 642 594 633 640 q 650 476 650 549 l 650 104 q 655 57 650 69 q 672 44 660 44 q 694 51 683 44 q 714 65 704 58 l 728 42 q 652 3 697 15 q 557 -10 607 -10 q 465 5 497 -10 q 419 44 432 19 q 404 96 406 68 q 331 20 375 50 q 217 -10 288 -10 m 349 101 q 376 106 364 101 q 400 125 388 111 l 400 418 q 374 383 390 400 q 342 347 358 365 q 310 308 325 329 q 287 260 296 288 q 278 197 278 233 q 298 123 278 144 q 349 101 318 101 m 386 1156 q 498 994 429 1074 q 646 861 567 914 l 635 842 q 473 880 551 857 q 346 925 394 903 q 243 880 307 903 q 113 842 179 857 l 101 861 q 248 992 179 913 q 361 1156 317 1072 l 386 1156 z "},"ấ":{"ha":738,"x_min":31,"x_max":728,"o":"m 217 -10 q 110 15 151 -10 q 49 81 68 40 q 31 165 31 121 q 57 260 31 224 q 126 320 83 297 q 215 358 168 343 q 305 388 263 374 q 374 423 347 403 q 400 475 400 443 l 400 599 q 392 647 400 621 q 364 693 385 674 q 301 713 343 713 q 259 706 279 713 q 224 689 239 700 q 294 638 272 671 q 317 567 317 606 q 278 479 317 511 q 186 447 239 447 q 100 482 131 447 q 69 568 69 517 q 91 641 69 611 q 156 696 113 671 q 256 730 197 719 q 378 740 314 740 q 504 727 446 740 q 604 671 563 714 q 642 594 633 640 q 650 476 650 549 l 650 104 q 655 57 650 69 q 672 44 660 44 q 694 51 683 44 q 714 65 704 58 l 728 42 q 652 3 697 15 q 557 -10 607 -10 q 465 5 497 -10 q 419 44 432 19 q 404 96 406 68 q 331 20 375 50 q 217 -10 288 -10 m 349 101 q 376 106 364 101 q 400 125 388 111 l 400 418 q 374 383 390 400 q 342 347 358 365 q 310 308 325 329 q 287 260 296 288 q 278 197 278 233 q 298 123 278 144 q 349 101 318 101 m 386 1156 q 498 994 429 1074 q 646 861 567 914 l 635 842 q 473 880 551 857 q 346 925 394 903 q 243 880 307 903 q 113 842 179 857 l 101 861 q 248 992 179 913 q 361 1156 317 1072 l 386 1156 m 515 1471 q 544 1411 543 1449 q 521 1344 544 1374 q 466 1297 499 1317 q 388 1248 433 1276 q 276 1164 342 1219 l 261 1176 q 317 1308 301 1256 q 343 1396 332 1360 q 379 1460 354 1432 q 442 1492 401 1486 q 515 1471 483 1499 z "},"ậ":{"ha":738,"x_min":31,"x_max":728,"o":"m 217 -10 q 110 15 151 -10 q 49 81 68 40 q 31 165 31 121 q 57 260 31 224 q 126 320 83 297 q 215 358 168 343 q 305 388 263 374 q 374 423 347 403 q 400 475 400 443 l 400 599 q 392 647 400 621 q 364 693 385 674 q 301 713 343 713 q 259 706 279 713 q 224 689 239 700 q 294 638 272 671 q 317 567 317 606 q 278 479 317 511 q 186 447 239 447 q 100 482 131 447 q 69 568 69 517 q 91 641 69 611 q 156 696 113 671 q 256 730 197 719 q 378 740 314 740 q 504 727 446 740 q 604 671 563 714 q 642 594 633 640 q 650 476 650 549 l 650 104 q 655 57 650 69 q 672 44 660 44 q 694 51 683 44 q 714 65 704 58 l 728 42 q 652 3 697 15 q 557 -10 607 -10 q 465 5 497 -10 q 419 44 432 19 q 404 96 406 68 q 331 20 375 50 q 217 -10 288 -10 m 349 101 q 376 106 364 101 q 400 125 388 111 l 400 418 q 374 383 390 400 q 342 347 358 365 q 310 308 325 329 q 287 260 296 288 q 278 197 278 233 q 298 123 278 144 q 349 101 318 101 m 386 1156 q 498 994 429 1074 q 646 861 567 914 l 635 842 q 473 880 551 857 q 346 925 394 903 q 243 880 307 903 q 113 842 179 857 l 101 861 q 248 992 179 913 q 361 1156 317 1072 l 386 1156 m 367 -265 q 280 -240 311 -265 q 249 -165 249 -215 q 280 -90 249 -117 q 371 -62 311 -62 q 458 -87 428 -62 q 489 -162 489 -112 q 458 -238 489 -211 q 367 -265 426 -265 z "},"ầ":{"ha":738,"x_min":31,"x_max":728,"o":"m 217 -10 q 110 15 151 -10 q 49 81 68 40 q 31 165 31 121 q 57 260 31 224 q 126 320 83 297 q 215 358 168 343 q 305 388 263 374 q 374 423 347 403 q 400 475 400 443 l 400 599 q 392 647 400 621 q 364 693 385 674 q 301 713 343 713 q 259 706 279 713 q 224 689 239 700 q 294 638 272 671 q 317 567 317 606 q 278 479 317 511 q 186 447 239 447 q 100 482 131 447 q 69 568 69 517 q 91 641 69 611 q 156 696 113 671 q 256 730 197 719 q 378 740 314 740 q 504 727 446 740 q 604 671 563 714 q 642 594 633 640 q 650 476 650 549 l 650 104 q 655 57 650 69 q 672 44 660 44 q 694 51 683 44 q 714 65 704 58 l 728 42 q 652 3 697 15 q 557 -10 607 -10 q 465 5 497 -10 q 419 44 432 19 q 404 96 406 68 q 331 20 375 50 q 217 -10 288 -10 m 349 101 q 376 106 364 101 q 400 125 388 111 l 400 418 q 374 383 390 400 q 342 347 358 365 q 310 308 325 329 q 287 260 296 288 q 278 197 278 233 q 298 123 278 144 q 349 101 318 101 m 386 1156 q 498 994 429 1074 q 646 861 567 914 l 635 842 q 473 880 551 857 q 346 925 394 903 q 243 880 307 903 q 113 842 179 857 l 101 861 q 248 992 179 913 q 361 1156 317 1072 l 386 1156 m 185 1471 q 258 1492 217 1500 q 321 1460 299 1485 q 357 1396 346 1432 q 384 1308 368 1360 q 439 1176 400 1256 l 424 1164 q 313 1248 358 1219 q 235 1297 267 1276 q 179 1344 203 1317 q 156 1410 156 1374 q 185 1471 157 1447 z "},"ẩ":{"ha":738,"x_min":31,"x_max":868,"o":"m 217 -10 q 110 15 151 -10 q 49 81 68 40 q 31 165 31 121 q 57 260 31 224 q 126 320 83 297 q 215 358 168 343 q 305 388 263 374 q 374 423 347 403 q 400 475 400 443 l 400 599 q 392 647 400 621 q 364 693 385 674 q 301 713 343 713 q 259 706 279 713 q 224 689 239 700 q 294 638 272 671 q 317 567 317 606 q 278 479 317 511 q 186 447 239 447 q 100 482 131 447 q 69 568 69 517 q 91 641 69 611 q 156 696 113 671 q 256 730 197 719 q 378 740 314 740 q 504 727 446 740 q 604 671 563 714 q 642 594 633 640 q 650 476 650 549 l 650 104 q 655 57 650 69 q 672 44 660 44 q 694 51 683 44 q 714 65 704 58 l 728 42 q 652 3 697 15 q 557 -10 607 -10 q 465 5 497 -10 q 419 44 432 19 q 404 96 406 68 q 331 20 375 50 q 217 -10 288 -10 m 349 101 q 376 106 364 101 q 400 125 388 111 l 400 418 q 374 383 390 400 q 342 347 358 365 q 310 308 325 329 q 287 260 296 288 q 278 197 278 233 q 298 123 278 144 q 349 101 318 101 m 386 1156 q 498 994 429 1074 q 646 861 567 914 l 635 842 q 473 880 551 857 q 346 925 394 903 q 243 880 307 903 q 113 842 179 857 l 101 861 q 248 992 179 913 q 361 1156 317 1072 l 386 1156 m 611 1054 l 611 1131 q 692 1187 668 1157 q 717 1258 717 1217 q 688 1333 717 1310 q 615 1357 658 1357 q 576 1353 594 1357 q 550 1344 557 1349 q 606 1313 586 1333 q 626 1260 626 1292 q 602 1202 626 1224 q 542 1181 578 1181 q 482 1203 504 1181 q 460 1261 460 1226 q 478 1318 460 1296 q 517 1353 496 1340 q 581 1377 544 1369 q 660 1385 617 1385 q 811 1352 754 1385 q 868 1265 868 1319 q 802 1170 868 1206 q 639 1118 736 1135 l 639 1054 l 611 1054 z "},"ẫ":{"ha":738,"x_min":31,"x_max":728,"o":"m 217 -10 q 110 15 151 -10 q 49 81 68 40 q 31 165 31 121 q 57 260 31 224 q 126 320 83 297 q 215 358 168 343 q 305 388 263 374 q 374 423 347 403 q 400 475 400 443 l 400 599 q 392 647 400 621 q 364 693 385 674 q 301 713 343 713 q 259 706 279 713 q 224 689 239 700 q 294 638 272 671 q 317 567 317 606 q 278 479 317 511 q 186 447 239 447 q 100 482 131 447 q 69 568 69 517 q 91 641 69 611 q 156 696 113 671 q 256 730 197 719 q 378 740 314 740 q 504 727 446 740 q 604 671 563 714 q 642 594 633 640 q 650 476 650 549 l 650 104 q 655 57 650 69 q 672 44 660 44 q 694 51 683 44 q 714 65 704 58 l 728 42 q 652 3 697 15 q 557 -10 607 -10 q 465 5 497 -10 q 419 44 432 19 q 404 96 406 68 q 331 20 375 50 q 217 -10 288 -10 m 349 101 q 376 106 364 101 q 400 125 388 111 l 400 418 q 374 383 390 400 q 342 347 358 365 q 310 308 325 329 q 287 260 296 288 q 278 197 278 233 q 298 123 278 144 q 349 101 318 101 m 386 1156 q 498 994 429 1074 q 646 861 567 914 l 635 842 q 473 880 551 857 q 346 925 394 903 q 243 880 307 903 q 113 842 179 857 l 101 861 q 248 992 179 913 q 361 1156 317 1072 l 386 1156 m 257 1440 q 334 1426 303 1440 q 392 1394 365 1413 q 445 1363 418 1376 q 508 1349 472 1349 q 565 1366 538 1349 q 615 1422 592 1383 l 635 1413 q 563 1239 611 1292 q 457 1186 514 1186 q 379 1200 411 1186 q 322 1233 347 1214 q 268 1265 296 1251 q 204 1279 240 1279 q 148 1262 175 1279 q 97 1204 121 1244 l 78 1214 q 151 1388 101 1335 q 257 1440 200 1440 z "}}}
